999
dxfrw 0.6.3
  0
SECTION
  2
HEADER
  9
$ACADVER
  1
AC1021
  9
$DWGCODEPAGE
  3
ANSI_1252
  9
$INSBASE
 10
0
 20
0
 30
0
  9
$EXTMIN
 10
-41.41268265476836
 20
-36.26659576720636
 30
0
  9
$EXTMAX
 10
52.23265379382597
 20
36
 30
0
  9
$LIMMIN
 10
0
 20
0
  9
$LIMMAX
 10
420
 20
297
  9
$ORTHOMODE
 70
    0
  9
$REGENMODE
 70
    1
  9
$FILLMODE
 70
    1
  9
$QTEXTMODE
 70
    0
  9
$MIRRTEXT
 70
    0
  9
$LTSCALE
 40
1
  9
$ATTMODE
 70
    0
  9
$TEXTSIZE
 40
2.5
  9
$TRACEWID
 40
15.68
  9
$TEXTSTYLE
  7
STANDARD
  9
$CLAYER
  8
dimensions
  9
$CELTYPE
  6
BYLAYER
  9
$CECOLOR
 62
  256
  9
$CELTSCALE
 40
1
  9
$DISPSILH
 70
    0
  9
$DIMSCALE
 40
1
  9
$DIMASZ
 40
2.5
  9
$DIMEXO
 40
0.625
  9
$DIMDLI
 40
3.75
  9
$DIMRND
 40
0
  9
$DIMDLE
 40
0
  9
$DIMEXE
 40
1.25
  9
$DIMTP
 40
0
  9
$DIMTM
 40
0
  9
$DIMTXT
 40
2.5
  9
$DIMCEN
 40
2.5
  9
$DIMTSZ
 40
0
  9
$DIMTOL
 70
    0
  9
$DIMLIM
 70
    0
  9
$DIMTIH
 70
    0
  9
$DIMTOH
 70
    0
  9
$DIMSE1
 70
    0
  9
$DIMSE2
 70
    0
  9
$DIMTAD
 70
    1
  9
$DIMZIN
 70
    8
  9
$DIMBLK
  1

  9
$DIMASO
 70
    1
  9
$DIMSHO
 70
    1
  9
$DIMPOST
  1

  9
$DIMAPOST
  1

  9
$DIMALT
 70
    0
  9
$DIMALTD
 70
    3
  9
$DIMALTF
 40
0.03937
  9
$DIMLFAC
 40
1
  9
$DIMTOFL
 70
    1
  9
$DIMTVP
 40
0
  9
$DIMTIX
 70
    0
  9
$DIMSOXD
 70
    0
  9
$DIMSAH
 70
    0
  9
$DIMBLK1
  1

  9
$DIMBLK2
  1

  9
$DIMSTYLE
  2
STANDARD
  9
$DIMCLRD
 70
    0
  9
$DIMCLRE
 70
    0
  9
$DIMCLRT
 70
    0
  9
$DIMTFAC
 40
1
  9
$DIMGAP
 40
0.625
  9
$DIMJUST
 70
    0
  9
$DIMSD1
 70
    0
  9
$DIMSD2
 70
    0
  9
$DIMTOLJ
 70
    0
  9
$DIMTZIN
 70
    8
  9
$DIMALTZ
 70
    0
  9
$DIMALTTZ
 70
    0
  9
$DIMUPT
 70
    0
  9
$DIMDEC
 70
    2
  9
$DIMTDEC
 70
    2
  9
$DIMALTU
 70
    2
  9
$DIMALTTD
 70
    3
  9
$DIMTXSTY
  7
STANDARD
  9
$DIMAUNIT
 70
    0
  9
$DIMADEC
 70
    0
  9
$DIMALTRND
 40
0
  9
$DIMAZIN
 70
    0
  9
$DIMDSEP
 70
   44
  9
$DIMATFIT
 70
    3
  9
$DIMFRAC
 70
    0
  9
$DIMLDRBLK
  1
STANDARD
  9
$DIMLUNIT
 70
    2
  9
$DIMLWD
 70
   -2
  9
$DIMLWE
 70
   -2
  9
$DIMTMOVE
 70
    0
  9
$DIMFXL
 40
1
  9
$DIMFXLON
 70
    0
  9
$DIMJOGANG
 40
0.7854
  9
$DIMTFILL
 70
    0
  9
$DIMTFILLCLR
 70
    0
  9
$DIMARCSYM
 70
    0
  9
$DIMLTYPE
  6

  9
$DIMLTEX1
  6

  9
$DIMLTEX2
  6

  9
$LUNITS
 70
    2
  9
$LUPREC
 70
    4
  9
$SKETCHINC
 40
1
  9
$FILLETRAD
 40
0
  9
$AUNITS
 70
    0
  9
$AUPREC
 70
    2
  9
$MENU
  1
.
  9
$ELEVATION
 40
0
  9
$PELEVATION
 40
0
  9
$THICKNESS
 40
0
  9
$LIMCHECK
 70
    0
  9
$CHAMFERA
 40
0
  9
$CHAMFERB
 40
0
  9
$CHAMFERC
 40
0
  9
$CHAMFERD
 40
0
  9
$SKPOLY
 70
    0
  9
$USRTIMER
 70
    1
  9
$ANGBASE
 50
0
  9
$ANGDIR
 70
    0
  9
$PDMODE
 70
   34
  9
$PDSIZE
 40
0
  9
$PLINEWID
 40
0
  9
$SPLFRAME
 70
    0
  9
$SPLINETYPE
 70
    2
  9
$SPLINESEGS
 70
    8
  9
$HANDSEED
  5
20000
  9
$SURFTAB1
 70
    6
  9
$SURFTAB2
 70
    6
  9
$SURFTYPE
 70
    6
  9
$SURFU
 70
    6
  9
$SURFV
 70
    6
  9
$UCSBASE
  2

  9
$UCSNAME
  2

  9
$UCSORG
 10
0
 20
0
 30
0
  9
$UCSXDIR
 10
1
 20
0
 30
0
  9
$UCSYDIR
 10
0
 20
1
 30
0
  9
$UCSORTHOREF
  2

  9
$UCSORTHOVIEW
 70
    0
  9
$UCSORGTOP
 10
0
 20
0
 30
0
  9
$UCSORGBOTTOM
 10
0
 20
0
 30
0
  9
$UCSORGLEFT
 10
0
 20
0
 30
0
  9
$UCSORGRIGHT
 10
0
 20
0
 30
0
  9
$UCSORGFRONT
 10
0
 20
0
 30
0
  9
$UCSORGBACK
 10
0
 20
0
 30
0
  9
$PUCSBASE
  2

  9
$PUCSNAME
  2

  9
$PUCSORG
 10
0
 20
0
 30
0
  9
$PUCSXDIR
 10
1
 20
0
 30
0
  9
$PUCSYDIR
 10
0
 20
1
 30
0
  9
$PUCSORTHOREF
  2

  9
$PUCSORTHOVIEW
 70
    0
  9
$PUCSORGTOP
 10
0
 20
0
 30
0
  9
$PUCSORGBOTTOM
 10
0
 20
0
 30
0
  9
$PUCSORGLEFT
 10
0
 20
0
 30
0
  9
$PUCSORGRIGHT
 10
0
 20
0
 30
0
  9
$PUCSORGFRONT
 10
0
 20
0
 30
0
  9
$PUCSORGBACK
 10
0
 20
0
 30
0
  9
$USERI1
 70
    0
  9
$USERI2
 70
    0
  9
$USERI3
 70
    0
  9
$USERI4
 70
    0
  9
$USERI5
 70
    0
  9
$USERR1
 40
0
  9
$USERR2
 40
0
  9
$USERR3
 40
0
  9
$USERR4
 40
0
  9
$USERR5
 40
0
  9
$WORLDVIEW
 70
    1
  9
$SHADEDGE
 70
    3
  9
$SHADEDIF
 70
   70
  9
$TILEMODE
 70
    1
  9
$MAXACTVP
 70
   64
  9
$PINSBASE
 10
0
 20
0
 30
0
  9
$PLIMCHECK
 70
    0
  9
$PEXTMIN
 10
0
 20
0
 30
0
  9
$PEXTMAX
 10
0
 20
0
 30
0
  9
$GRIDMODE
 70
    1
  9
$SNAPSTYLE
 70
    0
  9
$PLIMMIN
 10
0
 20
0
  9
$PLIMMAX
 10
297
 20
210
  9
$UNITMODE
 70
    0
  9
$VISRETAIN
 70
    1
  9
$PLINEGEN
 70
    0
  9
$PSLTSCALE
 70
    1
  9
$TREEDEPTH
 70
 3020
  9
$CMLSTYLE
  2
Standard
  9
$CMLJUST
 70
    0
  9
$CMLSCALE
 40
20
  9
$PROXYGRAPHICS
 70
    1
  9
$MEASUREMENT
 70
    1
  9
$CELWEIGHT
370
   -1
  9
$ENDCAPS
280
    0
  9
$JOINSTYLE
280
    0
  9
$LWDISPLAY
290
    0
  9
$INSUNITS
 70
    0
  9
$HYPERLINKBASE
  1

  9
$STYLESHEET
  1

  9
$XEDIT
290
    1
  9
$CEPSNTYPE
380
    0
  9
$PSTYLEMODE
290
    1
  9
$EXTNAMES
290
    1
  9
$PSVPSCALE
 40
0
  9
$OLESTARTUP
290
    0
  9
$SORTENTS
280
  127
  9
$INDEXCTL
280
    0
  9
$HIDETEXT
280
    1
  9
$XCLIPFRAME
290
    0
  9
$HALOGAP
280
    0
  9
$OBSCOLOR
 70
  257
  9
$OBSLTYPE
280
    0
  9
$INTERSECTIONDISPLAY
280
    0
  9
$INTERSECTIONCOLOR
 70
  257
  9
$DIMASSOC
280
    1
  9
$PROJECTNAME
  1

  9
$CAMERADISPLAY
290
    0
  9
$LENSLENGTH
 40
50
  9
$CAMERAHEIGHT
 40
0
  9
$STEPSPERSEC
 40
2
  9
$STEPSIZE
 40
50
  9
$3DDWFPREC
 40
2
  9
$PSOLWIDTH
 40
5
  9
$PSOLHEIGHT
 40
80
  9
$LOFTANG1
 40
1.570796326794897
  9
$LOFTANG2
 40
1.570796326794897
  9
$LOFTMAG1
 40
0
  9
$LOFTMAG2
 40
0
  9
$LOFTPARAM
 70
    7
  9
$LOFTNORMALS
280
    1
  9
$LATITUDE
 40
1
  9
$LONGITUDE
 40
1
  9
$NORTHDIRECTION
 40
0
  9
$TIMEZONE
 70
-8000
  9
$LIGHTGLYPHDISPLAY
280
    1
  9
$TILEMODELIGHTSYNCH
280
    1
  9
$SOLIDHIST
280
    1
  9
$SHOWHIST
280
    1
  9
$DWFFRAME
280
    2
  9
$DGNFRAME
280
    0
  9
$REALWORLDSCALE
290
    1
  9
$INTERFERECOLOR
 62
    1
  9
$CSHADOW
280
    0
  9
$SHADOWPLANELOCATION
 40
0
  0
ENDSEC
  0
SECTION
  2
CLASSES
  0
ENDSEC
  0
SECTION
  2
TABLES
  0
TABLE
  2
VPORT
  5
8
330
0
100
AcDbSymbolTable
 70
    1
  0
VPORT
  5
31
330
2
100
AcDbSymbolTableRecord
100
AcDbViewportTableRecord
  2
*ACTIVE
 70
    0
 10
0
 20
0
 11
1
 21
1
 12
8.976633691370949
 22
17.18588120236625
 13
0
 23
0
 14
10
 24
10
 15
10
 25
10
 16
0
 26
0
 36
1
 17
0
 27
0
 37
0
 40
29.1963672347572
 41
1.89119804400978
 42
50
 43
0
 44
0
 50
0
 51
0
 71
    0
 72
  100
 73
    1
 74
    3
 75
    0
 76
    1
 77
    0
 78
    0
281
    0
 65
    1
110
0
120
0
130
0
111
1
121
0
131
0
112
0
122
1
132
0
 79
    0
146
0
348
10020
 60
    7
 61
    5
292
1
282
    1
141
0
142
0
 63
  250
421
3358443
  0
ENDTAB
  0
TABLE
  2
LTYPE
  5
5
330
0
100
AcDbSymbolTable
 70
    4
  0
LTYPE
  5
14
330
5
100
AcDbSymbolTableRecord
100
AcDbLinetypeTableRecord
  2
ByBlock
 70
    0
  3

 72
   65
 73
    0
 40
0
  0
LTYPE
  5
15
330
5
100
AcDbSymbolTableRecord
100
AcDbLinetypeTableRecord
  2
ByLayer
 70
    0
  3

 72
   65
 73
    0
 40
0
  0
LTYPE
  5
16
330
5
100
AcDbSymbolTableRecord
100
AcDbLinetypeTableRecord
  2
Continuous
 70
    0
  3
Solid line
 72
   65
 73
    0
 40
0
  0
LTYPE
  5
32
330
5
100
AcDbSymbolTableRecord
100
AcDbLinetypeTableRecord
  2
DOT
 70
    0
  3
Dot . . . . . . . . . . . . . . . . . . . . . .
 72
   65
 73
    2
 40
6.35
 49
0
 74
    0
 49
-6.35
 74
    0
  0
LTYPE
  5
33
330
5
100
AcDbSymbolTableRecord
100
AcDbLinetypeTableRecord
  2
DOTTINY
 70
    0
  3
Dot (.15x) .....................................
 72
   65
 73
    2
 40
0.9525
 49
0
 74
    0
 49
-0.9525
 74
    0
  0
LTYPE
  5
34
330
5
100
AcDbSymbolTableRecord
100
AcDbLinetypeTableRecord
  2
DOT2
 70
    0
  3
Dot (.5x) .....................................
 72
   65
 73
    2
 40
3.175
 49
0
 74
    0
 49
-3.175
 74
    0
  0
LTYPE
  5
35
330
5
100
AcDbSymbolTableRecord
100
AcDbLinetypeTableRecord
  2
DOTX2
 70
    0
  3
Dot (2x) .  .  .  .  .  .  .  .  .  .  .  .  .
 72
   65
 73
    2
 40
12.7
 49
0
 74
    0
 49
-12.7
 74
    0
  0
LTYPE
  5
36
330
5
100
AcDbSymbolTableRecord
100
AcDbLinetypeTableRecord
  2
DASHED
 70
    0
  3
Dashed _ _ _ _ _ _ _ _ _ _ _ _ _ _ _ _ _
 72
   65
 73
    2
 40
19.05
 49
12.7
 74
    0
 49
-6.35
 74
    0
  0
LTYPE
  5
37
330
5
100
AcDbSymbolTableRecord
100
AcDbLinetypeTableRecord
  2
DASHEDTINY
 70
    0
  3
Dashed (.15x) _ _ _ _ _ _ _ _ _ _ _ _ _ _ _ _ _
 72
   65
 73
    2
 40
2.8575
 49
1.905
 74
    0
 49
-0.9525
 74
    0
  0
LTYPE
  5
38
330
5
100
AcDbSymbolTableRecord
100
AcDbLinetypeTableRecord
  2
DASHED2
 70
    0
  3
Dashed (.5x) _ _ _ _ _ _ _ _ _ _ _ _ _ _ _ _ _
 72
   65
 73
    2
 40
9.524999999999999
 49
6.35
 74
    0
 49
-3.175
 74
    0
  0
LTYPE
  5
39
330
5
100
AcDbSymbolTableRecord
100
AcDbLinetypeTableRecord
  2
DASHEDX2
 70
    0
  3
Dashed (2x) ____  ____  ____  ____  ____  ___
 72
   65
 73
    2
 40
38.09999999999999
 49
25.4
 74
    0
 49
-12.7
 74
    0
  0
LTYPE
  5
3A
330
5
100
AcDbSymbolTableRecord
100
AcDbLinetypeTableRecord
  2
DASHDOT
 70
    0
  3
Dash dot __ . __ . __ . __ . __ . __ . __ . __
 72
   65
 73
    4
 40
25.4
 49
12.7
 74
    0
 49
-6.35
 74
    0
 49
0
 74
    0
 49
-6.35
 74
    0
  0
LTYPE
  5
3B
330
5
100
AcDbSymbolTableRecord
100
AcDbLinetypeTableRecord
  2
DASHDOTTINY
 70
    0
  3
Dash dot (.15x) _._._._._._._._._._._._._._._.
 72
   65
 73
    4
 40
3.81
 49
1.905
 74
    0
 49
-0.9525
 74
    0
 49
0
 74
    0
 49
-0.9525
 74
    0
  0
LTYPE
  5
3C
330
5
100
AcDbSymbolTableRecord
100
AcDbLinetypeTableRecord
  2
DASHDOT2
 70
    0
  3
Dash dot (.5x) _._._._._._._._._._._._._._._.
 72
   65
 73
    4
 40
12.7
 49
6.35
 74
    0
 49
-3.175
 74
    0
 49
0
 74
    0
 49
-3.175
 74
    0
  0
LTYPE
  5
3D
330
5
100
AcDbSymbolTableRecord
100
AcDbLinetypeTableRecord
  2
DASHDOTX2
 70
    0
  3
Dash dot (2x) ____  .  ____  .  ____  .  ___
 72
   65
 73
    4
 40
50.8
 49
25.4
 74
    0
 49
-12.7
 74
    0
 49
0
 74
    0
 49
-12.7
 74
    0
  0
LTYPE
  5
3E
330
5
100
AcDbSymbolTableRecord
100
AcDbLinetypeTableRecord
  2
DIVIDE
 70
    0
  3
Divide ____ . . ____ . . ____ . . ____ . . ____
 72
   65
 73
    6
 40
31.75
 49
12.7
 74
    0
 49
-6.35
 74
    0
 49
0
 74
    0
 49
-6.35
 74
    0
 49
0
 74
    0
 49
-6.35
 74
    0
  0
LTYPE
  5
3F
330
5
100
AcDbSymbolTableRecord
100
AcDbLinetypeTableRecord
  2
DIVIDETINY
 70
    0
  3
Divide (.15x) __..__..__..__..__..__..__..__.._
 72
   65
 73
    6
 40
4.7625
 49
1.905
 74
    0
 49
-0.9525
 74
    0
 49
0
 74
    0
 49
-0.9525
 74
    0
 49
0
 74
    0
 49
-0.9525
 74
    0
  0
LTYPE
  5
40
330
5
100
AcDbSymbolTableRecord
100
AcDbLinetypeTableRecord
  2
DIVIDE2
 70
    0
  3
Divide (.5x) __..__..__..__..__..__..__..__.._
 72
   65
 73
    6
 40
15.875
 49
6.35
 74
    0
 49
-3.175
 74
    0
 49
0
 74
    0
 49
-3.175
 74
    0
 49
0
 74
    0
 49
-3.175
 74
    0
  0
LTYPE
  5
41
330
5
100
AcDbSymbolTableRecord
100
AcDbLinetypeTableRecord
  2
DIVIDEX2
 70
    0
  3
Divide (2x) ________  .  .  ________  .  .  _
 72
   65
 73
    6
 40
63.5
 49
25.4
 74
    0
 49
-12.7
 74
    0
 49
0
 74
    0
 49
-12.7
 74
    0
 49
0
 74
    0
 49
-12.7
 74
    0
  0
LTYPE
  5
42
330
5
100
AcDbSymbolTableRecord
100
AcDbLinetypeTableRecord
  2
BORDER
 70
    0
  3
Border __ __ . __ __ . __ __ . __ __ . __ __ .
 72
   65
 73
    6
 40
44.45
 49
12.7
 74
    0
 49
-6.35
 74
    0
 49
12.7
 74
    0
 49
-6.35
 74
    0
 49
0
 74
    0
 49
-6.35
 74
    0
  0
LTYPE
  5
43
330
5
100
AcDbSymbolTableRecord
100
AcDbLinetypeTableRecord
  2
BORDERTINY
 70
    0
  3
Border (.15x) __.__.__.__.__.__.__.__.__.__.__.
 72
   65
 73
    6
 40
6.6675
 49
1.905
 74
    0
 49
-0.9525
 74
    0
 49
1.905
 74
    0
 49
-0.9525
 74
    0
 49
0
 74
    0
 49
-0.9525
 74
    0
  0
LTYPE
  5
44
330
5
100
AcDbSymbolTableRecord
100
AcDbLinetypeTableRecord
  2
BORDER2
 70
    0
  3
Border (.5x) __.__.__.__.__.__.__.__.__.__.__.
 72
   65
 73
    6
 40
22.225
 49
6.35
 74
    0
 49
-3.175
 74
    0
 49
6.35
 74
    0
 49
-3.175
 74
    0
 49
0
 74
    0
 49
-3.175
 74
    0
  0
LTYPE
  5
45
330
5
100
AcDbSymbolTableRecord
100
AcDbLinetypeTableRecord
  2
BORDERX2
 70
    0
  3
Border (2x) ____  ____  .  ____  ____  .  ___
 72
   65
 73
    6
 40
88.89999999999999
 49
25.4
 74
    0
 49
-12.7
 74
    0
 49
25.4
 74
    0
 49
-12.7
 74
    0
 49
0
 74
    0
 49
-12.7
 74
    0
  0
LTYPE
  5
46
330
5
100
AcDbSymbolTableRecord
100
AcDbLinetypeTableRecord
  2
CENTER
 70
    0
  3
Center ____ _ ____ _ ____ _ ____ _ ____ _ ____
 72
   65
 73
    4
 40
50.8
 49
31.75
 74
    0
 49
-6.35
 74
    0
 49
6.35
 74
    0
 49
-6.35
 74
    0
  0
LTYPE
  5
47
330
5
100
AcDbSymbolTableRecord
100
AcDbLinetypeTableRecord
  2
CENTERTINY
 70
    0
  3
Center (.15x) ___ _ ___ _ ___ _ ___ _ ___ _ ___
 72
   65
 73
    4
 40
7.619999999999999
 49
4.7625
 74
    0
 49
-0.9525
 74
    0
 49
0.9525
 74
    0
 49
-0.9525
 74
    0
  0
LTYPE
  5
48
330
5
100
AcDbSymbolTableRecord
100
AcDbLinetypeTableRecord
  2
CENTER2
 70
    0
  3
Center (.5x) ___ _ ___ _ ___ _ ___ _ ___ _ ___
 72
   65
 73
    4
 40
28.575
 49
19.05
 74
    0
 49
-3.175
 74
    0
 49
3.175
 74
    0
 49
-3.175
 74
    0
  0
LTYPE
  5
49
330
5
100
AcDbSymbolTableRecord
100
AcDbLinetypeTableRecord
  2
CENTERX2
 70
    0
  3
Center (2x) ________  __  ________  __  _____
 72
   65
 73
    4
 40
101.6
 49
63.5
 74
    0
 49
-12.7
 74
    0
 49
12.7
 74
    0
 49
-12.7
 74
    0
  0
ENDTAB
  0
TABLE
  2
LAYER
  5
2
330
0
100
AcDbSymbolTable
 70
    1
  0
LAYER
  5
10
330
2
100
AcDbSymbolTableRecord
100
AcDbLayerTableRecord
  2
0
 70
    0
 62
    7
  6
CONTINUOUS
370
   -3
390
F
  0
LAYER
  5
4A
330
2
100
AcDbSymbolTableRecord
100
AcDbLayerTableRecord
  2
dimensions
 70
    0
 62
    7
  6
CONTINUOUS
370
   -3
390
F
  0
LAYER
  5
4B
330
2
100
AcDbSymbolTableRecord
100
AcDbLayerTableRecord
  2
s001-#def-active-grp
 70
    0
 62
    7
  6
CONTINUOUS
370
   -3
390
F
  0
LAYER
  5
4C
330
2
100
AcDbSymbolTableRecord
100
AcDbLayerTableRecord
  2
text
 70
    0
 62
    7
  6
CONTINUOUS
370
   -3
390
F
  0
ENDTAB
  0
TABLE
  2
STYLE
  5
3
330
0
100
AcDbSymbolTable
 70
    3
  0
STYLE
  5
4D
330
2
100
AcDbSymbolTableRecord
100
AcDbTextStyleTableRecord
  2
Standard
 70
    0
 40
0
 41
1
 50
0
 71
    0
 42
1
  3
txt
  4

  0
ENDTAB
  0
TABLE
  2
VIEW
  5
6
330
0
100
AcDbSymbolTable
 70
    0
  0
ENDTAB
  0
TABLE
  2
UCS
  5
7
330
0
100
AcDbSymbolTable
 70
    0
  0
ENDTAB
  0
TABLE
  2
APPID
  5
9
330
0
100
AcDbSymbolTable
 70
    1
  0
APPID
  5
12
330
9
100
AcDbSymbolTableRecord
100
AcDbRegAppTableRecord
  2
ACAD
 70
    0
  0
APPID
  5
4E
330
9
100
AcDbSymbolTableRecord
100
AcDbRegAppTableRecord
  2
LibreCad
 70
    0
  0
ENDTAB
  0
TABLE
  2
DIMSTYLE
  5
A
330
0
100
AcDbSymbolTable
 70
    1
100
AcDbDimStyleTable
 71
    1
  0
DIMSTYLE
105
4F
330
A
100
AcDbSymbolTableRecord
100
AcDbDimStyleTableRecord
  2
Standard
 70
    0
 40
1
 41
2.5
 42
0.625
 43
0.38
 44
1.25
 45
0
 46
0
 47
0
 48
0
 49
1
140
2.5
141
0.09
142
0
143
25.4
144
1
145
0
146
1
147
0.625
148
0
 71
    0
 72
    0
 73
    0
 74
    1
 75
    0
 76
    0
 77
    0
 78
    8
 79
    0
170
    0
171
    2
172
    0
173
    0
174
    0
175
    0
176
    0
177
    0
178
    0
179
    0
271
    2
272
    4
273
    2
274
    2
275
    0
276
    0
277
    2
278
   44
279
    0
280
    0
281
    0
282
    0
283
    1
284
    0
285
    0
286
    0
288
    0
289
    3
340
STANDARD
341

371
   -2
372
   -2
  0
ENDTAB
  0
TABLE
  2
BLOCK_RECORD
  5
1
330
0
100
AcDbSymbolTable
 70
    2
  0
BLOCK_RECORD
  5
1F
330
1
100
AcDbSymbolTableRecord
100
AcDbBlockTableRecord
  2
*Model_Space
 70
    0
280
    1
281
    0
  0
BLOCK_RECORD
  5
1E
330
1
100
AcDbSymbolTableRecord
100
AcDbBlockTableRecord
  2
*Paper_Space
 70
    0
280
    1
281
    0
  0
ENDTAB
  0
ENDSEC
  0
SECTION
  2
BLOCKS
  0
BLOCK
  5
20
330
1F
100
AcDbEntity
  8
0
100
AcDbBlockBegin
  2
*Model_Space
 70
    0
 10
0
 20
0
 30
0
  3
*Model_Space
  1

  0
ENDBLK
  5
21
330
1F
100
AcDbEntity
  8
0
100
AcDbBlockEnd
  0
BLOCK
  5
1C
330
1B
100
AcDbEntity
  8
0
100
AcDbBlockBegin
  2
*Paper_Space
 70
    0
 10
0
 20
0
 30
0
  3
*Paper_Space
  1

  0
ENDBLK
  5
1D
330
1F
100
AcDbEntity
  8
0
100
AcDbBlockEnd
  0
ENDSEC
  0
SECTION
  2
ENTITIES
  0
LWPOLYLINE
  5
50
100
AcDbEntity
  8
s001-#def-active-grp
  6
CONTINUOUS
 62
    7
370
   15
100
AcDbPolyline
 90
   10
 70
    0
 43
0
 10
-32.35790188391459
 20
25.6816382708962
 10
-25.97172526155772
 20
23.46003910956101
 10
-31.67137403768918
 20
26.01798282170504
 10
-30.36757787495409
 20
28.92312110445059
 10
-30.36757787495409
 20
33.70175836422504
 10
-14.82748088886174
 20
33.70175836422504
 10
1.384563219780567
 20
33.70175836422504
 10
-0.2958907382448146
 20
28.92312110445059
 10
-14.72061439669289
 20
28.92312110445059
 10
-30.36757787495409
 20
28.92312110445059
  0
LWPOLYLINE
  5
51
100
AcDbEntity
  8
s001-#def-active-grp
  6
CONTINUOUS
 62
    7
370
   15
100
AcDbPolyline
 90
    7
 70
    0
 43
0
 10
37.48556471544858
 20
28.00983438974686
 10
21.40485038045732
 20
28.00983438974686
 10
5.870437740337614
 20
26.43237843259497
 10
0.156933297031209
 20
26.43237843259497
 10
-14.76952355006809
 20
23.46003910956101
 10
0.1279824454455607
 20
27.46087156738981
 10
-14.72061439669289
 20
28.92312110445059
  0
LWPOLYLINE
  5
52
100
AcDbEntity
  8
s001-#def-active-grp
  6
CONTINUOUS
 62
    7
370
   15
100
AcDbPolyline
 90
    4
 70
    0
 43
0
 10
-31.56346450617282
 20
-8.230452674897116
 10
-19.41068672839507
 20
-8.230452674897116
 10
-19.41068672839507
 20
-13.74421296296296
 10
-31.56346450617282
 20
-13.74421296296296
  0
LWPOLYLINE
  5
53
100
AcDbEntity
  8
s001-#def-active-grp
  6
CONTINUOUS
 62
    7
370
   15
100
AcDbPolyline
 90
    7
 70
    0
 43
0
 10
-34.67264404965475
 20
26.00522228944679
 10
-36.24901744877667
 20
28.77194594430957
 10
-41.02765470855113
 20
28.77194594430957
 10
-41.02765470855113
 20
3.626117399612554
 10
-36.24901744877667
 20
3.626117399612554
 10
-34.67264404965475
 20
6.392841054475333
 10
-34.67264404965475
 20
26.00522228944679
  0
LWPOLYLINE
  5
54
100
AcDbEntity
  8
s001-#def-active-grp
  6
CONTINUOUS
 62
    7
370
   15
100
AcDbPolyline
 90
   13
 70
    0
 43
0
 10
6.216762558094679
 20
-3.52899080727299
 10
6.216762558094679
 20
-9.436058757204847
 10
9.910368479757544
 20
-12.35526169371478
 10
12.19130985137552
 20
-12.35526169371478
 10
12.19130985137552
 20
-9.500195169796491
 10
14.97925468281638
 20
-9.500195169796491
 10
17.58708273318544
 20
-9.500195169796491
 10
17.58708273318544
 20
-3.464854394681346
 10
14.97925468281638
 20
-3.464854394681346
 10
12.19130985137552
 20
-3.464854394681346
 10
12.19130985137552
 20
-0.6097878707630571
 10
9.910368479757544
 20
-0.6097878707630571
 10
6.216762558094679
 20
-3.52899080727299
  0
LWPOLYLINE
  5
55
100
AcDbEntity
  8
s001-#def-active-grp
  6
CONTINUOUS
 62
    7
370
   15
100
AcDbPolyline
 90
    5
 70
    0
 43
0
 10
41.60640715526765
 20
-36.26659576720636
 10
41.60640715526765
 20
-33.95178095239154
 10
-41.41268265476836
 20
-33.95178095239154
 10
-41.41268265476836
 20
-36.26659576720636
 10
41.60640715526765
 20
-36.26659576720636
  0
LWPOLYLINE
  5
56
100
AcDbEntity
  8
s001-#def-active-grp
  6
CONTINUOUS
 62
    7
370
   15
100
AcDbPolyline
 90
    5
 70
    0
 43
0
 10
-0.385802469135804
 20
-13.02083333333335
 10
-0.385802469135804
 20
-9.16280864197531
 10
-17.93981481481481
 20
-9.16280864197531
 10
-17.93981481481481
 20
-13.02083333333335
 10
-0.385802469135804
 20
-13.02083333333335
  0
LINE
  5
57
100
AcDbEntity
  8
s001-#def-active-grp
  6
CONTINUOUS
 62
    7
370
   15
100
AcDbLine
 10
-30.36757787495411
 20
3.466742127818293
 11
-14.72061439669289
 21
3.466742127818293
  0
ARC
  5
58
100
AcDbEntity
  8
s001-#def-active-grp
  6
CONTINUOUS
 62
    7
370
   15
100
AcDbCircle
 10
-12.43062393607207
 20
16.19493161613444
 40
22.07020637792207
100
AcDbArc
 50
154.5424521247446
 51
-154.5424521247445
  0
ARC
  5
59
100
AcDbEntity
  8
s001-#def-active-grp
  6
CONTINUOUS
 62
    7
370
   15
100
AcDbCircle
 10
20.47301691736902
 20
16.19493161613445
 40
20.71276683912257
100
AcDbArc
 50
-34.779270658554
 51
34.77927065855399
  0
ARC
  5
5A
100
AcDbEntity
  8
s001-#def-active-grp
  6
CONTINUOUS
 62
    7
370
   15
100
AcDbCircle
 10
38.97910758784717
 20
-14.54325707171042
 40
13.2535462059788
100
AcDbArc
 50
43.74206283595539
 51
133.4660391817511
  0
ARC
  5
5B
100
AcDbEntity
  8
s001-#def-active-grp
  6
CONTINUOUS
 62
    7
370
   15
100
AcDbCircle
 10
38.97910758784717
 20
-14.54325707171042
 40
13.2535462059788
100
AcDbArc
 50
133.4660391817511
 51
-136.8099844724533
  0
ARC
  5
5C
100
AcDbEntity
  8
s001-#def-active-grp
  6
CONTINUOUS
 62
    7
370
   15
100
AcDbCircle
 10
38.97910758784718
 20
-14.54325707171043
 40
13.2535462059788
100
AcDbArc
 50
-136.8099844724533
 51
-47.0860081266576
  0
ARC
  5
5D
100
AcDbEntity
  8
s001-#def-active-grp
  6
CONTINUOUS
 62
    7
370
   15
100
AcDbCircle
 10
38.97910758784717
 20
-14.54325707171042
 40
13.2535462059788
100
AcDbArc
 50
-47.08600812665757
 51
42.63796821913805
  0
LINE
  5
5E
100
AcDbEntity
  8
0
  6
ByLayer
 62
  256
370
   -1
100
AcDbLine
 10
0.1569332970312303
 20
26.43237843259497
 11
0.156933297031209
 21
5.957484799673892
  0
LINE
  5
5F
100
AcDbEntity
  8
0
  6
ByLayer
 62
  256
370
   -1
100
AcDbLine
 10
5.870437740337678
 20
26.43237843259497
 11
5.870437740337628
 21
5.957484799673892
  0
LINE
  5
60
100
AcDbEntity
  8
dimensions
  6
ByLayer
 62
  256
370
   -1
100
AcDbLine
 10
-14.7695235500681
 20
23.46003910956101
 11
-14.72061439669284
 21
28.92312110445059
  0
LINE
  5
61
100
AcDbEntity
  8
dimensions
  6
ByLayer
 62
  256
370
   -1
100
AcDbLine
 10
-14.76952355006809
 20
8.929824122707871
 11
-14.72061439669289
 21
3.466742127818293
  0
LINE
  5
62
100
AcDbEntity
  8
dimensions
  6
ByLayer
 62
  256
370
   -1
100
AcDbLine
 10
12.19130985137552
 20
-3.464854394681347
 11
12.19130985137552
 21
-9.500195169796491
  0
LINE
  5
63
100
AcDbEntity
  8
dimensions
  6
ByLayer
 62
  256
370
   -1
100
AcDbLine
 10
12.19130985137552
 20
-9.500195169796491
 11
6.216762558094679
 21
-9.436058757204849
  0
LINE
  5
64
100
AcDbEntity
  8
dimensions
  6
ByLayer
 62
  256
370
   -1
100
AcDbLine
 10
12.19130985137552
 20
-3.464854394681347
 11
6.216762558094679
 21
-3.52899080727299
  0
LINE
  5
65
100
AcDbEntity
  8
dimensions
  6
ByLayer
 62
  256
370
   -1
100
AcDbLine
 10
-31.67137403768918
 20
6.371880410563837
 11
-33
 21
4
  0
LINE
  5
66
100
AcDbEntity
  8
dimensions
  6
ByLayer
 62
  256
370
   -1
100
AcDbLine
 10
-33
 20
4
 11
-30.36757787495411
 21
3.466742127818291
  0
LINE
  5
67
100
AcDbEntity
  8
dimensions
  6
ByLayer
 62
  256
370
   -1
100
AcDbLine
 10
-30.36757787495411
 20
3.466742127818291
 11
-33
 21
1
  0
LINE
  5
68
100
AcDbEntity
  8
dimensions
  6
ByLayer
 62
  256
370
   -1
100
AcDbLine
 10
-33
 20
1
 11
-30.36757787495411
 21
-1.311895131956163
  0
LINE
  5
69
100
AcDbEntity
  8
dimensions
  6
ByLayer
 62
  256
370
   -1
100
AcDbLine
 10
-31.67137403768918
 20
26.01798282170504
 11
-33
 21
28
  0
LINE
  5
6A
100
AcDbEntity
  8
dimensions
  6
ByLayer
 62
  256
370
   -1
100
AcDbLine
 10
-33
 20
28
 11
-30.36757787495409
 21
28.92312110445059
  0
LINE
  5
6B
100
AcDbEntity
  8
dimensions
  6
ByLayer
 62
  256
370
   -1
100
AcDbLine
 10
-30.36757787495409
 20
28.92312110445059
 11
-33
 21
31
  0
LINE
  5
6C
100
AcDbEntity
  8
dimensions
  6
ByLayer
 62
  256
370
   -1
100
AcDbLine
 10
-33
 20
31
 11
-30.36757787495409
 21
33.70175836422504
  0
LINE
  5
6D
100
AcDbEntity
  8
dimensions
  6
ByLayer
 62
  256
370
   -1
100
AcDbLine
 10
-30.36757787495411
 20
-1.311895131956164
 11
-29
 21
-3
  0
LINE
  5
6E
100
AcDbEntity
  8
dimensions
  6
ByLayer
 62
  256
370
   -1
100
AcDbLine
 10
-29
 20
-3
 11
-16
 21
-3
  0
LINE
  5
6F
100
AcDbEntity
  8
dimensions
  6
ByLayer
 62
  256
370
   -1
100
AcDbLine
 10
-14.7206143966929
 20
3.466742127818293
 11
-14.7206143966929
 21
-2
  0
LINE
  5
70
100
AcDbEntity
  8
dimensions
  6
ByLayer
 62
  256
370
   -1
100
AcDbLine
 10
-14.72061439669284
 20
28.92312110445058
 11
-14.72061439669284
 21
34
  0
LINE
  5
71
100
AcDbEntity
  8
dimensions
  6
ByLayer
 62
  256
370
   -1
100
AcDbLine
 10
-16
 20
-3
 11
-14.72061439669289
 21
-1.311895131956163
  0
LINE
  5
72
100
AcDbEntity
  8
dimensions
  6
ByLayer
 62
  256
370
   -1
100
AcDbLine
 10
-14.72061439669289
 20
-1.311895131956163
 11
-14
 21
-3
  0
LINE
  5
73
100
AcDbEntity
  8
dimensions
  6
ByLayer
 62
  256
370
   -1
100
AcDbLine
 10
-14
 20
-3
 11
0
 21
-3
  0
LINE
  5
74
100
AcDbEntity
  8
dimensions
  6
ByLayer
 62
  256
370
   -1
100
AcDbLine
 10
0
 20
-3
 11
1.384563219780567
 21
-1.311895131956163
  0
LINE
  5
75
100
AcDbEntity
  8
dimensions
  6
ByLayer
 62
  256
370
   -1
100
AcDbLine
 10
1.384563219780567
 20
-1.311895131956163
 11
2
 21
1
  0
LINE
  5
76
100
AcDbEntity
  8
dimensions
  6
ByLayer
 62
  256
370
   -1
100
AcDbLine
 10
2
 20
1
 11
1
 21
3
  0
LINE
  5
77
100
AcDbEntity
  8
dimensions
  6
ByLayer
 62
  256
370
   -1
100
AcDbLine
 10
1
 20
3
 11
-0.2958907382448145
 21
3.466742127818293
  0
LINE
  5
78
100
AcDbEntity
  8
dimensions
  6
ByLayer
 62
  256
370
   -1
100
AcDbLine
 10
-30.36757787495409
 20
33.70175836422504
 11
-29
 21
36
  0
LINE
  5
79
100
AcDbEntity
  8
dimensions
  6
ByLayer
 62
  256
370
   -1
100
AcDbLine
 10
-29
 20
36
 11
-17
 21
36
  0
LINE
  5
7A
100
AcDbEntity
  8
dimensions
  6
ByLayer
 62
  256
370
   -1
100
AcDbLine
 10
-17
 20
36
 11
-14.72061439669284
 21
33.70175836422504
  0
LINE
  5
7B
100
AcDbEntity
  8
dimensions
  6
ByLayer
 62
  256
370
   -1
100
AcDbLine
 10
-14.72061439669284
 20
33.70175836422504
 11
-12
 21
36
  0
LINE
  5
7C
100
AcDbEntity
  8
dimensions
  6
ByLayer
 62
  256
370
   -1
100
AcDbLine
 10
-12
 20
36
 11
-1
 21
36
  0
LINE
  5
7D
100
AcDbEntity
  8
dimensions
  6
ByLayer
 62
  256
370
   -1
100
AcDbLine
 10
-1
 20
36
 11
1.384563219780567
 21
33.70175836422504
  0
LINE
  5
7E
100
AcDbEntity
  8
dimensions
  6
ByLayer
 62
  256
370
   -1
100
AcDbLine
 10
1.384563219780567
 20
33.70175836422504
 11
2
 21
31
  0
LINE
  5
7F
100
AcDbEntity
  8
dimensions
  6
ByLayer
 62
  256
370
   -1
100
AcDbLine
 10
2
 20
31
 11
-0.2958907382448146
 21
28.92312110445059
  0
LINE
  5
80
100
AcDbEntity
  8
s001-#def-active-grp
  6
CONTINUOUS
 62
    7
370
   15
100
AcDbLine
 10
-32.35790188391459
 20
6.708224961372679
 11
-25.97172526155772
 21
8.929824122707871
  0
LINE
  5
81
100
AcDbEntity
  8
s001-#def-active-grp
  6
CONTINUOUS
 62
    7
370
    0
100
AcDbLine
 10
-25.97172526155772
 20
8.929824122707871
 11
-31.67137403768918
 21
6.37188041056384
  0
LINE
  5
82
100
AcDbEntity
  8
s001-#def-active-grp
  6
CONTINUOUS
 62
    7
370
    0
100
AcDbLine
 10
-31.67137403768918
 20
6.37188041056384
 11
-30.36757787495411
 21
3.466742127818293
  0
LINE
  5
83
100
AcDbEntity
  8
s001-#def-active-grp
  6
CONTINUOUS
 62
    7
370
    0
100
AcDbLine
 10
-30.36757787495411
 20
3.466742127818293
 11
-30.36757787495411
 21
-1.311895131956163
  0
LINE
  5
84
100
AcDbEntity
  8
s001-#def-active-grp
  6
CONTINUOUS
 62
    7
370
    0
100
AcDbLine
 10
-30.36757787495411
 20
-1.311895131956163
 11
-14.69352169818958
 21
-1.311895131956163
  0
LINE
  5
85
100
AcDbEntity
  8
s001-#def-active-grp
  6
CONTINUOUS
 62
    7
370
    0
100
AcDbLine
 10
-14.69352169818958
 20
-1.311895131956163
 11
1.384563219780567
 21
-1.311895131956163
  0
LINE
  5
86
100
AcDbEntity
  8
s001-#def-active-grp
  6
CONTINUOUS
 62
    7
370
    0
100
AcDbLine
 10
1.384563219780567
 20
-1.311895131956163
 11
-0.2958907382448146
 21
3.466742127818293
  0
LINE
  5
87
100
AcDbEntity
  8
s001-#def-active-grp
  6
CONTINUOUS
 62
    7
370
    0
100
AcDbLine
 10
-0.2958907382448146
 20
3.466742127818293
 11
-14.72061439669289
 21
3.466742127818293
  0
LINE
  5
88
100
AcDbEntity
  8
s001-#def-active-grp
  6
CONTINUOUS
 62
    7
370
    0
100
AcDbLine
 10
-14.72061439669289
 20
3.466742127818293
 11
0.1279824454455607
 21
4.928991664879064
  0
LINE
  5
89
100
AcDbEntity
  8
s001-#def-active-grp
  6
CONTINUOUS
 62
    7
370
    0
100
AcDbLine
 10
0.1279824454455607
 20
4.928991664879064
 11
-14.76952355006809
 21
8.929824122707871
  0
LINE
  5
8A
100
AcDbEntity
  8
s001-#def-active-grp
  6
DASHDOT
 62
    7
370
    0
100
AcDbLine
 10
-14.76952355006809
 20
8.929824122707871
 11
-14.76952355006809
 21
23.46003910956101
  0
LINE
  5
8B
100
AcDbEntity
  8
s001-#def-active-grp
  6
DASHDOT
 62
    7
370
    0
100
AcDbLine
 10
-14.76952355006809
 20
23.46003910956101
 11
-25.97172526155772
 21
23.46003910956101
  0
LINE
  5
8C
100
AcDbEntity
  8
s001-#def-active-grp
  6
DASHDOT
 62
    7
370
    0
100
AcDbLine
 10
-25.97172526155772
 20
23.46003910956101
 11
-25.97172526155772
 21
8.929824122707871
  0
LINE
  5
8D
100
AcDbEntity
  8
s001-#def-active-grp
  6
DASHDOT
 62
    7
370
    0
100
AcDbLine
 10
-25.97172526155772
 20
8.929824122707871
 11
-14.76952355006809
 21
8.929824122707871
  0
LINE
  5
8E
100
AcDbEntity
  8
s001-#def-active-grp
  6
CONTINUOUS
 62
    7
370
    0
100
AcDbLine
 10
-14.76952355006809
 20
8.929824122707871
 11
0.156933297031209
 21
5.957484799673892
  0
LINE
  5
8F
100
AcDbEntity
  8
s001-#def-active-grp
  6
CONTINUOUS
 62
    7
370
    0
100
AcDbLine
 10
0.156933297031209
 20
5.957484799673892
 11
5.870437740337614
 21
5.957484799673892
  0
LINE
  5
90
100
AcDbEntity
  8
s001-#def-active-grp
  6
CONTINUOUS
 62
    7
370
    0
100
AcDbLine
 10
5.870437740337614
 20
5.957484799673892
 11
21.40485038045732
 21
4.380028842522023
  0
LINE
  5
91
100
AcDbEntity
  8
s001-#def-active-grp
  6
CONTINUOUS
 62
    7
370
    0
100
AcDbLine
 10
21.40485038045732
 20
4.380028842522023
 11
37.48556471544857
 21
4.380028842522023
  0
ENDSEC
  0
SECTION
  2
OBJECTS
  0
DICTIONARY
  5
C
330
0
100
AcDbDictionary
281
    1
  3
ACAD_GROUP
350
D
  0
DICTIONARY
  5
D
330
C
100
AcDbDictionary
281
    1
  0
ENDSEC
  0
EOF
