999
dxfrw 0.6.3
  0
SECTION
  2
HEADER
  9
$ACADVER
  1
AC1021
  9
$DWGCODEPAGE
  3
ANSI_1252
  9
$INSBASE
 10
0
 20
0
 30
0
  9
$EXTMIN
 10
0
 20
0
 30
0
  9
$EXTMAX
 10
2400
 20
3381
 30
0
  9
$LIMMIN
 10
0
 20
0
  9
$LIMMAX
 10
420
 20
297
  9
$ORTHOMODE
 70
    0
  9
$REGENMODE
 70
    1
  9
$FILLMODE
 70
    1
  9
$QTEXTMODE
 70
    0
  9
$MIRRTEXT
 70
    0
  9
$LTSCALE
 40
1
  9
$ATTMODE
 70
    0
  9
$TEXTSIZE
 40
2.5
  9
$TRACEWID
 40
15.68
  9
$TEXTSTYLE
  7
STANDARD
  9
$CLAYER
  8
lines
  9
$CELTYPE
  6
BYLAYER
  9
$CECOLOR
 62
  256
  9
$CELTSCALE
 40
1
  9
$DISPSILH
 70
    0
  9
$DIMSCALE
 40
2.5
  9
$DIMASZ
 40
2.5
  9
$DIMEXO
 40
0.625
  9
$DIMDLI
 40
3.75
  9
$DIMRND
 40
0
  9
$DIMDLE
 40
0
  9
$DIMEXE
 40
1.25
  9
$DIMTP
 40
0
  9
$DIMTM
 40
0
  9
$DIMTXT
 40
2.5
  9
$DIMCEN
 40
2.5
  9
$DIMTSZ
 40
0
  9
$DIMTOL
 70
    0
  9
$DIMLIM
 70
    0
  9
$DIMTIH
 70
    0
  9
$DIMTOH
 70
    0
  9
$DIMSE1
 70
    0
  9
$DIMSE2
 70
    0
  9
$DIMTAD
 70
    1
  9
$DIMZIN
 70
    8
  9
$DIMBLK
  1

  9
$DIMASO
 70
    1
  9
$DIMSHO
 70
    1
  9
$DIMPOST
  1

  9
$DIMAPOST
  1

  9
$DIMALT
 70
    0
  9
$DIMALTD
 70
    3
  9
$DIMALTF
 40
0.03937
  9
$DIMLFAC
 40
1
  9
$DIMTOFL
 70
    1
  9
$DIMTVP
 40
0
  9
$DIMTIX
 70
    0
  9
$DIMSOXD
 70
    0
  9
$DIMSAH
 70
    0
  9
$DIMBLK1
  1

  9
$DIMBLK2
  1

  9
$DIMSTYLE
  2
STANDARD
  9
$DIMCLRD
 70
    0
  9
$DIMCLRE
 70
    0
  9
$DIMCLRT
 70
    0
  9
$DIMTFAC
 40
1
  9
$DIMGAP
 40
0.625
  9
$DIMJUST
 70
    0
  9
$DIMSD1
 70
    0
  9
$DIMSD2
 70
    0
  9
$DIMTOLJ
 70
    0
  9
$DIMTZIN
 70
    8
  9
$DIMALTZ
 70
    0
  9
$DIMALTTZ
 70
    0
  9
$DIMUPT
 70
    0
  9
$DIMDEC
 70
    2
  9
$DIMTDEC
 70
    2
  9
$DIMALTU
 70
    2
  9
$DIMALTTD
 70
    3
  9
$DIMTXSTY
  7
STANDARD
  9
$DIMAUNIT
 70
    0
  9
$DIMADEC
 70
    0
  9
$DIMALTRND
 40
0
  9
$DIMAZIN
 70
    0
  9
$DIMDSEP
 70
   44
  9
$DIMATFIT
 70
    3
  9
$DIMFRAC
 70
    0
  9
$DIMLDRBLK
  1
STANDARD
  9
$DIMLUNIT
 70
    2
  9
$DIMLWD
 70
   -2
  9
$DIMLWE
 70
   -2
  9
$DIMTMOVE
 70
    0
  9
$DIMFXL
 40
1
  9
$DIMFXLON
 70
    0
  9
$DIMJOGANG
 40
0.7854
  9
$DIMTFILL
 70
    0
  9
$DIMTFILLCLR
 70
    0
  9
$DIMARCSYM
 70
    0
  9
$DIMLTYPE
  6

  9
$DIMLTEX1
  6

  9
$DIMLTEX2
  6

  9
$LUNITS
 70
    2
  9
$LUPREC
 70
    4
  9
$SKETCHINC
 40
1
  9
$FILLETRAD
 40
0
  9
$AUNITS
 70
    0
  9
$AUPREC
 70
    2
  9
$MENU
  1
.
  9
$ELEVATION
 40
0
  9
$PELEVATION
 40
0
  9
$THICKNESS
 40
0
  9
$LIMCHECK
 70
    0
  9
$CHAMFERA
 40
0
  9
$CHAMFERB
 40
0
  9
$CHAMFERC
 40
0
  9
$CHAMFERD
 40
0
  9
$SKPOLY
 70
    0
  9
$USRTIMER
 70
    1
  9
$ANGBASE
 50
0
  9
$ANGDIR
 70
    0
  9
$PDMODE
 70
   34
  9
$PDSIZE
 40
0
  9
$PLINEWID
 40
0
  9
$SPLFRAME
 70
    0
  9
$SPLINETYPE
 70
    2
  9
$SPLINESEGS
 70
    8
  9
$HANDSEED
  5
20000
  9
$SURFTAB1
 70
    6
  9
$SURFTAB2
 70
    6
  9
$SURFTYPE
 70
    6
  9
$SURFU
 70
    6
  9
$SURFV
 70
    6
  9
$UCSBASE
  2

  9
$UCSNAME
  2

  9
$UCSORG
 10
0
 20
0
 30
0
  9
$UCSXDIR
 10
1
 20
0
 30
0
  9
$UCSYDIR
 10
0
 20
1
 30
0
  9
$UCSORTHOREF
  2

  9
$UCSORTHOVIEW
 70
    0
  9
$UCSORGTOP
 10
0
 20
0
 30
0
  9
$UCSORGBOTTOM
 10
0
 20
0
 30
0
  9
$UCSORGLEFT
 10
0
 20
0
 30
0
  9
$UCSORGRIGHT
 10
0
 20
0
 30
0
  9
$UCSORGFRONT
 10
0
 20
0
 30
0
  9
$UCSORGBACK
 10
0
 20
0
 30
0
  9
$PUCSBASE
  2

  9
$PUCSNAME
  2

  9
$PUCSORG
 10
0
 20
0
 30
0
  9
$PUCSXDIR
 10
1
 20
0
 30
0
  9
$PUCSYDIR
 10
0
 20
1
 30
0
  9
$PUCSORTHOREF
  2

  9
$PUCSORTHOVIEW
 70
    0
  9
$PUCSORGTOP
 10
0
 20
0
 30
0
  9
$PUCSORGBOTTOM
 10
0
 20
0
 30
0
  9
$PUCSORGLEFT
 10
0
 20
0
 30
0
  9
$PUCSORGRIGHT
 10
0
 20
0
 30
0
  9
$PUCSORGFRONT
 10
0
 20
0
 30
0
  9
$PUCSORGBACK
 10
0
 20
0
 30
0
  9
$USERI1
 70
    0
  9
$USERI2
 70
    0
  9
$USERI3
 70
    0
  9
$USERI4
 70
    0
  9
$USERI5
 70
    0
  9
$USERR1
 40
0
  9
$USERR2
 40
0
  9
$USERR3
 40
0
  9
$USERR4
 40
0
  9
$USERR5
 40
0
  9
$WORLDVIEW
 70
    1
  9
$SHADEDGE
 70
    3
  9
$SHADEDIF
 70
   70
  9
$TILEMODE
 70
    1
  9
$MAXACTVP
 70
   64
  9
$PINSBASE
 10
0
 20
0
 30
0
  9
$PLIMCHECK
 70
    0
  9
$PEXTMIN
 10
0
 20
0
 30
0
  9
$PEXTMAX
 10
0
 20
0
 30
0
  9
$GRIDMODE
 70
    1
  9
$SNAPSTYLE
 70
    0
  9
$PLIMMIN
 10
0
 20
0
  9
$PLIMMAX
 10
210
 20
297
  9
$UNITMODE
 70
    0
  9
$VISRETAIN
 70
    1
  9
$PLINEGEN
 70
    0
  9
$PSLTSCALE
 70
    1
  9
$TREEDEPTH
 70
 3020
  9
$CMLSTYLE
  2
Standard
  9
$CMLJUST
 70
    0
  9
$CMLSCALE
 40
20
  9
$PROXYGRAPHICS
 70
    1
  9
$MEASUREMENT
 70
    1
  9
$CELWEIGHT
370
   -1
  9
$ENDCAPS
280
    0
  9
$JOINSTYLE
280
    0
  9
$LWDISPLAY
290
    0
  9
$INSUNITS
 70
    4
  9
$HYPERLINKBASE
  1

  9
$STYLESHEET
  1

  9
$XEDIT
290
    1
  9
$CEPSNTYPE
380
    0
  9
$PSTYLEMODE
290
    1
  9
$EXTNAMES
290
    1
  9
$PSVPSCALE
 40
1
  9
$OLESTARTUP
290
    0
  9
$SORTENTS
280
  127
  9
$INDEXCTL
280
    0
  9
$HIDETEXT
280
    1
  9
$XCLIPFRAME
290
    0
  9
$HALOGAP
280
    0
  9
$OBSCOLOR
 70
  257
  9
$OBSLTYPE
280
    0
  9
$INTERSECTIONDISPLAY
280
    0
  9
$INTERSECTIONCOLOR
 70
  257
  9
$DIMASSOC
280
    1
  9
$PROJECTNAME
  1

  9
$CAMERADISPLAY
290
    0
  9
$LENSLENGTH
 40
50
  9
$CAMERAHEIGHT
 40
0
  9
$STEPSPERSEC
 40
2
  9
$STEPSIZE
 40
50
  9
$3DDWFPREC
 40
2
  9
$PSOLWIDTH
 40
5
  9
$PSOLHEIGHT
 40
80
  9
$LOFTANG1
 40
1.570796326794897
  9
$LOFTANG2
 40
1.570796326794897
  9
$LOFTMAG1
 40
0
  9
$LOFTMAG2
 40
0
  9
$LOFTPARAM
 70
    7
  9
$LOFTNORMALS
280
    1
  9
$LATITUDE
 40
1
  9
$LONGITUDE
 40
1
  9
$NORTHDIRECTION
 40
0
  9
$TIMEZONE
 70
-8000
  9
$LIGHTGLYPHDISPLAY
280
    1
  9
$TILEMODELIGHTSYNCH
280
    1
  9
$SOLIDHIST
280
    1
  9
$SHOWHIST
280
    1
  9
$DWFFRAME
280
    2
  9
$DGNFRAME
280
    0
  9
$REALWORLDSCALE
290
    1
  9
$INTERFERECOLOR
 62
    1
  9
$CSHADOW
280
    0
  9
$SHADOWPLANELOCATION
 40
0
  0
ENDSEC
  0
SECTION
  2
CLASSES
  0
ENDSEC
  0
SECTION
  2
TABLES
  0
TABLE
  2
VPORT
  5
8
330
0
100
AcDbSymbolTable
 70
    1
  0
VPORT
  5
31
330
2
100
AcDbSymbolTableRecord
100
AcDbViewportTableRecord
  2
*ACTIVE
 70
    0
 10
0
 20
0
 11
1
 21
1
 12
1973.890887308679
 22
2036.224283750006
 13
0
 23
0
 14
10
 24
10
 15
10
 25
10
 16
0
 26
0
 36
1
 17
0
 27
0
 37
0
 40
3399.247885933683
 41
1.734718826405868
 42
50
 43
0
 44
0
 50
0
 51
0
 71
    0
 72
  100
 73
    1
 74
    3
 75
    0
 76
    1
 77
    0
 78
    0
281
    0
 65
    1
110
0
120
0
130
0
111
1
121
0
131
0
112
0
122
1
132
0
 79
    0
146
0
348
10020
 60
    7
 61
    5
292
1
282
    1
141
0
142
0
 63
  250
421
3358443
  0
ENDTAB
  0
TABLE
  2
LTYPE
  5
5
330
0
100
AcDbSymbolTable
 70
    4
  0
LTYPE
  5
14
330
5
100
AcDbSymbolTableRecord
100
AcDbLinetypeTableRecord
  2
ByBlock
 70
    0
  3

 72
   65
 73
    0
 40
0
  0
LTYPE
  5
15
330
5
100
AcDbSymbolTableRecord
100
AcDbLinetypeTableRecord
  2
ByLayer
 70
    0
  3

 72
   65
 73
    0
 40
0
  0
LTYPE
  5
16
330
5
100
AcDbSymbolTableRecord
100
AcDbLinetypeTableRecord
  2
Continuous
 70
    0
  3
Solid line
 72
   65
 73
    0
 40
0
  0
LTYPE
  5
32
330
5
100
AcDbSymbolTableRecord
100
AcDbLinetypeTableRecord
  2
DOT
 70
    0
  3
Dot . . . . . . . . . . . . . . . . . . . . . .
 72
   65
 73
    2
 40
6.35
 49
0
 74
    0
 49
-6.35
 74
    0
  0
LTYPE
  5
33
330
5
100
AcDbSymbolTableRecord
100
AcDbLinetypeTableRecord
  2
DOTTINY
 70
    0
  3
Dot (.15x) .....................................
 72
   65
 73
    2
 40
0.9525
 49
0
 74
    0
 49
-0.9525
 74
    0
  0
LTYPE
  5
34
330
5
100
AcDbSymbolTableRecord
100
AcDbLinetypeTableRecord
  2
DOT2
 70
    0
  3
Dot (.5x) .....................................
 72
   65
 73
    2
 40
3.175
 49
0
 74
    0
 49
-3.175
 74
    0
  0
LTYPE
  5
35
330
5
100
AcDbSymbolTableRecord
100
AcDbLinetypeTableRecord
  2
DOTX2
 70
    0
  3
Dot (2x) .  .  .  .  .  .  .  .  .  .  .  .  .
 72
   65
 73
    2
 40
12.7
 49
0
 74
    0
 49
-12.7
 74
    0
  0
LTYPE
  5
36
330
5
100
AcDbSymbolTableRecord
100
AcDbLinetypeTableRecord
  2
DASHED
 70
    0
  3
Dashed _ _ _ _ _ _ _ _ _ _ _ _ _ _ _ _ _
 72
   65
 73
    2
 40
19.05
 49
12.7
 74
    0
 49
-6.35
 74
    0
  0
LTYPE
  5
37
330
5
100
AcDbSymbolTableRecord
100
AcDbLinetypeTableRecord
  2
DASHEDTINY
 70
    0
  3
Dashed (.15x) _ _ _ _ _ _ _ _ _ _ _ _ _ _ _ _ _
 72
   65
 73
    2
 40
2.8575
 49
1.905
 74
    0
 49
-0.9525
 74
    0
  0
LTYPE
  5
38
330
5
100
AcDbSymbolTableRecord
100
AcDbLinetypeTableRecord
  2
DASHED2
 70
    0
  3
Dashed (.5x) _ _ _ _ _ _ _ _ _ _ _ _ _ _ _ _ _
 72
   65
 73
    2
 40
9.524999999999999
 49
6.35
 74
    0
 49
-3.175
 74
    0
  0
LTYPE
  5
39
330
5
100
AcDbSymbolTableRecord
100
AcDbLinetypeTableRecord
  2
DASHEDX2
 70
    0
  3
Dashed (2x) ____  ____  ____  ____  ____  ___
 72
   65
 73
    2
 40
38.09999999999999
 49
25.4
 74
    0
 49
-12.7
 74
    0
  0
LTYPE
  5
3A
330
5
100
AcDbSymbolTableRecord
100
AcDbLinetypeTableRecord
  2
DASHDOT
 70
    0
  3
Dash dot __ . __ . __ . __ . __ . __ . __ . __
 72
   65
 73
    4
 40
25.4
 49
12.7
 74
    0
 49
-6.35
 74
    0
 49
0
 74
    0
 49
-6.35
 74
    0
  0
LTYPE
  5
3B
330
5
100
AcDbSymbolTableRecord
100
AcDbLinetypeTableRecord
  2
DASHDOTTINY
 70
    0
  3
Dash dot (.15x) _._._._._._._._._._._._._._._.
 72
   65
 73
    4
 40
3.81
 49
1.905
 74
    0
 49
-0.9525
 74
    0
 49
0
 74
    0
 49
-0.9525
 74
    0
  0
LTYPE
  5
3C
330
5
100
AcDbSymbolTableRecord
100
AcDbLinetypeTableRecord
  2
DASHDOT2
 70
    0
  3
Dash dot (.5x) _._._._._._._._._._._._._._._.
 72
   65
 73
    4
 40
12.7
 49
6.35
 74
    0
 49
-3.175
 74
    0
 49
0
 74
    0
 49
-3.175
 74
    0
  0
LTYPE
  5
3D
330
5
100
AcDbSymbolTableRecord
100
AcDbLinetypeTableRecord
  2
DASHDOTX2
 70
    0
  3
Dash dot (2x) ____  .  ____  .  ____  .  ___
 72
   65
 73
    4
 40
50.8
 49
25.4
 74
    0
 49
-12.7
 74
    0
 49
0
 74
    0
 49
-12.7
 74
    0
  0
LTYPE
  5
3E
330
5
100
AcDbSymbolTableRecord
100
AcDbLinetypeTableRecord
  2
DIVIDE
 70
    0
  3
Divide ____ . . ____ . . ____ . . ____ . . ____
 72
   65
 73
    6
 40
31.75
 49
12.7
 74
    0
 49
-6.35
 74
    0
 49
0
 74
    0
 49
-6.35
 74
    0
 49
0
 74
    0
 49
-6.35
 74
    0
  0
LTYPE
  5
3F
330
5
100
AcDbSymbolTableRecord
100
AcDbLinetypeTableRecord
  2
DIVIDETINY
 70
    0
  3
Divide (.15x) __..__..__..__..__..__..__..__.._
 72
   65
 73
    6
 40
4.7625
 49
1.905
 74
    0
 49
-0.9525
 74
    0
 49
0
 74
    0
 49
-0.9525
 74
    0
 49
0
 74
    0
 49
-0.9525
 74
    0
  0
LTYPE
  5
40
330
5
100
AcDbSymbolTableRecord
100
AcDbLinetypeTableRecord
  2
DIVIDE2
 70
    0
  3
Divide (.5x) __..__..__..__..__..__..__..__.._
 72
   65
 73
    6
 40
15.875
 49
6.35
 74
    0
 49
-3.175
 74
    0
 49
0
 74
    0
 49
-3.175
 74
    0
 49
0
 74
    0
 49
-3.175
 74
    0
  0
LTYPE
  5
41
330
5
100
AcDbSymbolTableRecord
100
AcDbLinetypeTableRecord
  2
DIVIDEX2
 70
    0
  3
Divide (2x) ________  .  .  ________  .  .  _
 72
   65
 73
    6
 40
63.5
 49
25.4
 74
    0
 49
-12.7
 74
    0
 49
0
 74
    0
 49
-12.7
 74
    0
 49
0
 74
    0
 49
-12.7
 74
    0
  0
LTYPE
  5
42
330
5
100
AcDbSymbolTableRecord
100
AcDbLinetypeTableRecord
  2
BORDER
 70
    0
  3
Border __ __ . __ __ . __ __ . __ __ . __ __ .
 72
   65
 73
    6
 40
44.45
 49
12.7
 74
    0
 49
-6.35
 74
    0
 49
12.7
 74
    0
 49
-6.35
 74
    0
 49
0
 74
    0
 49
-6.35
 74
    0
  0
LTYPE
  5
43
330
5
100
AcDbSymbolTableRecord
100
AcDbLinetypeTableRecord
  2
BORDERTINY
 70
    0
  3
Border (.15x) __.__.__.__.__.__.__.__.__.__.__.
 72
   65
 73
    6
 40
6.6675
 49
1.905
 74
    0
 49
-0.9525
 74
    0
 49
1.905
 74
    0
 49
-0.9525
 74
    0
 49
0
 74
    0
 49
-0.9525
 74
    0
  0
LTYPE
  5
44
330
5
100
AcDbSymbolTableRecord
100
AcDbLinetypeTableRecord
  2
BORDER2
 70
    0
  3
Border (.5x) __.__.__.__.__.__.__.__.__.__.__.
 72
   65
 73
    6
 40
22.225
 49
6.35
 74
    0
 49
-3.175
 74
    0
 49
6.35
 74
    0
 49
-3.175
 74
    0
 49
0
 74
    0
 49
-3.175
 74
    0
  0
LTYPE
  5
45
330
5
100
AcDbSymbolTableRecord
100
AcDbLinetypeTableRecord
  2
BORDERX2
 70
    0
  3
Border (2x) ____  ____  .  ____  ____  .  ___
 72
   65
 73
    6
 40
88.89999999999999
 49
25.4
 74
    0
 49
-12.7
 74
    0
 49
25.4
 74
    0
 49
-12.7
 74
    0
 49
0
 74
    0
 49
-12.7
 74
    0
  0
LTYPE
  5
46
330
5
100
AcDbSymbolTableRecord
100
AcDbLinetypeTableRecord
  2
CENTER
 70
    0
  3
Center ____ _ ____ _ ____ _ ____ _ ____ _ ____
 72
   65
 73
    4
 40
50.8
 49
31.75
 74
    0
 49
-6.35
 74
    0
 49
6.35
 74
    0
 49
-6.35
 74
    0
  0
LTYPE
  5
47
330
5
100
AcDbSymbolTableRecord
100
AcDbLinetypeTableRecord
  2
CENTERTINY
 70
    0
  3
Center (.15x) ___ _ ___ _ ___ _ ___ _ ___ _ ___
 72
   65
 73
    4
 40
7.619999999999999
 49
4.7625
 74
    0
 49
-0.9525
 74
    0
 49
0.9525
 74
    0
 49
-0.9525
 74
    0
  0
LTYPE
  5
48
330
5
100
AcDbSymbolTableRecord
100
AcDbLinetypeTableRecord
  2
CENTER2
 70
    0
  3
Center (.5x) ___ _ ___ _ ___ _ ___ _ ___ _ ___
 72
   65
 73
    4
 40
28.575
 49
19.05
 74
    0
 49
-3.175
 74
    0
 49
3.175
 74
    0
 49
-3.175
 74
    0
  0
LTYPE
  5
49
330
5
100
AcDbSymbolTableRecord
100
AcDbLinetypeTableRecord
  2
CENTERX2
 70
    0
  3
Center (2x) ________  __  ________  __  _____
 72
   65
 73
    4
 40
101.6
 49
63.5
 74
    0
 49
-12.7
 74
    0
 49
12.7
 74
    0
 49
-12.7
 74
    0
  0
ENDTAB
  0
TABLE
  2
LAYER
  5
2
330
0
100
AcDbSymbolTable
 70
    1
  0
LAYER
  5
10
330
2
100
AcDbSymbolTableRecord
100
AcDbLayerTableRecord
  2
0
 70
    1
 62
    7
  6
CONTINUOUS
370
    0
390
F
  0
LAYER
  5
4A
330
2
100
AcDbSymbolTableRecord
100
AcDbLayerTableRecord
  2
construction
 70
    0
 62
    7
  6
CONTINUOUS
370
    0
390
F
1001
LibreCad
1070
    1
  0
LAYER
  5
4B
330
2
100
AcDbSymbolTableRecord
100
AcDbLayerTableRecord
  2
image
 70
    4
 62
    7
  6
CONTINUOUS
370
    0
390
F
  0
LAYER
  5
4C
330
2
100
AcDbSymbolTableRecord
100
AcDbLayerTableRecord
  2
lines
 70
    0
 62
    7
  6
CONTINUOUS
370
    0
390
F
  0
ENDTAB
  0
TABLE
  2
STYLE
  5
3
330
0
100
AcDbSymbolTable
 70
    3
  0
STYLE
  5
4D
330
2
100
AcDbSymbolTableRecord
100
AcDbTextStyleTableRecord
  2
Standard
 70
    0
 40
0
 41
1
 50
0
 71
    0
 42
1
  3
txt
  4

  0
ENDTAB
  0
TABLE
  2
VIEW
  5
6
330
0
100
AcDbSymbolTable
 70
    0
  0
ENDTAB
  0
TABLE
  2
UCS
  5
7
330
0
100
AcDbSymbolTable
 70
    0
  0
ENDTAB
  0
TABLE
  2
APPID
  5
9
330
0
100
AcDbSymbolTable
 70
    1
  0
APPID
  5
12
330
9
100
AcDbSymbolTableRecord
100
AcDbRegAppTableRecord
  2
ACAD
 70
    0
  0
APPID
  5
4E
330
9
100
AcDbSymbolTableRecord
100
AcDbRegAppTableRecord
  2
LibreCad
 70
    0
  0
ENDTAB
  0
TABLE
  2
DIMSTYLE
  5
A
330
0
100
AcDbSymbolTable
 70
    1
100
AcDbDimStyleTable
 71
    1
  0
DIMSTYLE
105
4F
330
A
100
AcDbSymbolTableRecord
100
AcDbDimStyleTableRecord
  2
Standard
 70
    0
 40
2.5
 41
2.5
 42
0.625
 43
0.38
 44
1.25
 45
0
 46
0
 47
0
 48
0
 49
1
140
2.5
141
0.09
142
0
143
25.4
144
1
145
0
146
1
147
0.625
148
0
 71
    0
 72
    0
 73
    0
 74
    1
 75
    0
 76
    0
 77
    0
 78
    8
 79
    0
170
    0
171
    2
172
    0
173
    0
174
    0
175
    0
176
    0
177
    0
178
    0
179
    0
271
    2
272
    4
273
    2
274
    2
275
    0
276
    0
277
    2
278
   44
279
    0
280
    0
281
    0
282
    0
283
    1
284
    0
285
    0
286
    0
288
    0
289
    3
340
STANDARD
341

371
   -2
372
   -2
  0
ENDTAB
  0
TABLE
  2
BLOCK_RECORD
  5
1
330
0
100
AcDbSymbolTable
 70
    2
  0
BLOCK_RECORD
  5
1F
330
1
100
AcDbSymbolTableRecord
100
AcDbBlockTableRecord
  2
*Model_Space
 70
    0
280
    1
281
    0
  0
BLOCK_RECORD
  5
1E
330
1
100
AcDbSymbolTableRecord
100
AcDbBlockTableRecord
  2
*Paper_Space
 70
    0
280
    1
281
    0
  0
ENDTAB
  0
ENDSEC
  0
SECTION
  2
BLOCKS
  0
BLOCK
  5
20
330
1F
100
AcDbEntity
  8
0
100
AcDbBlockBegin
  2
*Model_Space
 70
    0
 10
0
 20
0
 30
0
  3
*Model_Space
  1

  0
ENDBLK
  5
21
330
1F
100
AcDbEntity
  8
0
100
AcDbBlockEnd
  0
BLOCK
  5
1C
330
1B
100
AcDbEntity
  8
0
100
AcDbBlockBegin
  2
*Paper_Space
 70
    0
 10
0
 20
0
 30
0
  3
*Paper_Space
  1

  0
ENDBLK
  5
1D
330
1F
100
AcDbEntity
  8
0
100
AcDbBlockEnd
  0
ENDSEC
  0
SECTION
  2
ENTITIES
  0
IMAGE
  5
52
100
AcDbEntity
  8
image
  6
ByLayer
 62
  256
370
   -1
100
AcDbRasterImage
 10
0
 20
0
 30
0
 11
1
 21
0
 31
0
 12
6.123233995736766e-17
 22
1
 32
0
 13
2400
 23
3381
340
50
 70
    1
280
    0
281
   50
282
   50
283
    0
360
51
  0
LINE
  5
53
100
AcDbEntity
  8
lines
  6
ByLayer
 62
  256
370
   -1
100
AcDbLine
 10
210
 20
123
 11
428
 21
123
  0
LINE
  5
54
100
AcDbEntity
  8
lines
  6
ByLayer
 62
  256
370
   -1
100
AcDbLine
 10
428
 20
123
 11
428
 21
102
  0
LINE
  5
55
100
AcDbEntity
  8
lines
  6
ByLayer
 62
  256
370
   -1
100
AcDbLine
 10
428
 20
102
 11
210
 21
102
  0
LINE
  5
56
100
AcDbEntity
  8
lines
  6
ByLayer
 62
  256
370
   -1
100
AcDbLine
 10
210
 20
102
 11
210
 21
123
  0
LINE
  5
57
100
AcDbEntity
  8
lines
  6
ByLayer
 62
  256
370
   -1
100
AcDbLine
 10
206
 20
195
 11
422
 21
195
  0
LINE
  5
58
100
AcDbEntity
  8
lines
  6
ByLayer
 62
  256
370
   -1
100
AcDbLine
 10
422
 20
195
 11
422
 21
178
  0
LINE
  5
59
100
AcDbEntity
  8
lines
  6
ByLayer
 62
  256
370
   -1
100
AcDbLine
 10
422
 20
178
 11
206
 21
178
  0
LINE
  5
5A
100
AcDbEntity
  8
lines
  6
ByLayer
 62
  256
370
   -1
100
AcDbLine
 10
206
 20
178
 11
206
 21
195
  0
LINE
  5
5B
100
AcDbEntity
  8
lines
  6
ByLayer
 62
  256
370
   -1
100
AcDbLine
 10
209
 20
269
 11
266
 21
269
  0
LINE
  5
5C
100
AcDbEntity
  8
lines
  6
ByLayer
 62
  256
370
   -1
100
AcDbLine
 10
266
 20
269
 11
266
 21
276
  0
LINE
  5
5D
100
AcDbEntity
  8
lines
  6
ByLayer
 62
  256
370
   -1
100
AcDbLine
 10
266
 20
276
 11
427
 21
276
  0
LINE
  5
5E
100
AcDbEntity
  8
lines
  6
ByLayer
 62
  256
370
   -1
100
AcDbLine
 10
427
 20
276
 11
427
 21
251
  0
LINE
  5
5F
100
AcDbEntity
  8
lines
  6
ByLayer
 62
  256
370
   -1
100
AcDbLine
 10
427
 20
251
 11
209
 21
251
  0
LINE
  5
60
100
AcDbEntity
  8
lines
  6
ByLayer
 62
  256
370
   -1
100
AcDbLine
 10
209
 20
251
 11
209
 21
269
  0
LINE
  5
61
100
AcDbEntity
  8
lines
  6
ByLayer
 62
  256
370
   -1
100
AcDbLine
 10
208
 20
336
 11
265
 21
336
  0
LINE
  5
62
100
AcDbEntity
  8
lines
  6
ByLayer
 62
  256
370
   -1
100
AcDbLine
 10
265
 20
336
 11
265
 21
329
  0
LINE
  5
63
100
AcDbEntity
  8
lines
  6
ByLayer
 62
  256
370
   -1
100
AcDbLine
 10
265
 20
329
 11
426
 21
329
  0
LINE
  5
64
100
AcDbEntity
  8
lines
  6
ByLayer
 62
  256
370
   -1
100
AcDbLine
 10
426
 20
329
 11
426
 21
354
  0
LINE
  5
65
100
AcDbEntity
  8
lines
  6
ByLayer
 62
  256
370
   -1
100
AcDbLine
 10
426
 20
354
 11
208
 21
354
  0
LINE
  5
66
100
AcDbEntity
  8
lines
  6
ByLayer
 62
  256
370
   -1
100
AcDbLine
 10
208
 20
354
 11
208
 21
336
  0
LINE
  5
67
100
AcDbEntity
  8
lines
  6
ByLayer
 62
  256
370
   -1
100
AcDbLine
 10
208
 20
409
 11
424
 21
409
  0
LINE
  5
68
100
AcDbEntity
  8
lines
  6
ByLayer
 62
  256
370
   -1
100
AcDbLine
 10
424
 20
409
 11
424
 21
426
  0
LINE
  5
69
100
AcDbEntity
  8
lines
  6
ByLayer
 62
  256
370
   -1
100
AcDbLine
 10
424
 20
426
 11
208
 21
426
  0
LINE
  5
6A
100
AcDbEntity
  8
lines
  6
ByLayer
 62
  256
370
   -1
100
AcDbLine
 10
208
 20
426
 11
208
 21
409
  0
LINE
  5
6B
100
AcDbEntity
  8
lines
  6
ByLayer
 62
  256
370
   -1
100
AcDbLine
 10
207
 20
490
 11
425
 21
490
  0
LINE
  5
6C
100
AcDbEntity
  8
lines
  6
ByLayer
 62
  256
370
   -1
100
AcDbLine
 10
425
 20
490
 11
425
 21
511
  0
LINE
  5
6D
100
AcDbEntity
  8
lines
  6
ByLayer
 62
  256
370
   -1
100
AcDbLine
 10
425
 20
511
 11
207
 21
511
  0
LINE
  5
6E
100
AcDbEntity
  8
lines
  6
ByLayer
 62
  256
370
   -1
100
AcDbLine
 10
207
 20
511
 11
207
 21
490
  0
LINE
  5
6F
100
AcDbEntity
  8
lines
  6
ByLayer
 62
  256
370
   -1
100
AcDbLine
 10
1073
 20
121
 11
855
 21
121
  0
LINE
  5
70
100
AcDbEntity
  8
lines
  6
ByLayer
 62
  256
370
   -1
100
AcDbLine
 10
855
 20
121
 11
855
 21
100
  0
LINE
  5
71
100
AcDbEntity
  8
lines
  6
ByLayer
 62
  256
370
   -1
100
AcDbLine
 10
855
 20
100
 11
1073
 21
100
  0
LINE
  5
72
100
AcDbEntity
  8
lines
  6
ByLayer
 62
  256
370
   -1
100
AcDbLine
 10
1073
 20
100
 11
1073
 21
121
  0
LINE
  5
73
100
AcDbEntity
  8
lines
  6
ByLayer
 62
  256
370
   -1
100
AcDbLine
 10
1075
 20
193
 11
859
 21
193
  0
LINE
  5
74
100
AcDbEntity
  8
lines
  6
ByLayer
 62
  256
370
   -1
100
AcDbLine
 10
859
 20
193
 11
859
 21
176
  0
LINE
  5
75
100
AcDbEntity
  8
lines
  6
ByLayer
 62
  256
370
   -1
100
AcDbLine
 10
859
 20
176
 11
1075
 21
176
  0
LINE
  5
76
100
AcDbEntity
  8
lines
  6
ByLayer
 62
  256
370
   -1
100
AcDbLine
 10
1075
 20
176
 11
1075
 21
193
  0
LINE
  5
77
100
AcDbEntity
  8
lines
  6
ByLayer
 62
  256
370
   -1
100
AcDbLine
 10
1073
 20
267
 11
1016
 21
267
  0
LINE
  5
78
100
AcDbEntity
  8
lines
  6
ByLayer
 62
  256
370
   -1
100
AcDbLine
 10
1016
 20
267
 11
1016
 21
274
  0
LINE
  5
79
100
AcDbEntity
  8
lines
  6
ByLayer
 62
  256
370
   -1
100
AcDbLine
 10
1016
 20
274
 11
855
 21
274
  0
LINE
  5
7A
100
AcDbEntity
  8
lines
  6
ByLayer
 62
  256
370
   -1
100
AcDbLine
 10
855
 20
274
 11
855
 21
249
  0
LINE
  5
7B
100
AcDbEntity
  8
lines
  6
ByLayer
 62
  256
370
   -1
100
AcDbLine
 10
855
 20
249
 11
1073
 21
249
  0
LINE
  5
7C
100
AcDbEntity
  8
lines
  6
ByLayer
 62
  256
370
   -1
100
AcDbLine
 10
1073
 20
249
 11
1073
 21
267
  0
LINE
  5
7D
100
AcDbEntity
  8
lines
  6
ByLayer
 62
  256
370
   -1
100
AcDbLine
 10
1073
 20
334
 11
1016
 21
334
  0
LINE
  5
7E
100
AcDbEntity
  8
lines
  6
ByLayer
 62
  256
370
   -1
100
AcDbLine
 10
1016
 20
334
 11
1016
 21
327
  0
LINE
  5
7F
100
AcDbEntity
  8
lines
  6
ByLayer
 62
  256
370
   -1
100
AcDbLine
 10
1016
 20
327
 11
855
 21
327
  0
LINE
  5
80
100
AcDbEntity
  8
lines
  6
ByLayer
 62
  256
370
   -1
100
AcDbLine
 10
855
 20
327
 11
855
 21
352
  0
LINE
  5
81
100
AcDbEntity
  8
lines
  6
ByLayer
 62
  256
370
   -1
100
AcDbLine
 10
855
 20
352
 11
1073
 21
352
  0
LINE
  5
82
100
AcDbEntity
  8
lines
  6
ByLayer
 62
  256
370
   -1
100
AcDbLine
 10
1073
 20
352
 11
1073
 21
334
  0
LINE
  5
83
100
AcDbEntity
  8
lines
  6
ByLayer
 62
  256
370
   -1
100
AcDbLine
 10
1073
 20
407
 11
857
 21
407
  0
LINE
  5
84
100
AcDbEntity
  8
lines
  6
ByLayer
 62
  256
370
   -1
100
AcDbLine
 10
857
 20
407
 11
857
 21
424
  0
LINE
  5
85
100
AcDbEntity
  8
lines
  6
ByLayer
 62
  256
370
   -1
100
AcDbLine
 10
857
 20
424
 11
1073
 21
424
  0
LINE
  5
86
100
AcDbEntity
  8
lines
  6
ByLayer
 62
  256
370
   -1
100
AcDbLine
 10
1073
 20
424
 11
1073
 21
407
  0
LINE
  5
87
100
AcDbEntity
  8
lines
  6
ByLayer
 62
  256
370
   -1
100
AcDbLine
 10
1074
 20
487
 11
856
 21
487
  0
LINE
  5
88
100
AcDbEntity
  8
lines
  6
ByLayer
 62
  256
370
   -1
100
AcDbLine
 10
856
 20
487
 11
856
 21
508
  0
LINE
  5
89
100
AcDbEntity
  8
lines
  6
ByLayer
 62
  256
370
   -1
100
AcDbLine
 10
856
 20
508
 11
1074
 21
508
  0
LINE
  5
8A
100
AcDbEntity
  8
lines
  6
ByLayer
 62
  256
370
   -1
100
AcDbLine
 10
1074
 20
508
 11
1074
 21
487
  0
LINE
  5
8B
100
AcDbEntity
  8
lines
  6
ByLayer
 62
  256
370
   -1
100
AcDbLine
 10
1158
 20
262
 11
1213
 21
262
  0
LINE
  5
8C
100
AcDbEntity
  8
lines
  6
ByLayer
 62
  256
370
   -1
100
AcDbLine
 10
1213
 20
262
 11
1213
 21
376
  0
LINE
  5
8D
100
AcDbEntity
  8
lines
  6
ByLayer
 62
  256
370
   -1
100
AcDbLine
 10
1213
 20
376
 11
1158
 21
376
  0
LINE
  5
8E
100
AcDbEntity
  8
lines
  6
ByLayer
 62
  256
370
   -1
100
AcDbLine
 10
1158
 20
376
 11
1158
 21
262
  0
LINE
  5
8F
100
AcDbEntity
  8
lines
  6
ByLayer
 62
  256
370
   -1
100
AcDbLine
 10
1244
 20
265
 11
1299
 21
265
  0
LINE
  5
90
100
AcDbEntity
  8
lines
  6
ByLayer
 62
  256
370
   -1
100
AcDbLine
 10
1299
 20
265
 11
1299
 21
379
  0
LINE
  5
91
100
AcDbEntity
  8
lines
  6
ByLayer
 62
  256
370
   -1
100
AcDbLine
 10
1299
 20
379
 11
1244
 21
379
  0
LINE
  5
92
100
AcDbEntity
  8
lines
  6
ByLayer
 62
  256
370
   -1
100
AcDbLine
 10
1244
 20
379
 11
1244
 21
265
  0
LINE
  5
93
100
AcDbEntity
  8
lines
  6
ByLayer
 62
  256
370
   -1
100
AcDbLine
 10
1164
 20
408
 11
1219
 21
408
  0
LINE
  5
94
100
AcDbEntity
  8
lines
  6
ByLayer
 62
  256
370
   -1
100
AcDbLine
 10
1219
 20
408
 11
1219
 21
522
  0
LINE
  5
95
100
AcDbEntity
  8
lines
  6
ByLayer
 62
  256
370
   -1
100
AcDbLine
 10
1219
 20
522
 11
1164
 21
522
  0
LINE
  5
96
100
AcDbEntity
  8
lines
  6
ByLayer
 62
  256
370
   -1
100
AcDbLine
 10
1164
 20
522
 11
1164
 21
408
  0
LINE
  5
97
100
AcDbEntity
  8
lines
  6
ByLayer
 62
  256
370
   -1
100
AcDbLine
 10
1243
 20
406
 11
1298
 21
406
  0
LINE
  5
98
100
AcDbEntity
  8
lines
  6
ByLayer
 62
  256
370
   -1
100
AcDbLine
 10
1298
 20
406
 11
1298
 21
520
  0
LINE
  5
99
100
AcDbEntity
  8
lines
  6
ByLayer
 62
  256
370
   -1
100
AcDbLine
 10
1298
 20
520
 11
1243
 21
520
  0
LINE
  5
9A
100
AcDbEntity
  8
lines
  6
ByLayer
 62
  256
370
   -1
100
AcDbLine
 10
1243
 20
520
 11
1243
 21
406
  0
LINE
  5
9B
100
AcDbEntity
  8
lines
  6
ByLayer
 62
  256
370
   -1
100
AcDbLine
 10
496
 20
401
 11
497
 21
403
  0
LINE
  5
9C
100
AcDbEntity
  8
lines
  6
ByLayer
 62
  256
370
   -1
100
AcDbLine
 10
497
 20
403
 11
510
 21
403
  0
LINE
  5
9D
100
AcDbEntity
  8
lines
  6
ByLayer
 62
  256
370
   -1
100
AcDbLine
 10
510
 20
403
 11
519
 21
401
  0
LINE
  5
9E
100
AcDbEntity
  8
lines
  6
ByLayer
 62
  256
370
   -1
100
AcDbLine
 10
519
 20
401
 11
521
 21
399
  0
LINE
  5
9F
100
AcDbEntity
  8
lines
  6
ByLayer
 62
  256
370
   -1
100
AcDbLine
 10
521
 20
399
 11
519
 21
397
  0
LINE
  5
A0
100
AcDbEntity
  8
lines
  6
ByLayer
 62
  256
370
   -1
100
AcDbLine
 10
519
 20
397
 11
510
 21
395
  0
LINE
  5
A1
100
AcDbEntity
  8
lines
  6
ByLayer
 62
  256
370
   -1
100
AcDbLine
 10
510
 20
395
 11
497
 21
395
  0
LINE
  5
A2
100
AcDbEntity
  8
lines
  6
ByLayer
 62
  256
370
   -1
100
AcDbLine
 10
497
 20
395
 11
496
 21
397
  0
LINE
  5
A3
100
AcDbEntity
  8
lines
  6
ByLayer
 62
  256
370
   -1
100
AcDbLine
 10
496
 20
397
 11
496
 21
401
  0
LINE
  5
A4
100
AcDbEntity
  8
lines
  6
ByLayer
 62
  256
370
   -1
100
AcDbLine
 10
756
 20
332
 11
755
 21
334
  0
LINE
  5
A5
100
AcDbEntity
  8
lines
  6
ByLayer
 62
  256
370
   -1
100
AcDbLine
 10
755
 20
334
 11
742
 21
334
  0
LINE
  5
A6
100
AcDbEntity
  8
lines
  6
ByLayer
 62
  256
370
   -1
100
AcDbLine
 10
742
 20
334
 11
733
 21
332
  0
LINE
  5
A7
100
AcDbEntity
  8
lines
  6
ByLayer
 62
  256
370
   -1
100
AcDbLine
 10
733
 20
332
 11
731
 21
330
  0
LINE
  5
A8
100
AcDbEntity
  8
lines
  6
ByLayer
 62
  256
370
   -1
100
AcDbLine
 10
731
 20
330
 11
733
 21
328
  0
LINE
  5
A9
100
AcDbEntity
  8
lines
  6
ByLayer
 62
  256
370
   -1
100
AcDbLine
 10
733
 20
328
 11
742
 21
326
  0
LINE
  5
AA
100
AcDbEntity
  8
lines
  6
ByLayer
 62
  256
370
   -1
100
AcDbLine
 10
742
 20
326
 11
755
 21
326
  0
LINE
  5
AB
100
AcDbEntity
  8
lines
  6
ByLayer
 62
  256
370
   -1
100
AcDbLine
 10
755
 20
326
 11
756
 21
328
  0
LINE
  5
AC
100
AcDbEntity
  8
lines
  6
ByLayer
 62
  256
370
   -1
100
AcDbLine
 10
756
 20
328
 11
756
 21
332
  0
LINE
  5
AD
100
AcDbEntity
  8
lines
  6
ByLayer
 62
  256
370
   -1
100
AcDbLine
 10
756
 20
405
 11
755
 21
407
  0
LINE
  5
AE
100
AcDbEntity
  8
lines
  6
ByLayer
 62
  256
370
   -1
100
AcDbLine
 10
755
 20
407
 11
742
 21
407
  0
LINE
  5
AF
100
AcDbEntity
  8
lines
  6
ByLayer
 62
  256
370
   -1
100
AcDbLine
 10
742
 20
407
 11
733
 21
405
  0
LINE
  5
B0
100
AcDbEntity
  8
lines
  6
ByLayer
 62
  256
370
   -1
100
AcDbLine
 10
733
 20
405
 11
731
 21
403
  0
LINE
  5
B1
100
AcDbEntity
  8
lines
  6
ByLayer
 62
  256
370
   -1
100
AcDbLine
 10
731
 20
403
 11
733
 21
401
  0
LINE
  5
B2
100
AcDbEntity
  8
lines
  6
ByLayer
 62
  256
370
   -1
100
AcDbLine
 10
733
 20
401
 11
742
 21
399
  0
LINE
  5
B3
100
AcDbEntity
  8
lines
  6
ByLayer
 62
  256
370
   -1
100
AcDbLine
 10
742
 20
399
 11
755
 21
399
  0
LINE
  5
B4
100
AcDbEntity
  8
lines
  6
ByLayer
 62
  256
370
   -1
100
AcDbLine
 10
755
 20
399
 11
756
 21
401
  0
LINE
  5
B5
100
AcDbEntity
  8
lines
  6
ByLayer
 62
  256
370
   -1
100
AcDbLine
 10
756
 20
401
 11
756
 21
405
  0
LINE
  5
B6
100
AcDbEntity
  8
lines
  6
ByLayer
 62
  256
370
   -1
100
AcDbLine
 10
501
 20
475
 11
501
 21
483
  0
LINE
  5
B7
100
AcDbEntity
  8
lines
  6
ByLayer
 62
  256
370
   -1
100
AcDbLine
 10
501
 20
483
 11
509
 21
483
  0
LINE
  5
B8
100
AcDbEntity
  8
lines
  6
ByLayer
 62
  256
370
   -1
100
AcDbLine
 10
509
 20
483
 11
509
 21
459
  0
LINE
  5
B9
100
AcDbEntity
  8
lines
  6
ByLayer
 62
  256
370
   -1
100
AcDbLine
 10
509
 20
459
 11
501
 21
459
  0
LINE
  5
BA
100
AcDbEntity
  8
lines
  6
ByLayer
 62
  256
370
   -1
100
AcDbLine
 10
501
 20
459
 11
501
 21
468
  0
LINE
  5
BB
100
AcDbEntity
  8
lines
  6
ByLayer
 62
  256
370
   -1
100
AcDbLine
 10
501
 20
468
 11
503
 21
468
  0
LINE
  5
BC
100
AcDbEntity
  8
lines
  6
ByLayer
 62
  256
370
   -1
100
AcDbLine
 10
503
 20
468
 11
503
 21
474
  0
LINE
  5
BD
100
AcDbEntity
  8
lines
  6
ByLayer
 62
  256
370
   -1
100
AcDbLine
 10
503
 20
474
 11
501
 21
474
  0
LINE
  5
BE
100
AcDbEntity
  8
lines
  6
ByLayer
 62
  256
370
   -1
100
AcDbLine
 10
501
 20
474
 11
501
 21
475
  0
LWPOLYLINE
  5
BF
100
AcDbEntity
  8
lines
  6
ByLayer
 62
  256
370
   -1
100
AcDbPolyline
 90
   41
 70
    1
 43
0
 10
558
 20
439
 10
566
 20
439
 10
566
 20
431
 10
570
 20
431
 10
573
 20
427
 10
573
 20
404
 10
576
 20
403
 10
578
 20
401
 10
576
 20
399
 10
573
 20
398
 10
573
 20
331
 10
576
 20
330
 10
578
 20
328
 10
576
 20
326
 10
573
 20
325
 10
573
 20
304
 42
-0.7312178527831996
 10
573
 20
293
 10
573
 20
287
 10
567
 20
287
 10
567
 20
293
 42
-0.526030489934225
 10
565
 20
304
 10
565
 20
324
 10
554
 20
324
 10
553
 20
326
 10
553
 20
330
 10
554
 20
332
 10
565
 20
332
 10
565
 20
397
 10
554
 20
397
 10
553
 20
399
 10
553
 20
403
 10
554
 20
405
 10
565
 20
405
 10
565
 20
415
 10
559
 20
415
 10
558
 20
419
 10
558
 20
423
 10
543
 20
423
 10
543
 20
427
 10
558
 20
430
 10
558
 20
431
  0
LWPOLYLINE
  5
C0
100
AcDbEntity
  8
lines
  6
ByLayer
 62
  256
370
   -1
100
AcDbPolyline
 90
    9
 70
    1
 43
0
 10
496
 20
330
 10
509
 20
330
 10
518
 20
328
 10
520
 20
326
 10
518
 20
324
 10
509
 20
322
 10
496
 20
322
 10
495
 20
324
 10
495
 20
328
  0
LWPOLYLINE
  5
C1
100
AcDbEntity
  8
lines
  6
ByLayer
 62
  256
370
   -1
100
AcDbPolyline
 90
   41
 70
    1
 43
0
 10
693
 20
290
 10
685
 20
290
 10
685
 20
298
 10
681
 20
298
 10
678
 20
302
 10
678
 20
325
 10
675
 20
326
 10
673
 20
328
 10
675
 20
330
 10
678
 20
331
 10
678
 20
398
 10
675
 20
399
 10
673
 20
401
 10
675
 20
403
 10
678
 20
404
 10
678
 20
425
 42
-0.7312178527831996
 10
678
 20
436
 10
678
 20
442
 10
684
 20
442
 10
684
 20
436
 42
-0.5260304899342251
 10
686
 20
425
 10
686
 20
405
 10
697
 20
405
 10
698
 20
403
 10
698
 20
399
 10
697
 20
397
 10
686
 20
397
 10
686
 20
332
 10
697
 20
332
 10
698
 20
330
 10
698
 20
326
 10
697
 20
324
 10
686
 20
324
 10
686
 20
314
 10
692
 20
314
 10
693
 20
310
 10
693
 20
306
 10
708
 20
306
 10
708
 20
302
 10
693
 20
299
 10
693
 20
298
  0
LINE
  5
C2
100
AcDbEntity
  8
lines
  6
ByLayer
 62
  256
370
   -1
100
AcDbLine
 10
95
 20
1554
 11
481
 21
1554
  0
LINE
  5
C3
100
AcDbEntity
  8
lines
  6
ByLayer
 62
  256
370
   -1
100
AcDbLine
 10
481
 20
1554
 11
480
 21
592
  0
LINE
  5
C4
100
AcDbEntity
  8
lines
  6
ByLayer
 62
  256
370
   -1
100
AcDbLine
 10
480
 20
592
 11
95
 21
592
  0
LINE
  5
C5
100
AcDbEntity
  8
lines
  6
ByLayer
 62
  256
370
   -1
100
AcDbLine
 10
95
 20
592
 11
95
 21
1554
  0
LINE
  5
C6
100
AcDbEntity
  8
lines
  6
ByLayer
 62
  256
370
   -1
100
AcDbLine
 10
1422
 20
150
 11
1422
 21
206
  0
LINE
  5
C7
100
AcDbEntity
  8
lines
  6
ByLayer
 62
  256
370
   -1
100
AcDbLine
 10
1422
 20
206
 11
1519
 21
206
  0
LINE
  5
C8
100
AcDbEntity
  8
lines
  6
ByLayer
 62
  256
370
   -1
100
AcDbLine
 10
1519
 20
206
 11
1519
 21
150
  0
LINE
  5
C9
100
AcDbEntity
  8
lines
  6
ByLayer
 62
  256
370
   -1
100
AcDbLine
 10
1536
 20
150
 11
1536
 21
206
  0
LINE
  5
CA
100
AcDbEntity
  8
lines
  6
ByLayer
 62
  256
370
   -1
100
AcDbLine
 10
1536
 20
206
 11
1671
 21
206
  0
LINE
  5
CB
100
AcDbEntity
  8
lines
  6
ByLayer
 62
  256
370
   -1
100
AcDbLine
 10
1671
 20
206
 11
1671
 21
150
  0
LINE
  5
CC
100
AcDbEntity
  8
lines
  6
ByLayer
 62
  256
370
   -1
100
AcDbLine
 10
1688
 20
150
 11
1688
 21
206
  0
LINE
  5
CD
100
AcDbEntity
  8
lines
  6
ByLayer
 62
  256
370
   -1
100
AcDbLine
 10
1688
 20
206
 11
1784
 21
206
  0
LINE
  5
CE
100
AcDbEntity
  8
lines
  6
ByLayer
 62
  256
370
   -1
100
AcDbLine
 10
1784
 20
206
 11
1785
 21
206
  0
LINE
  5
CF
100
AcDbEntity
  8
lines
  6
ByLayer
 62
  256
370
   -1
100
AcDbLine
 10
1785
 20
206
 11
1785
 21
150
  0
LINE
  5
D0
100
AcDbEntity
  8
lines
  6
ByLayer
 62
  256
370
   -1
100
AcDbLine
 10
1404
 20
363
 11
1522
 21
417
  0
LINE
  5
D1
100
AcDbEntity
  8
lines
  6
ByLayer
 62
  256
370
   -1
100
AcDbLine
 10
1522
 20
417
 11
1404
 21
471
  0
LINE
  5
D2
100
AcDbEntity
  8
lines
  6
ByLayer
 62
  256
370
   -1
100
AcDbLine
 10
1404
 20
471
 11
1383
 21
492
  0
LINE
  5
D3
100
AcDbEntity
  8
lines
  6
ByLayer
 62
  256
370
   -1
100
AcDbLine
 10
1383
 20
492
 11
1383
 21
603
  0
LINE
  5
D4
100
AcDbEntity
  8
lines
  6
ByLayer
 62
  256
370
   -1
100
AcDbLine
 10
1383
 20
603
 11
1404
 21
628
  0
LINE
  5
D5
100
AcDbEntity
  8
lines
  6
ByLayer
 62
  256
370
   -1
100
AcDbLine
 10
1803
 20
363
 11
1684
 21
417
  0
LINE
  5
D6
100
AcDbEntity
  8
lines
  6
ByLayer
 62
  256
370
   -1
100
AcDbLine
 10
1684
 20
417
 11
1803
 21
471
  0
LINE
  5
D7
100
AcDbEntity
  8
lines
  6
ByLayer
 62
  256
370
   -1
100
AcDbLine
 10
1803
 20
471
 11
1824
 21
491
  0
LINE
  5
D8
100
AcDbEntity
  8
lines
  6
ByLayer
 62
  256
370
   -1
100
AcDbLine
 10
1824
 20
491
 11
1824
 21
605
  0
LINE
  5
D9
100
AcDbEntity
  8
lines
  6
ByLayer
 62
  256
370
   -1
100
AcDbLine
 10
1824
 20
605
 11
1803
 21
628
  0
LINE
  5
DA
100
AcDbEntity
  8
lines
  6
ByLayer
 62
  256
370
   -1
100
AcDbLine
 10
1026
 20
628
 11
1026
 21
647
  0
LINE
  5
DB
100
AcDbEntity
  8
lines
  6
ByLayer
 62
  256
370
   -1
100
AcDbLine
 10
1026
 20
647
 11
1083
 21
647
  0
LINE
  5
DC
100
AcDbEntity
  8
lines
  6
ByLayer
 62
  256
370
   -1
100
AcDbLine
 10
1083
 20
647
 11
1083
 21
788
  0
LINE
  5
DD
100
AcDbEntity
  8
lines
  6
ByLayer
 62
  256
370
   -1
100
AcDbLine
 10
1083
 20
788
 11
1026
 21
788
  0
LINE
  5
DE
100
AcDbEntity
  8
lines
  6
ByLayer
 62
  256
370
   -1
100
AcDbLine
 10
1026
 20
788
 11
1026
 21
806
  0
LINE
  5
DF
100
AcDbEntity
  8
lines
  6
ByLayer
 62
  256
370
   -1
100
AcDbLine
 10
1026
 20
806
 11
1083
 21
806
  0
LINE
  5
E0
100
AcDbEntity
  8
lines
  6
ByLayer
 62
  256
370
   -1
100
AcDbLine
 10
1083
 20
806
 11
1083
 21
949
  0
LINE
  5
E1
100
AcDbEntity
  8
lines
  6
ByLayer
 62
  256
370
   -1
100
AcDbLine
 10
1083
 20
949
 11
1026
 21
949
  0
LINE
  5
E2
100
AcDbEntity
  8
lines
  6
ByLayer
 62
  256
370
   -1
100
AcDbLine
 10
1026
 20
949
 11
1026
 21
967
  0
LINE
  5
E3
100
AcDbEntity
  8
lines
  6
ByLayer
 62
  256
370
   -1
100
AcDbLine
 10
1026
 20
967
 11
1083
 21
967
  0
LINE
  5
E4
100
AcDbEntity
  8
lines
  6
ByLayer
 62
  256
370
   -1
100
AcDbLine
 10
1083
 20
967
 11
1083
 21
1270
  0
LINE
  5
E5
100
AcDbEntity
  8
lines
  6
ByLayer
 62
  256
370
   -1
100
AcDbLine
 10
1083
 20
1270
 11
1026
 21
1270
  0
LINE
  5
E6
100
AcDbEntity
  8
lines
  6
ByLayer
 62
  256
370
   -1
100
AcDbLine
 10
1026
 20
1270
 11
1026
 21
1288
  0
LINE
  5
E7
100
AcDbEntity
  8
lines
  6
ByLayer
 62
  256
370
   -1
100
AcDbLine
 10
1026
 20
1288
 11
1083
 21
1288
  0
LINE
  5
E8
100
AcDbEntity
  8
lines
  6
ByLayer
 62
  256
370
   -1
100
AcDbLine
 10
1083
 20
1288
 11
1083
 21
1432
  0
LINE
  5
E9
100
AcDbEntity
  8
lines
  6
ByLayer
 62
  256
370
   -1
100
AcDbLine
 10
1083
 20
1432
 11
1083
 21
1433
  0
LINE
  5
EA
100
AcDbEntity
  8
lines
  6
ByLayer
 62
  256
370
   -1
100
AcDbLine
 10
1083
 20
1433
 11
1026
 21
1433
  0
LINE
  5
EB
100
AcDbEntity
  8
lines
  6
ByLayer
 62
  256
370
   -1
100
AcDbLine
 10
1026
 20
1433
 11
1026
 21
1450
  0
LINE
  5
EC
100
AcDbEntity
  8
lines
  6
ByLayer
 62
  256
370
   -1
100
AcDbLine
 10
1026
 20
1450
 11
1083
 21
1450
  0
LINE
  5
ED
100
AcDbEntity
  8
lines
  6
ByLayer
 62
  256
370
   -1
100
AcDbLine
 10
1083
 20
1450
 11
1083
 21
1577
  0
LINE
  5
EE
100
AcDbEntity
  8
lines
  6
ByLayer
 62
  256
370
   -1
100
AcDbLine
 10
1083
 20
1577
 11
1026
 21
1577
  0
LINE
  5
EF
100
AcDbEntity
  8
lines
  6
ByLayer
 62
  256
370
   -1
100
AcDbLine
 10
1026
 20
1577
 11
1026
 21
1597
  0
LINE
  5
F0
100
AcDbEntity
  8
lines
  6
ByLayer
 62
  256
370
   -1
100
AcDbLine
 10
1422
 20
150
 11
1404
 21
150
  0
LINE
  5
F1
100
AcDbEntity
  8
lines
  6
ByLayer
 62
  256
370
   -1
100
AcDbLine
 10
1519
 20
150
 11
1536
 21
150
  0
LINE
  5
F2
100
AcDbEntity
  8
lines
  6
ByLayer
 62
  256
370
   -1
100
AcDbLine
 10
1671
 20
150
 11
1688
 21
150
  0
LINE
  5
F3
100
AcDbEntity
  8
lines
  6
ByLayer
 62
  256
370
   -1
100
AcDbLine
 10
1785
 20
150
 11
1803
 21
150
  0
LINE
  5
F4
100
AcDbEntity
  8
lines
  6
ByLayer
 62
  256
370
   -1
100
AcDbLine
 10
2179
 20
628
 11
2179
 21
648
  0
LINE
  5
F5
100
AcDbEntity
  8
lines
  6
ByLayer
 62
  256
370
   -1
100
AcDbLine
 10
2179
 20
648
 11
2122
 21
648
  0
LINE
  5
F6
100
AcDbEntity
  8
lines
  6
ByLayer
 62
  256
370
   -1
100
AcDbLine
 10
2122
 20
648
 11
2122
 21
786
  0
LINE
  5
F7
100
AcDbEntity
  8
lines
  6
ByLayer
 62
  256
370
   -1
100
AcDbLine
 10
2122
 20
786
 11
2179
 21
786
  0
LINE
  5
F8
100
AcDbEntity
  8
lines
  6
ByLayer
 62
  256
370
   -1
100
AcDbLine
 10
2179
 20
786
 11
2179
 21
803
  0
LINE
  5
F9
100
AcDbEntity
  8
lines
  6
ByLayer
 62
  256
370
   -1
100
AcDbLine
 10
2179
 20
803
 11
2122
 21
803
  0
LINE
  5
FA
100
AcDbEntity
  8
lines
  6
ByLayer
 62
  256
370
   -1
100
AcDbLine
 10
2122
 20
803
 11
2122
 21
948
  0
LINE
  5
FB
100
AcDbEntity
  8
lines
  6
ByLayer
 62
  256
370
   -1
100
AcDbLine
 10
2122
 20
948
 11
2179
 21
948
  0
LINE
  5
FC
100
AcDbEntity
  8
lines
  6
ByLayer
 62
  256
370
   -1
100
AcDbLine
 10
2179
 20
948
 11
2179
 21
966
  0
LINE
  5
FD
100
AcDbEntity
  8
lines
  6
ByLayer
 62
  256
370
   -1
100
AcDbLine
 10
2179
 20
966
 11
2122
 21
966
  0
LINE
  5
FE
100
AcDbEntity
  8
lines
  6
ByLayer
 62
  256
370
   -1
100
AcDbLine
 10
2122
 20
966
 11
2122
 21
1269
  0
LINE
  5
FF
100
AcDbEntity
  8
lines
  6
ByLayer
 62
  256
370
   -1
100
AcDbLine
 10
2122
 20
1269
 11
2178
 21
1269
  0
LINE
  5
100
100
AcDbEntity
  8
lines
  6
ByLayer
 62
  256
370
   -1
100
AcDbLine
 10
2178
 20
1269
 11
2179
 21
1269
  0
LINE
  5
101
100
AcDbEntity
  8
lines
  6
ByLayer
 62
  256
370
   -1
100
AcDbLine
 10
2179
 20
1269
 11
2179
 21
1287
  0
LINE
  5
102
100
AcDbEntity
  8
lines
  6
ByLayer
 62
  256
370
   -1
100
AcDbLine
 10
2179
 20
1287
 11
2122
 21
1287
  0
LINE
  5
103
100
AcDbEntity
  8
lines
  6
ByLayer
 62
  256
370
   -1
100
AcDbLine
 10
2122
 20
1287
 11
2122
 21
1430
  0
LINE
  5
104
100
AcDbEntity
  8
lines
  6
ByLayer
 62
  256
370
   -1
100
AcDbLine
 10
2122
 20
1430
 11
2179
 21
1430
  0
LINE
  5
105
100
AcDbEntity
  8
lines
  6
ByLayer
 62
  256
370
   -1
100
AcDbLine
 10
2179
 20
1430
 11
2179
 21
1448
  0
LINE
  5
106
100
AcDbEntity
  8
lines
  6
ByLayer
 62
  256
370
   -1
100
AcDbLine
 10
2179
 20
1448
 11
2122
 21
1448
  0
LINE
  5
107
100
AcDbEntity
  8
lines
  6
ByLayer
 62
  256
370
   -1
100
AcDbLine
 10
2122
 20
1448
 11
2122
 21
1578
  0
LINE
  5
108
100
AcDbEntity
  8
lines
  6
ByLayer
 62
  256
370
   -1
100
AcDbLine
 10
2122
 20
1578
 11
2179
 21
1578
  0
LINE
  5
109
100
AcDbEntity
  8
lines
  6
ByLayer
 62
  256
370
   -1
100
AcDbLine
 10
2179
 20
1578
 11
2179
 21
1597
  0
LINE
  5
10A
100
AcDbEntity
  8
lines
  6
ByLayer
 62
  256
370
   -1
100
AcDbLine
 10
1404
 20
1861
 11
1523
 21
1808
  0
LINE
  5
10B
100
AcDbEntity
  8
lines
  6
ByLayer
 62
  256
370
   -1
100
AcDbLine
 10
1523
 20
1808
 11
1404
 21
1755
  0
LINE
  5
10C
100
AcDbEntity
  8
lines
  6
ByLayer
 62
  256
370
   -1
100
AcDbLine
 10
1404
 20
1755
 11
1385
 21
1736
  0
LINE
  5
10D
100
AcDbEntity
  8
lines
  6
ByLayer
 62
  256
370
   -1
100
AcDbLine
 10
1385
 20
1736
 11
1385
 21
1620
  0
LINE
  5
10E
100
AcDbEntity
  8
lines
  6
ByLayer
 62
  256
370
   -1
100
AcDbLine
 10
1385
 20
1620
 11
1404
 21
1597
  0
LINE
  5
10F
100
AcDbEntity
  8
lines
  6
ByLayer
 62
  256
370
   -1
100
AcDbLine
 10
1803
 20
1597
 11
1824
 21
1621
  0
LINE
  5
110
100
AcDbEntity
  8
lines
  6
ByLayer
 62
  256
370
   -1
100
AcDbLine
 10
1824
 20
1621
 11
1824
 21
1730
  0
LINE
  5
111
100
AcDbEntity
  8
lines
  6
ByLayer
 62
  256
370
   -1
100
AcDbLine
 10
1824
 20
1730
 11
1803
 21
1755
  0
LINE
  5
112
100
AcDbEntity
  8
lines
  6
ByLayer
 62
  256
370
   -1
100
AcDbLine
 10
1803
 20
1755
 11
1685
 21
1808
  0
LINE
  5
113
100
AcDbEntity
  8
lines
  6
ByLayer
 62
  256
370
   -1
100
AcDbLine
 10
1685
 20
1808
 11
1803
 21
1861
  0
LINE
  5
114
100
AcDbEntity
  8
lines
  6
ByLayer
 62
  256
370
   -1
100
AcDbLine
 10
1803
 20
2075
 11
1784
 21
2075
  0
LINE
  5
115
100
AcDbEntity
  8
lines
  6
ByLayer
 62
  256
370
   -1
100
AcDbLine
 10
1784
 20
2075
 11
1784
 21
2019
  0
LINE
  5
116
100
AcDbEntity
  8
lines
  6
ByLayer
 62
  256
370
   -1
100
AcDbLine
 10
1784
 20
2019
 11
1687
 21
2019
  0
LINE
  5
117
100
AcDbEntity
  8
lines
  6
ByLayer
 62
  256
370
   -1
100
AcDbLine
 10
1687
 20
2019
 11
1687
 21
2075
  0
LINE
  5
118
100
AcDbEntity
  8
lines
  6
ByLayer
 62
  256
370
   -1
100
AcDbLine
 10
1687
 20
2075
 11
1670
 21
2075
  0
LINE
  5
119
100
AcDbEntity
  8
lines
  6
ByLayer
 62
  256
370
   -1
100
AcDbLine
 10
1670
 20
2075
 11
1670
 21
2020
  0
LINE
  5
11A
100
AcDbEntity
  8
lines
  6
ByLayer
 62
  256
370
   -1
100
AcDbLine
 10
1670
 20
2020
 11
1670
 21
2019
  0
LINE
  5
11B
100
AcDbEntity
  8
lines
  6
ByLayer
 62
  256
370
   -1
100
AcDbLine
 10
1670
 20
2019
 11
1535
 21
2019
  0
LINE
  5
11C
100
AcDbEntity
  8
lines
  6
ByLayer
 62
  256
370
   -1
100
AcDbLine
 10
1535
 20
2019
 11
1535
 21
2075
  0
LINE
  5
11D
100
AcDbEntity
  8
lines
  6
ByLayer
 62
  256
370
   -1
100
AcDbLine
 10
1535
 20
2075
 11
1518
 21
2075
  0
LINE
  5
11E
100
AcDbEntity
  8
lines
  6
ByLayer
 62
  256
370
   -1
100
AcDbLine
 10
1518
 20
2075
 11
1518
 21
2019
  0
LINE
  5
11F
100
AcDbEntity
  8
lines
  6
ByLayer
 62
  256
370
   -1
100
AcDbLine
 10
1518
 20
2019
 11
1421
 21
2019
  0
LINE
  5
120
100
AcDbEntity
  8
lines
  6
ByLayer
 62
  256
370
   -1
100
AcDbLine
 10
1421
 20
2019
 11
1421
 21
2075
  0
LINE
  5
121
100
AcDbEntity
  8
lines
  6
ByLayer
 62
  256
370
   -1
100
AcDbLine
 10
1421
 20
2075
 11
1404
 21
2075
  0
LINE
  5
122
100
AcDbEntity
  8
lines
  6
ByLayer
 62
  256
370
   -1
100
AcDbLine
 10
1803
 20
1861
 11
1803
 21
2075
  0
LINE
  5
123
100
AcDbEntity
  8
lines
  6
ByLayer
 62
  256
370
   -1
100
AcDbLine
 10
1404
 20
2075
 11
1404
 21
1861
  0
LINE
  5
124
100
AcDbEntity
  8
lines
  6
DASHED
 62
  256
370
   -1
100
AcDbLine
 10
1404
 20
1755
 11
1404
 21
1597
  0
LINE
  5
125
100
AcDbEntity
  8
lines
  6
DASHED
 62
  256
370
   -1
100
AcDbLine
 10
1404
 20
1597
 11
1404
 21
628
  0
LINE
  5
126
100
AcDbEntity
  8
lines
  6
DASHED
 62
  256
370
   -1
100
AcDbLine
 10
1404
 20
628
 11
1404
 21
471
  0
LINE
  5
127
100
AcDbEntity
  8
lines
  6
ByLayer
 62
  256
370
   -1
100
AcDbLine
 10
1404
 20
363
 11
1404
 21
150
  0
LINE
  5
128
100
AcDbEntity
  8
lines
  6
ByLayer
 62
  256
370
   -1
100
AcDbLine
 10
1803
 20
363
 11
1803
 21
150
  0
LINE
  5
129
100
AcDbEntity
  8
lines
  6
DASHED
 62
  256
370
   -1
100
AcDbLine
 10
1803
 20
628
 11
1803
 21
471
  0
LINE
  5
12A
100
AcDbEntity
  8
lines
  6
DASHED
 62
  256
370
   -1
100
AcDbLine
 10
1803
 20
628
 11
1803
 21
1597
  0
LINE
  5
12B
100
AcDbEntity
  8
lines
  6
DASHED
 62
  256
370
   -1
100
AcDbLine
 10
1803
 20
1597
 11
1803
 21
1755
  0
LINE
  5
12C
100
AcDbEntity
  8
lines
  6
ByLayer
 62
  256
370
   -1
100
AcDbLine
 10
1803
 20
2075
 11
1803
 21
1861
  0
LINE
  5
12D
100
AcDbEntity
  8
lines
  6
ByLayer
 62
  256
370
   -1
100
AcDbLine
 10
943
 20
1563
 11
980
 21
1563
  0
LINE
  5
12E
100
AcDbEntity
  8
lines
  6
ByLayer
 62
  256
370
   -1
100
AcDbLine
 10
980
 20
1563
 11
980
 21
1554
  0
LINE
  5
12F
100
AcDbEntity
  8
lines
  6
ByLayer
 62
  256
370
   -1
100
AcDbLine
 10
980
 20
1554
 11
989
 21
1554
  0
LINE
  5
130
100
AcDbEntity
  8
lines
  6
ByLayer
 62
  256
370
   -1
100
AcDbLine
 10
981
 20
1383
 11
981
 21
1298
  0
LINE
  5
131
100
AcDbEntity
  8
lines
  6
ByLayer
 62
  256
370
   -1
100
AcDbLine
 10
981
 20
1298
 11
989
 21
1297
  0
LINE
  5
132
100
AcDbEntity
  8
lines
  6
ByLayer
 62
  256
370
   -1
100
AcDbLine
 10
989
 20
1297
 11
989
 21
843
  0
LINE
  5
133
100
AcDbEntity
  8
lines
  6
ByLayer
 62
  256
370
   -1
100
AcDbLine
 10
989
 20
843
 11
981
 21
841
  0
LINE
  5
134
100
AcDbEntity
  8
lines
  6
ByLayer
 62
  256
370
   -1
100
AcDbLine
 10
981
 20
841
 11
981
 21
757
  0
LINE
  5
135
100
AcDbEntity
  8
lines
  6
ByLayer
 62
  256
370
   -1
100
AcDbLine
 10
981
 20
757
 11
989
 21
755
  0
LINE
  5
136
100
AcDbEntity
  8
lines
  6
ByLayer
 62
  256
370
   -1
100
AcDbLine
 10
989
 20
755
 11
989
 21
594
  0
LINE
  5
137
100
AcDbEntity
  8
lines
  6
ByLayer
 62
  256
370
   -1
100
AcDbLine
 10
989
 20
594
 11
980
 21
594
  0
LINE
  5
138
100
AcDbEntity
  8
lines
  6
ByLayer
 62
  256
370
   -1
100
AcDbLine
 10
980
 20
594
 11
980
 21
585
  0
LINE
  5
139
100
AcDbEntity
  8
lines
  6
ByLayer
 62
  256
370
   -1
100
AcDbLine
 10
980
 20
585
 11
943
 21
585
  0
LINE
  5
13A
100
AcDbEntity
  8
lines
  6
ByLayer
 62
  256
370
   -1
100
AcDbLine
 10
943
 20
585
 11
943
 21
594
  0
LINE
  5
13B
100
AcDbEntity
  8
lines
  6
ByLayer
 62
  256
370
   -1
100
AcDbLine
 10
943
 20
594
 11
935
 21
594
  0
LINE
  5
13C
100
AcDbEntity
  8
lines
  6
ByLayer
 62
  256
370
   -1
100
AcDbLine
 10
935
 20
594
 11
935
 21
1554
  0
LINE
  5
13D
100
AcDbEntity
  8
lines
  6
ByLayer
 62
  256
370
   -1
100
AcDbLine
 10
935
 20
1554
 11
943
 21
1554
  0
LINE
  5
13E
100
AcDbEntity
  8
lines
  6
ByLayer
 62
  256
370
   -1
100
AcDbLine
 10
943
 20
1554
 11
943
 21
1563
  0
LINE
  5
13F
100
AcDbEntity
  8
lines
  6
ByLayer
 62
  256
370
   -1
100
AcDbLine
 10
981
 20
1383
 11
989
 21
1385
  0
LINE
  5
140
100
AcDbEntity
  8
lines
  6
ByLayer
 62
  256
370
   -1
100
AcDbLine
 10
989
 20
1385
 11
989
 21
1554
  0
LINE
  5
141
100
AcDbEntity
  8
lines
  6
ByLayer
 62
  256
370
   -1
100
AcDbLine
 10
844
 20
1563
 11
881
 21
1563
  0
LINE
  5
142
100
AcDbEntity
  8
lines
  6
ByLayer
 62
  256
370
   -1
100
AcDbLine
 10
881
 20
1563
 11
881
 21
1554
  0
LINE
  5
143
100
AcDbEntity
  8
lines
  6
ByLayer
 62
  256
370
   -1
100
AcDbLine
 10
881
 20
1554
 11
889
 21
1554
  0
LINE
  5
144
100
AcDbEntity
  8
lines
  6
ByLayer
 62
  256
370
   -1
100
AcDbLine
 10
889
 20
1554
 11
889
 21
594
  0
LINE
  5
145
100
AcDbEntity
  8
lines
  6
ByLayer
 62
  256
370
   -1
100
AcDbLine
 10
889
 20
594
 11
881
 21
594
  0
LINE
  5
146
100
AcDbEntity
  8
lines
  6
ByLayer
 62
  256
370
   -1
100
AcDbLine
 10
881
 20
594
 11
881
 21
585
  0
LINE
  5
147
100
AcDbEntity
  8
lines
  6
ByLayer
 62
  256
370
   -1
100
AcDbLine
 10
881
 20
585
 11
844
 21
585
  0
LINE
  5
148
100
AcDbEntity
  8
lines
  6
ByLayer
 62
  256
370
   -1
100
AcDbLine
 10
844
 20
585
 11
844
 21
594
  0
LINE
  5
149
100
AcDbEntity
  8
lines
  6
ByLayer
 62
  256
370
   -1
100
AcDbLine
 10
844
 20
594
 11
835
 21
594
  0
LINE
  5
14A
100
AcDbEntity
  8
lines
  6
ByLayer
 62
  256
370
   -1
100
AcDbLine
 10
835
 20
594
 11
835
 21
1554
  0
LINE
  5
14B
100
AcDbEntity
  8
lines
  6
ByLayer
 62
  256
370
   -1
100
AcDbLine
 10
835
 20
1554
 11
844
 21
1554
  0
LINE
  5
14C
100
AcDbEntity
  8
lines
  6
ByLayer
 62
  256
370
   -1
100
AcDbLine
 10
844
 20
1554
 11
844
 21
1563
  0
LINE
  5
14D
100
AcDbEntity
  8
lines
  6
ByLayer
 62
  256
370
   -1
100
AcDbLine
 10
1026
 20
1597
 11
1404
 21
1597
  0
LINE
  5
14E
100
AcDbEntity
  8
lines
  6
DASHED
 62
  256
370
   -1
100
AcDbLine
 10
1404
 20
1597
 11
1803
 21
1597
  0
LINE
  5
14F
100
AcDbEntity
  8
lines
  6
ByLayer
 62
  256
370
   -1
100
AcDbLine
 10
1803
 20
1597
 11
2179
 21
1597
  0
LINE
  5
150
100
AcDbEntity
  8
lines
  6
ByLayer
 62
  256
370
   -1
100
AcDbLine
 10
1026
 20
628
 11
1404
 21
628
  0
LINE
  5
151
100
AcDbEntity
  8
lines
  6
DASHED
 62
  256
370
   -1
100
AcDbLine
 10
1404
 20
628
 11
1803
 21
628
  0
LINE
  5
152
100
AcDbEntity
  8
lines
  6
ByLayer
 62
  256
370
   -1
100
AcDbLine
 10
1803
 20
628
 11
2179
 21
628
  0
LINE
  5
153
100
AcDbEntity
  8
lines
  6
DASHED
 62
  256
370
   -1
100
AcDbLine
 10
1522
 20
417
 11
1684
 21
417
  0
LINE
  5
154
100
AcDbEntity
  8
lines
  6
DASHED
 62
  256
370
   -1
100
AcDbLine
 10
1523
 20
1808
 11
1685
 21
1808
  0
LINE
  5
155
100
AcDbEntity
  8
lines
  6
DASHED
 62
  256
370
   -1
100
AcDbLine
 10
1962
 20
1597
 11
1962
 21
628
  0
LINE
  5
156
100
AcDbEntity
  8
lines
  6
DASHED
 62
  256
370
   -1
100
AcDbLine
 10
1244
 20
628
 11
1244
 21
1597
  0
LINE
  5
157
100
AcDbEntity
  8
lines
  6
ByLayer
 62
  256
370
   -1
100
AcDbLine
 10
745
 20
1563
 11
782
 21
1563
  0
LINE
  5
158
100
AcDbEntity
  8
lines
  6
ByLayer
 62
  256
370
   -1
100
AcDbLine
 10
782
 20
1563
 11
782
 21
1554
  0
LINE
  5
159
100
AcDbEntity
  8
lines
  6
ByLayer
 62
  256
370
   -1
100
AcDbLine
 10
782
 20
1554
 11
790
 21
1554
  0
LINE
  5
15A
100
AcDbEntity
  8
lines
  6
ByLayer
 62
  256
370
   -1
100
AcDbLine
 10
790
 20
1554
 11
790
 21
594
  0
LINE
  5
15B
100
AcDbEntity
  8
lines
  6
ByLayer
 62
  256
370
   -1
100
AcDbLine
 10
790
 20
594
 11
782
 21
594
  0
LINE
  5
15C
100
AcDbEntity
  8
lines
  6
ByLayer
 62
  256
370
   -1
100
AcDbLine
 10
782
 20
594
 11
782
 21
585
  0
LINE
  5
15D
100
AcDbEntity
  8
lines
  6
ByLayer
 62
  256
370
   -1
100
AcDbLine
 10
782
 20
585
 11
745
 21
585
  0
LINE
  5
15E
100
AcDbEntity
  8
lines
  6
ByLayer
 62
  256
370
   -1
100
AcDbLine
 10
745
 20
585
 11
745
 21
594
  0
LINE
  5
15F
100
AcDbEntity
  8
lines
  6
ByLayer
 62
  256
370
   -1
100
AcDbLine
 10
745
 20
594
 11
736
 21
594
  0
LINE
  5
160
100
AcDbEntity
  8
lines
  6
ByLayer
 62
  256
370
   -1
100
AcDbLine
 10
736
 20
594
 11
736
 21
1554
  0
LINE
  5
161
100
AcDbEntity
  8
lines
  6
ByLayer
 62
  256
370
   -1
100
AcDbLine
 10
736
 20
1554
 11
745
 21
1554
  0
LINE
  5
162
100
AcDbEntity
  8
lines
  6
ByLayer
 62
  256
370
   -1
100
AcDbLine
 10
745
 20
1554
 11
745
 21
1563
  0
LINE
  5
163
100
AcDbEntity
  8
lines
  6
ByLayer
 62
  256
370
   -1
100
AcDbLine
 10
657
 20
1563
 11
694
 21
1563
  0
LINE
  5
164
100
AcDbEntity
  8
lines
  6
ByLayer
 62
  256
370
   -1
100
AcDbLine
 10
694
 20
1563
 11
694
 21
1554
  0
LINE
  5
165
100
AcDbEntity
  8
lines
  6
ByLayer
 62
  256
370
   -1
100
AcDbLine
 10
694
 20
1554
 11
702
 21
1554
  0
LINE
  5
166
100
AcDbEntity
  8
lines
  6
ByLayer
 62
  256
370
   -1
100
AcDbLine
 10
702
 20
1554
 11
702
 21
594
  0
LINE
  5
167
100
AcDbEntity
  8
lines
  6
ByLayer
 62
  256
370
   -1
100
AcDbLine
 10
702
 20
594
 11
694
 21
594
  0
LINE
  5
168
100
AcDbEntity
  8
lines
  6
ByLayer
 62
  256
370
   -1
100
AcDbLine
 10
694
 20
594
 11
694
 21
585
  0
LINE
  5
169
100
AcDbEntity
  8
lines
  6
ByLayer
 62
  256
370
   -1
100
AcDbLine
 10
694
 20
585
 11
657
 21
585
  0
LINE
  5
16A
100
AcDbEntity
  8
lines
  6
ByLayer
 62
  256
370
   -1
100
AcDbLine
 10
657
 20
585
 11
657
 21
594
  0
LINE
  5
16B
100
AcDbEntity
  8
lines
  6
ByLayer
 62
  256
370
   -1
100
AcDbLine
 10
657
 20
594
 11
648
 21
594
  0
LINE
  5
16C
100
AcDbEntity
  8
lines
  6
ByLayer
 62
  256
370
   -1
100
AcDbLine
 10
648
 20
594
 11
648
 21
753
  0
LINE
  5
16D
100
AcDbEntity
  8
lines
  6
ByLayer
 62
  256
370
   -1
100
AcDbLine
 10
648
 20
753
 11
656
 21
755
  0
LINE
  5
16E
100
AcDbEntity
  8
lines
  6
ByLayer
 62
  256
370
   -1
100
AcDbLine
 10
656
 20
755
 11
656
 21
838
  0
LINE
  5
16F
100
AcDbEntity
  8
lines
  6
ByLayer
 62
  256
370
   -1
100
AcDbLine
 10
656
 20
838
 11
648
 21
840
  0
LINE
  5
170
100
AcDbEntity
  8
lines
  6
ByLayer
 62
  256
370
   -1
100
AcDbLine
 10
648
 20
840
 11
648
 21
1296
  0
LINE
  5
171
100
AcDbEntity
  8
lines
  6
ByLayer
 62
  256
370
   -1
100
AcDbLine
 10
648
 20
1296
 11
656
 21
1298
  0
LINE
  5
172
100
AcDbEntity
  8
lines
  6
ByLayer
 62
  256
370
   -1
100
AcDbLine
 10
656
 20
1298
 11
656
 21
1381
  0
LINE
  5
173
100
AcDbEntity
  8
lines
  6
ByLayer
 62
  256
370
   -1
100
AcDbLine
 10
656
 20
1381
 11
648
 21
1383
  0
LINE
  5
174
100
AcDbEntity
  8
lines
  6
ByLayer
 62
  256
370
   -1
100
AcDbLine
 10
648
 20
1383
 11
648
 21
1554
  0
LINE
  5
175
100
AcDbEntity
  8
lines
  6
ByLayer
 62
  256
370
   -1
100
AcDbLine
 10
648
 20
1554
 11
657
 21
1554
  0
LINE
  5
176
100
AcDbEntity
  8
lines
  6
ByLayer
 62
  256
370
   -1
100
AcDbLine
 10
657
 20
1554
 11
657
 21
1563
  0
LINE
  5
177
100
AcDbEntity
  8
lines
  6
ByLayer
 62
  256
370
   -1
100
AcDbLine
 10
589
 20
1554
 11
611
 21
1554
  0
LINE
  5
178
100
AcDbEntity
  8
lines
  6
ByLayer
 62
  256
370
   -1
100
AcDbLine
 10
611
 20
1554
 11
611
 21
594
  0
LINE
  5
179
100
AcDbEntity
  8
lines
  6
ByLayer
 62
  256
370
   -1
100
AcDbLine
 10
611
 20
594
 11
589
 21
594
  0
LINE
  5
17A
100
AcDbEntity
  8
lines
  6
ByLayer
 62
  256
370
   -1
100
AcDbLine
 10
589
 20
594
 11
589
 21
750
  0
LINE
  5
17B
100
AcDbEntity
  8
lines
  6
ByLayer
 62
  256
370
   -1
100
AcDbLine
 10
589
 20
750
 11
600
 21
753
  0
LINE
  5
17C
100
AcDbEntity
  8
lines
  6
ByLayer
 62
  256
370
   -1
100
AcDbLine
 10
600
 20
753
 11
600
 21
836
  0
LINE
  5
17D
100
AcDbEntity
  8
lines
  6
ByLayer
 62
  256
370
   -1
100
AcDbLine
 10
600
 20
836
 11
589
 21
839
  0
LINE
  5
17E
100
AcDbEntity
  8
lines
  6
ByLayer
 62
  256
370
   -1
100
AcDbLine
 10
589
 20
839
 11
589
 21
1295
  0
LINE
  5
17F
100
AcDbEntity
  8
lines
  6
ByLayer
 62
  256
370
   -1
100
AcDbLine
 10
589
 20
1295
 11
600
 21
1298
  0
LINE
  5
180
100
AcDbEntity
  8
lines
  6
ByLayer
 62
  256
370
   -1
100
AcDbLine
 10
600
 20
1298
 11
600
 21
1381
  0
LINE
  5
181
100
AcDbEntity
  8
lines
  6
ByLayer
 62
  256
370
   -1
100
AcDbLine
 10
600
 20
1381
 11
589
 21
1384
  0
LINE
  5
182
100
AcDbEntity
  8
lines
  6
ByLayer
 62
  256
370
   -1
100
AcDbLine
 10
589
 20
1384
 11
589
 21
1554
  0
LINE
  5
183
100
AcDbEntity
  8
lines
  6
ByLayer
 62
  256
370
   -1
100
AcDbLine
 10
535
 20
1554
 11
557
 21
1554
  0
LINE
  5
184
100
AcDbEntity
  8
lines
  6
ByLayer
 62
  256
370
   -1
100
AcDbLine
 10
557
 20
1554
 11
557
 21
1384
  0
LINE
  5
185
100
AcDbEntity
  8
lines
  6
ByLayer
 62
  256
370
   -1
100
AcDbLine
 10
557
 20
1384
 11
546
 21
1381
  0
LINE
  5
186
100
AcDbEntity
  8
lines
  6
ByLayer
 62
  256
370
   -1
100
AcDbLine
 10
546
 20
1381
 11
546
 21
1298
  0
LINE
  5
187
100
AcDbEntity
  8
lines
  6
ByLayer
 62
  256
370
   -1
100
AcDbLine
 10
546
 20
1298
 11
557
 21
1295
  0
LINE
  5
188
100
AcDbEntity
  8
lines
  6
ByLayer
 62
  256
370
   -1
100
AcDbLine
 10
557
 20
1295
 11
557
 21
839
  0
LINE
  5
189
100
AcDbEntity
  8
lines
  6
ByLayer
 62
  256
370
   -1
100
AcDbLine
 10
557
 20
839
 11
546
 21
836
  0
LINE
  5
18A
100
AcDbEntity
  8
lines
  6
ByLayer
 62
  256
370
   -1
100
AcDbLine
 10
546
 20
836
 11
546
 21
753
  0
LINE
  5
18B
100
AcDbEntity
  8
lines
  6
ByLayer
 62
  256
370
   -1
100
AcDbLine
 10
546
 20
753
 11
557
 21
750
  0
LINE
  5
18C
100
AcDbEntity
  8
lines
  6
ByLayer
 62
  256
370
   -1
100
AcDbLine
 10
557
 20
750
 11
557
 21
594
  0
LINE
  5
18D
100
AcDbEntity
  8
lines
  6
ByLayer
 62
  256
370
   -1
100
AcDbLine
 10
557
 20
594
 11
535
 21
594
  0
LINE
  5
18E
100
AcDbEntity
  8
lines
  6
ByLayer
 62
  256
370
   -1
100
AcDbLine
 10
535
 20
594
 11
535
 21
1554
  0
LINE
  5
18F
100
AcDbEntity
  8
lines
  6
DASHED
 62
  256
370
   -1
100
AcDbLine
 10
657
 20
1554
 11
694
 21
1554
  0
LINE
  5
190
100
AcDbEntity
  8
lines
  6
DASHED
 62
  256
370
   -1
100
AcDbLine
 10
694
 20
1554
 11
694
 21
594
  0
LINE
  5
191
100
AcDbEntity
  8
lines
  6
DASHED
 62
  256
370
   -1
100
AcDbLine
 10
694
 20
594
 11
657
 21
594
  0
LINE
  5
192
100
AcDbEntity
  8
lines
  6
DASHED
 62
  256
370
   -1
100
AcDbLine
 10
657
 20
594
 11
657
 21
1554
  0
LINE
  5
193
100
AcDbEntity
  8
lines
  6
DASHED
 62
  256
370
   -1
100
AcDbLine
 10
745
 20
1554
 11
782
 21
1554
  0
LINE
  5
194
100
AcDbEntity
  8
lines
  6
DASHED
 62
  256
370
   -1
100
AcDbLine
 10
782
 20
1554
 11
782
 21
594
  0
LINE
  5
195
100
AcDbEntity
  8
lines
  6
DASHED
 62
  256
370
   -1
100
AcDbLine
 10
782
 20
594
 11
745
 21
594
  0
LINE
  5
196
100
AcDbEntity
  8
lines
  6
DASHED
 62
  256
370
   -1
100
AcDbLine
 10
745
 20
594
 11
745
 21
1554
  0
LINE
  5
197
100
AcDbEntity
  8
lines
  6
DASHED
 62
  256
370
   -1
100
AcDbLine
 10
844
 20
1554
 11
881
 21
1554
  0
LINE
  5
198
100
AcDbEntity
  8
lines
  6
DASHED
 62
  256
370
   -1
100
AcDbLine
 10
881
 20
1554
 11
881
 21
594
  0
LINE
  5
199
100
AcDbEntity
  8
lines
  6
DASHED
 62
  256
370
   -1
100
AcDbLine
 10
881
 20
594
 11
844
 21
594
  0
LINE
  5
19A
100
AcDbEntity
  8
lines
  6
DASHED
 62
  256
370
   -1
100
AcDbLine
 10
844
 20
594
 11
844
 21
1554
  0
LINE
  5
19B
100
AcDbEntity
  8
lines
  6
DASHED
 62
  256
370
   -1
100
AcDbLine
 10
943
 20
1554
 11
980
 21
1554
  0
LINE
  5
19C
100
AcDbEntity
  8
lines
  6
DASHED
 62
  256
370
   -1
100
AcDbLine
 10
980
 20
1554
 11
980
 21
594
  0
LINE
  5
19D
100
AcDbEntity
  8
lines
  6
DASHED
 62
  256
370
   -1
100
AcDbLine
 10
980
 20
594
 11
943
 21
594
  0
LINE
  5
19E
100
AcDbEntity
  8
lines
  6
DASHED
 62
  256
370
   -1
100
AcDbLine
 10
943
 20
594
 11
943
 21
1554
  0
LINE
  5
19F
100
AcDbEntity
  8
lines
  6
ByLayer
 62
  256
370
   -1
100
AcDbLine
 10
1095.407279162903
 20
1904.820310333691
 11
1133.622027817022
 21
1889.534410872044
  0
ARC
  5
1A0
100
AcDbEntity
  8
lines
  6
ByLayer
 62
  256
370
   -1
100
AcDbCircle
 10
1227.018086261502
 20
1845.425795763119
 40
103.2879163299952
100
AcDbArc
 50
154.7198094497179
 51
207.138269189126
  0
ARC
  5
1A1
100
AcDbEntity
  8
lines
  6
ByLayer
 62
  256
370
   -1
100
AcDbCircle
 10
1238.534593459433
 20
1845.763657458876
 40
154.832542918193
100
AcDbArc
 50
157.5781616298065
 51
204.7042368813678
  0
LINE
  5
1A2
100
AcDbEntity
  8
lines
  6
ByLayer
 62
  256
370
   -1
100
AcDbLine
 10
1097.872746818008
 20
1781.053834047448
 11
1114.884473638228
 21
1769.959229599478
  0
LINE
  5
1A3
100
AcDbEntity
  8
lines
  6
ByLayer
 62
  256
370
   -1
100
AcDbLine
 10
1114.884473638228
 20
1769.959229599478
 11
1131.896200458449
 21
1777.848726095812
  0
LINE
  5
1A4
100
AcDbEntity
  8
lines
  6
ByLayer
 62
  256
370
   -1
100
AcDbLine
 10
1131.896200458449
 20
1777.848726095812
 11
1135.101308410085
 21
1798.312107633179
  0
LINE
  5
1A5
100
AcDbEntity
  8
lines
  6
ByLayer
 62
  256
370
   -1
100
AcDbLine
 10
1149.40102080969
 20
1812.365273267275
 11
1148.90792727867
 21
1878.193259658563
  0
LINE
  5
1A6
100
AcDbEntity
  8
lines
  6
ByLayer
 62
  256
370
   -1
100
AcDbLine
 10
1148.90792727867
 20
1878.193259658563
 11
1162.221452616234
 21
1897.177360602867
  0
LINE
  5
1A7
100
AcDbEntity
  8
lines
  6
ByLayer
 62
  256
370
   -1
100
AcDbLine
 10
1162.221452616234
 20
1897.177360602867
 11
1194.025985367081
 21
1897.423907368378
  0
LINE
  5
1A8
100
AcDbEntity
  8
lines
  6
ByLayer
 62
  256
370
   -1
100
AcDbLine
 10
1194.025985367081
 20
1897.423907368378
 11
1209.065338063218
 21
1879.425993486115
  0
LINE
  5
1A9
100
AcDbEntity
  8
lines
  6
ByLayer
 62
  256
370
   -1
100
AcDbLine
 10
1209.065338063218
 20
1879.425993486115
 11
1208.818791297708
 21
1812.365273267275
  0
LINE
  5
1AA
100
AcDbEntity
  8
lines
  6
ByLayer
 62
  256
370
   -1
100
AcDbLine
 10
1208.818791297708
 20
1812.365273267275
 11
1149.40102080969
 21
1812.365273267275
  0
ARC
  5
1AB
100
AcDbEntity
  8
lines
  6
ByLayer
 62
  256
370
   -1
100
AcDbCircle
 10
1258.146912957198
 20
1869.292816581819
 40
24.93123789715282
100
AcDbArc
 50
290.2040569051327
 51
251.5061378874008
  0
ARC
  5
1AC
100
AcDbEntity
  8
lines
  6
ByLayer
 62
  256
370
   -1
100
AcDbCircle
 10
1258.911573388999
 20
1818.060567651122
 40
28.91964755814622
100
AcDbArc
 50
107.4514374592536
 51
74.25875733327918
  0
LINE
  5
1AD
100
AcDbEntity
  8
lines
  6
ByLayer
 62
  256
370
   -1
100
AcDbLine
 10
689.5962340680254
 20
1782.297909026222
 11
699.4075626015135
 21
1750.341010374289
  0
LINE
  5
1AE
100
AcDbEntity
  8
lines
  6
ByLayer
 62
  256
370
   -1
100
AcDbLine
 10
699.4075626015135
 20
1750.341010374289
 11
695.2027075157329
 21
1744.734536926581
  0
LINE
  5
1AF
100
AcDbEntity
  8
lines
  6
ByLayer
 62
  256
370
   -1
100
AcDbLine
 10
695.2027075157329
 20
1744.734536926581
 11
684.5504079650887
 21
1771.925933147963
  0
LINE
  5
1B0
100
AcDbEntity
  8
lines
  6
ByLayer
 62
  256
370
   -1
100
AcDbLine
 10
684.5504079650887
 20
1771.925933147963
 11
652.8738329855411
 21
1767.440754389797
  0
LINE
  5
1B1
100
AcDbEntity
  8
lines
  6
ByLayer
 62
  256
370
   -1
100
AcDbLine
 10
652.8738329855411
 20
1767.440754389797
 11
644.4641228139798
 21
1760.993309924933
  0
LINE
  5
1B2
100
AcDbEntity
  8
lines
  6
ByLayer
 62
  256
370
   -1
100
AcDbLine
 10
644.4641228139798
 20
1760.993309924933
 11
639.418296711043
 21
1767.160430717411
  0
LINE
  5
1B3
100
AcDbEntity
  8
lines
  6
ByLayer
 62
  256
370
   -1
100
AcDbLine
 10
639.418296711043
 20
1767.160430717411
 11
639.6986203834284
 21
1773.607875182275
  0
LINE
  5
1B4
100
AcDbEntity
  8
lines
  6
ByLayer
 62
  256
370
   -1
100
AcDbLine
 10
639.6986203834284
 20
1773.607875182275
 11
647.8280068826043
 21
1782.297909026222
  0
LINE
  5
1B5
100
AcDbEntity
  8
lines
  6
ByLayer
 62
  256
370
   -1
100
AcDbLine
 10
647.8280068826043
 20
1782.297909026222
 11
639.2629699593291
 21
1790.636949139172
  0
LINE
  5
1B6
100
AcDbEntity
  8
lines
  6
ByLayer
 62
  256
370
   -1
100
AcDbLine
 10
639.2629699593291
 20
1790.636949139172
 11
639.133223060616
 21
1797.383787872252
  0
LINE
  5
1B7
100
AcDbEntity
  8
lines
  6
ByLayer
 62
  256
370
   -1
100
AcDbLine
 10
639.133223060616
 20
1797.383787872252
 11
644.3230990091391
 21
1804.260373504045
  0
LINE
  5
1B8
100
AcDbEntity
  8
lines
  6
ByLayer
 62
  256
370
   -1
100
AcDbLine
 10
644.3230990091391
 20
1804.260373504045
 11
652.2376598306367
 21
1797.773028568391
  0
LINE
  5
1B9
100
AcDbEntity
  8
lines
  6
ByLayer
 62
  256
370
   -1
100
AcDbLine
 10
652.2376598306367
 20
1797.773028568391
 11
653.7946226151937
 21
1802.443916922062
  0
LINE
  5
1BA
100
AcDbEntity
  8
lines
  6
ByLayer
 62
  256
370
   -1
100
AcDbLine
 10
653.7946226151937
 20
1802.443916922062
 11
684.1553969140537
 21
1796.994547176113
  0
LINE
  5
1BB
100
AcDbEntity
  8
lines
  6
ByLayer
 62
  256
370
   -1
100
AcDbLine
 10
684.1553969140537
 20
1796.994547176113
 11
692.9781860265429
 21
1825.279371095564
  0
LINE
  5
1BC
100
AcDbEntity
  8
lines
  6
ByLayer
 62
  256
370
   -1
100
AcDbLine
 10
692.9781860265429
 20
1825.279371095564
 11
703.4876848223021
 21
1817.10531647664
  0
LINE
  5
1BD
100
AcDbEntity
  8
lines
  6
ByLayer
 62
  256
370
   -1
100
AcDbLine
 10
703.4876848223021
 20
1817.10531647664
 11
694.0161612162475
 21
1782.852135216388
  0
LINE
  5
1BE
100
AcDbEntity
  8
lines
  6
ByLayer
 62
  256
370
   -1
100
AcDbLine
 10
694.0161612162475
 20
1782.852135216388
 11
689.734513558716
 21
1782.333147621535
  0
LINE
  5
1BF
100
AcDbEntity
  8
lines
  6
DOT
 62
  256
370
   -1
100
AcDbLine
 10
689.8848768503975
 20
1782.496130875073
 11
647.7839519562934
 21
1782.160665338068
  0
LINE
  5
1C0
100
AcDbEntity
  8
lines
  6
DOT
 62
  256
370
   -1
100
AcDbLine
 10
1250.238647903462
 20
1845.649086611185
 11
1266.757281192662
 21
1845.895633376695
  0
LINE
  5
1C1
100
AcDbEntity
  8
lines
  6
DASHED
 62
  256
370
   -1
100
AcDbLine
 10
292
 20
1969
 11
292
 21
1744
  0
LINE
  5
1C2
100
AcDbEntity
  8
lines
  6
ByLayer
 62
  256
370
   -1
100
AcDbLine
 10
292
 20
1969
 11
292
 21
1972
  0
LINE
  5
1C3
100
AcDbEntity
  8
lines
  6
ByLayer
 62
  256
370
   -1
100
AcDbLine
 10
292
 20
1741.1
 11
292
 21
1744
  0
LINE
  5
1C4
100
AcDbEntity
  8
lines
  6
ByLayer
 62
  256
370
   -1
100
AcDbLine
 10
318.9642858155161
 20
1741.035799319487
 11
292
 21
1741.1
  0
ARC
  5
1C5
100
AcDbEntity
  8
lines
  6
ByLayer
 62
  256
370
   -1
100
AcDbCircle
 10
319
 20
1756.035756802661
 40
15
100
AcDbArc
 50
269.8635817351309
 51
0
  0
LINE
  5
1C6
100
AcDbEntity
  8
lines
  6
ByLayer
 62
  256
370
   -1
100
AcDbLine
 10
292
 20
1972
 11
319
 21
1972
  0
LINE
  5
1C7
100
AcDbEntity
  8
lines
  6
ByLayer
 62
  256
370
   -1
100
AcDbLine
 10
334
 20
1957
 11
334
 21
1756.035756802661
  0
ARC
  5
1C8
100
AcDbEntity
  8
lines
  6
ByLayer
 62
  256
370
   -1
100
AcDbCircle
 10
319
 20
1957
 40
15
100
AcDbArc
 50
0
 51
90
  0
LINE
  5
1C9
100
AcDbEntity
  8
lines
  6
ByLayer
 62
  256
370
   -1
100
AcDbLine
 10
269
 20
1969
 11
292
 21
1969
  0
ARC
  5
1CA
100
AcDbEntity
  8
lines
  6
ByLayer
 62
  256
370
   -1
100
AcDbCircle
 10
269
 20
1954
 40
15
100
AcDbArc
 50
90
 51
180
  0
LINE
  5
1CB
100
AcDbEntity
  8
lines
  6
ByLayer
 62
  256
370
   -1
100
AcDbLine
 10
292
 20
1744
 11
269
 21
1744
  0
LINE
  5
1CC
100
AcDbEntity
  8
lines
  6
ByLayer
 62
  256
370
   -1
100
AcDbLine
 10
254
 20
1759
 11
254
 21
1954
  0
ARC
  5
1CD
100
AcDbEntity
  8
lines
  6
ByLayer
 62
  256
370
   -1
100
AcDbCircle
 10
269
 20
1759
 40
15
100
AcDbArc
 50
180
 51
270
  0
LINE
  5
1CE
100
AcDbEntity
  8
lines
  6
ByLayer
 62
  256
370
   -1
100
AcDbLine
 10
1924
 20
2177
 11
1924
 21
2188
  0
LINE
  5
1CF
100
AcDbEntity
  8
lines
  6
ByLayer
 62
  256
370
   -1
100
AcDbLine
 10
1924
 20
2188
 11
1987
 21
2188
  0
LINE
  5
1D0
100
AcDbEntity
  8
lines
  6
ByLayer
 62
  256
370
   -1
100
AcDbLine
 10
1987
 20
2188
 11
1987
 21
1775
  0
LINE
  5
1D1
100
AcDbEntity
  8
lines
  6
ByLayer
 62
  256
370
   -1
100
AcDbLine
 10
1987
 20
1775
 11
1924
 21
1775
  0
LINE
  5
1D2
100
AcDbEntity
  8
lines
  6
ByLayer
 62
  256
370
   -1
100
AcDbLine
 10
1924
 20
1775
 11
1924
 21
1786
  0
LINE
  5
1D3
100
AcDbEntity
  8
lines
  6
ByLayer
 62
  256
370
   -1
100
AcDbLine
 10
1924
 20
1786
 11
1870
 21
1786
  0
LINE
  5
1D4
100
AcDbEntity
  8
lines
  6
ByLayer
 62
  256
370
   -1
100
AcDbLine
 10
1870
 20
1786
 11
1870
 21
2177
  0
LINE
  5
1D5
100
AcDbEntity
  8
lines
  6
ByLayer
 62
  256
370
   -1
100
AcDbLine
 10
1870
 20
2177
 11
1924
 21
2177
  0
LINE
  5
1D6
100
AcDbEntity
  8
lines
  6
ByLayer
 62
  256
370
   -1
100
AcDbLine
 10
1924
 20
2177
 11
1924
 21
2188
  0
LINE
  5
1D7
100
AcDbEntity
  8
lines
  6
DASHED
 62
  256
370
   -1
100
AcDbLine
 10
1924
 20
2177
 11
1924
 21
1786
  0
LWPOLYLINE
  5
1D8
100
AcDbEntity
  8
lines
  6
ByLayer
 62
  256
370
   -1
100
AcDbPolyline
 90
    8
 70
    1
 43
0
 10
1749
 20
2436
 10
1779
 20
2436
 42
-0.414213562373095
 10
1784
 20
2431
 10
1784
 20
2376
 42
-0.414213562373095
 10
1779
 20
2371
 10
1749
 20
2371
 42
-0.414213562373095
 10
1744
 20
2376
 10
1744
 20
2431
 42
-0.414213562373095
  0
LINE
  5
1D9
100
AcDbEntity
  8
lines
  6
CONTINUOUS
 62
  256
370
   -1
100
AcDbLine
 10
1767
 20
2515
 11
1771
 21
2511
  0
LINE
  5
1DA
100
AcDbEntity
  8
lines
  6
CONTINUOUS
 62
  256
370
   -1
100
AcDbLine
 10
1771
 20
2511
 11
1768
 21
2506
  0
LINE
  5
1DB
100
AcDbEntity
  8
lines
  6
CONTINUOUS
 62
  256
370
   -1
100
AcDbLine
 10
1768
 20
2506
 11
1774
 21
2500
  0
LINE
  5
1DC
100
AcDbEntity
  8
lines
  6
CONTINUOUS
 62
  256
370
   -1
100
AcDbLine
 10
1774
 20
2500
 11
1781
 21
2500
  0
LINE
  5
1DD
100
AcDbEntity
  8
lines
  6
CONTINUOUS
 62
  256
370
   -1
100
AcDbLine
 10
1781
 20
2500
 11
1787
 21
2495
  0
LINE
  5
1DE
100
AcDbEntity
  8
lines
  6
CONTINUOUS
 62
  256
370
   -1
100
AcDbLine
 10
1787
 20
2495
 11
1787
 21
2492
  0
LINE
  5
1DF
100
AcDbEntity
  8
lines
  6
CONTINUOUS
 62
  256
370
   -1
100
AcDbLine
 10
1787
 20
2492
 11
1779
 21
2492
  0
LINE
  5
1E0
100
AcDbEntity
  8
lines
  6
CONTINUOUS
 62
  256
370
   -1
100
AcDbLine
 10
1779
 20
2492
 11
1781
 21
2489
  0
LINE
  5
1E1
100
AcDbEntity
  8
lines
  6
CONTINUOUS
 62
  256
370
   -1
100
AcDbLine
 10
1781
 20
2489
 11
1777
 21
2489
  0
LINE
  5
1E2
100
AcDbEntity
  8
lines
  6
CONTINUOUS
 62
  256
370
   -1
100
AcDbLine
 10
1777
 20
2489
 11
1777
 21
2487
  0
LINE
  5
1E3
100
AcDbEntity
  8
lines
  6
CONTINUOUS
 62
  256
370
   -1
100
AcDbLine
 10
1777
 20
2487
 11
1782
 21
2487
  0
LINE
  5
1E4
100
AcDbEntity
  8
lines
  6
CONTINUOUS
 62
  256
370
   -1
100
AcDbLine
 10
1782
 20
2487
 11
1782
 21
2481
  0
LINE
  5
1E5
100
AcDbEntity
  8
lines
  6
CONTINUOUS
 62
  256
370
   -1
100
AcDbLine
 10
1782
 20
2481
 11
1784
 21
2481
  0
LINE
  5
1E6
100
AcDbEntity
  8
lines
  6
CONTINUOUS
 62
  256
370
   -1
100
AcDbLine
 10
1784
 20
2481
 11
1784
 21
2473
  0
LINE
  5
1E7
100
AcDbEntity
  8
lines
  6
CONTINUOUS
 62
  256
370
   -1
100
AcDbLine
 10
1784
 20
2473
 11
1781
 21
2473
  0
LINE
  5
1E8
100
AcDbEntity
  8
lines
  6
CONTINUOUS
 62
  256
370
   -1
100
AcDbLine
 10
1781
 20
2473
 11
1781
 21
2467
  0
LINE
  5
1E9
100
AcDbEntity
  8
lines
  6
CONTINUOUS
 62
  256
370
   -1
100
AcDbLine
 10
1781
 20
2467
 11
1780
 21
2466
  0
LINE
  5
1EA
100
AcDbEntity
  8
lines
  6
CONTINUOUS
 62
  256
370
   -1
100
AcDbLine
 10
1780
 20
2466
 11
1772
 21
2466
  0
LINE
  5
1EB
100
AcDbEntity
  8
lines
  6
CONTINUOUS
 62
  256
370
   -1
100
AcDbLine
 10
1772
 20
2466
 11
1771
 21
2467
  0
LINE
  5
1EC
100
AcDbEntity
  8
lines
  6
CONTINUOUS
 62
  256
370
   -1
100
AcDbLine
 10
1771
 20
2467
 11
1771
 21
2472
  0
LINE
  5
1ED
100
AcDbEntity
  8
lines
  6
CONTINUOUS
 62
  256
370
   -1
100
AcDbLine
 10
1771
 20
2472
 11
1767
 21
2472
  0
LINE
  5
1EE
100
AcDbEntity
  8
lines
  6
CONTINUOUS
 62
  256
370
   -1
100
AcDbLine
 10
1767
 20
2472
 11
1766
 21
2473
  0
LINE
  5
1EF
100
AcDbEntity
  8
lines
  6
CONTINUOUS
 62
  256
370
   -1
100
AcDbLine
 10
1766
 20
2473
 11
1766
 21
2480
  0
LINE
  5
1F0
100
AcDbEntity
  8
lines
  6
CONTINUOUS
 62
  256
370
   -1
100
AcDbLine
 10
1766
 20
2480
 11
1743
 21
2480
  0
LINE
  5
1F1
100
AcDbEntity
  8
lines
  6
CONTINUOUS
 62
  256
370
   -1
100
AcDbLine
 10
1743
 20
2480
 11
1739
 21
2477
  0
LINE
  5
1F2
100
AcDbEntity
  8
lines
  6
CONTINUOUS
 62
  256
370
   -1
100
AcDbLine
 10
1739
 20
2477
 11
1736
 21
2477
  0
LINE
  5
1F3
100
AcDbEntity
  8
lines
  6
CONTINUOUS
 62
  256
370
   -1
100
AcDbLine
 10
1736
 20
2477
 11
1734
 21
2479
  0
LINE
  5
1F4
100
AcDbEntity
  8
lines
  6
CONTINUOUS
 62
  256
370
   -1
100
AcDbLine
 10
1734
 20
2479
 11
1734
 21
2481
  0
LINE
  5
1F5
100
AcDbEntity
  8
lines
  6
CONTINUOUS
 62
  256
370
   -1
100
AcDbLine
 10
1734
 20
2481
 11
1746
 21
2494
  0
LINE
  5
1F6
100
AcDbEntity
  8
lines
  6
CONTINUOUS
 62
  256
370
   -1
100
AcDbLine
 10
1746
 20
2494
 11
1746
 21
2499
  0
LINE
  5
1F7
100
AcDbEntity
  8
lines
  6
CONTINUOUS
 62
  256
370
   -1
100
AcDbLine
 10
1746
 20
2499
 11
1739
 21
2506
  0
LINE
  5
1F8
100
AcDbEntity
  8
lines
  6
CONTINUOUS
 62
  256
370
   -1
100
AcDbLine
 10
1739
 20
2506
 11
1742
 21
2509
  0
LINE
  5
1F9
100
AcDbEntity
  8
lines
  6
CONTINUOUS
 62
  256
370
   -1
100
AcDbLine
 10
1742
 20
2509
 11
1745
 21
2509
  0
LINE
  5
1FA
100
AcDbEntity
  8
lines
  6
CONTINUOUS
 62
  256
370
   -1
100
AcDbLine
 10
1745
 20
2509
 11
1751
 21
2502
  0
LINE
  5
1FB
100
AcDbEntity
  8
lines
  6
CONTINUOUS
 62
  256
370
   -1
100
AcDbLine
 10
1751
 20
2502
 11
1753
 21
2502
  0
LINE
  5
1FC
100
AcDbEntity
  8
lines
  6
CONTINUOUS
 62
  256
370
   -1
100
AcDbLine
 10
1753
 20
2502
 11
1765
 21
2515
  0
LINE
  5
1FD
100
AcDbEntity
  8
lines
  6
CONTINUOUS
 62
  256
370
   -1
100
AcDbLine
 10
1767
 20
2515
 11
1771
 21
2519
  0
LINE
  5
1FE
100
AcDbEntity
  8
lines
  6
CONTINUOUS
 62
  256
370
   -1
100
AcDbLine
 10
1771
 20
2519
 11
1768
 21
2524
  0
LINE
  5
1FF
100
AcDbEntity
  8
lines
  6
CONTINUOUS
 62
  256
370
   -1
100
AcDbLine
 10
1768
 20
2524
 11
1774
 21
2530
  0
LINE
  5
200
100
AcDbEntity
  8
lines
  6
CONTINUOUS
 62
  256
370
   -1
100
AcDbLine
 10
1774
 20
2530
 11
1781
 21
2530
  0
LINE
  5
201
100
AcDbEntity
  8
lines
  6
CONTINUOUS
 62
  256
370
   -1
100
AcDbLine
 10
1781
 20
2530
 11
1787
 21
2535
  0
LINE
  5
202
100
AcDbEntity
  8
lines
  6
CONTINUOUS
 62
  256
370
   -1
100
AcDbLine
 10
1787
 20
2535
 11
1787
 21
2538
  0
LINE
  5
203
100
AcDbEntity
  8
lines
  6
CONTINUOUS
 62
  256
370
   -1
100
AcDbLine
 10
1787
 20
2538
 11
1779
 21
2538
  0
LINE
  5
204
100
AcDbEntity
  8
lines
  6
CONTINUOUS
 62
  256
370
   -1
100
AcDbLine
 10
1779
 20
2538
 11
1781
 21
2541
  0
LINE
  5
205
100
AcDbEntity
  8
lines
  6
CONTINUOUS
 62
  256
370
   -1
100
AcDbLine
 10
1781
 20
2541
 11
1777
 21
2541
  0
LINE
  5
206
100
AcDbEntity
  8
lines
  6
CONTINUOUS
 62
  256
370
   -1
100
AcDbLine
 10
1777
 20
2541
 11
1777
 21
2543
  0
LINE
  5
207
100
AcDbEntity
  8
lines
  6
CONTINUOUS
 62
  256
370
   -1
100
AcDbLine
 10
1777
 20
2543
 11
1782
 21
2543
  0
LINE
  5
208
100
AcDbEntity
  8
lines
  6
CONTINUOUS
 62
  256
370
   -1
100
AcDbLine
 10
1782
 20
2543
 11
1782
 21
2549
  0
LINE
  5
209
100
AcDbEntity
  8
lines
  6
CONTINUOUS
 62
  256
370
   -1
100
AcDbLine
 10
1782
 20
2549
 11
1784
 21
2549
  0
LINE
  5
20A
100
AcDbEntity
  8
lines
  6
CONTINUOUS
 62
  256
370
   -1
100
AcDbLine
 10
1784
 20
2549
 11
1784
 21
2557
  0
LINE
  5
20B
100
AcDbEntity
  8
lines
  6
CONTINUOUS
 62
  256
370
   -1
100
AcDbLine
 10
1784
 20
2557
 11
1781
 21
2557
  0
LINE
  5
20C
100
AcDbEntity
  8
lines
  6
CONTINUOUS
 62
  256
370
   -1
100
AcDbLine
 10
1781
 20
2557
 11
1781
 21
2563
  0
LINE
  5
20D
100
AcDbEntity
  8
lines
  6
CONTINUOUS
 62
  256
370
   -1
100
AcDbLine
 10
1781
 20
2563
 11
1780
 21
2564
  0
LINE
  5
20E
100
AcDbEntity
  8
lines
  6
CONTINUOUS
 62
  256
370
   -1
100
AcDbLine
 10
1780
 20
2564
 11
1772
 21
2564
  0
LINE
  5
20F
100
AcDbEntity
  8
lines
  6
CONTINUOUS
 62
  256
370
   -1
100
AcDbLine
 10
1772
 20
2564
 11
1771
 21
2563
  0
LINE
  5
210
100
AcDbEntity
  8
lines
  6
CONTINUOUS
 62
  256
370
   -1
100
AcDbLine
 10
1771
 20
2563
 11
1771
 21
2558
  0
LINE
  5
211
100
AcDbEntity
  8
lines
  6
CONTINUOUS
 62
  256
370
   -1
100
AcDbLine
 10
1771
 20
2558
 11
1767
 21
2558
  0
LINE
  5
212
100
AcDbEntity
  8
lines
  6
CONTINUOUS
 62
  256
370
   -1
100
AcDbLine
 10
1767
 20
2558
 11
1766
 21
2557
  0
LINE
  5
213
100
AcDbEntity
  8
lines
  6
CONTINUOUS
 62
  256
370
   -1
100
AcDbLine
 10
1766
 20
2557
 11
1766
 21
2550
  0
LINE
  5
214
100
AcDbEntity
  8
lines
  6
CONTINUOUS
 62
  256
370
   -1
100
AcDbLine
 10
1766
 20
2550
 11
1743
 21
2550
  0
LINE
  5
215
100
AcDbEntity
  8
lines
  6
CONTINUOUS
 62
  256
370
   -1
100
AcDbLine
 10
1743
 20
2550
 11
1739
 21
2553
  0
LINE
  5
216
100
AcDbEntity
  8
lines
  6
CONTINUOUS
 62
  256
370
   -1
100
AcDbLine
 10
1739
 20
2553
 11
1736
 21
2553
  0
LINE
  5
217
100
AcDbEntity
  8
lines
  6
CONTINUOUS
 62
  256
370
   -1
100
AcDbLine
 10
1736
 20
2553
 11
1734
 21
2551
  0
LINE
  5
218
100
AcDbEntity
  8
lines
  6
CONTINUOUS
 62
  256
370
   -1
100
AcDbLine
 10
1734
 20
2551
 11
1734
 21
2549
  0
LINE
  5
219
100
AcDbEntity
  8
lines
  6
CONTINUOUS
 62
  256
370
   -1
100
AcDbLine
 10
1734
 20
2549
 11
1746
 21
2536
  0
LINE
  5
21A
100
AcDbEntity
  8
lines
  6
CONTINUOUS
 62
  256
370
   -1
100
AcDbLine
 10
1746
 20
2536
 11
1746
 21
2531
  0
LINE
  5
21B
100
AcDbEntity
  8
lines
  6
CONTINUOUS
 62
  256
370
   -1
100
AcDbLine
 10
1746
 20
2531
 11
1739
 21
2524
  0
LINE
  5
21C
100
AcDbEntity
  8
lines
  6
CONTINUOUS
 62
  256
370
   -1
100
AcDbLine
 10
1739
 20
2524
 11
1742
 21
2521
  0
LINE
  5
21D
100
AcDbEntity
  8
lines
  6
CONTINUOUS
 62
  256
370
   -1
100
AcDbLine
 10
1742
 20
2521
 11
1745
 21
2521
  0
LINE
  5
21E
100
AcDbEntity
  8
lines
  6
CONTINUOUS
 62
  256
370
   -1
100
AcDbLine
 10
1745
 20
2521
 11
1751
 21
2528
  0
LINE
  5
21F
100
AcDbEntity
  8
lines
  6
CONTINUOUS
 62
  256
370
   -1
100
AcDbLine
 10
1751
 20
2528
 11
1753
 21
2528
  0
LINE
  5
220
100
AcDbEntity
  8
lines
  6
CONTINUOUS
 62
  256
370
   -1
100
AcDbLine
 10
1753
 20
2528
 11
1765
 21
2515
  0
LINE
  5
221
100
AcDbEntity
  8
lines
  6
CONTINUOUS
 62
  256
370
   -1
100
AcDbLine
 10
1589
 20
2407
 11
1605
 21
2360
  0
LINE
  5
222
100
AcDbEntity
  8
lines
  6
CONTINUOUS
 62
  256
370
   -1
100
AcDbLine
 10
1605
 20
2360
 11
1605
 21
2290
  0
LINE
  5
223
100
AcDbEntity
  8
lines
  6
CONTINUOUS
 62
  256
370
   -1
100
AcDbLine
 10
1605
 20
2290
 11
1602
 21
2287
  0
LINE
  5
224
100
AcDbEntity
  8
lines
  6
CONTINUOUS
 62
  256
370
   -1
100
AcDbLine
 10
1602
 20
2287
 11
1512
 21
2287
  0
LINE
  5
225
100
AcDbEntity
  8
lines
  6
CONTINUOUS
 62
  256
370
   -1
100
AcDbLine
 10
1512
 20
2287
 11
1509
 21
2291
  0
LINE
  5
226
100
AcDbEntity
  8
lines
  6
CONTINUOUS
 62
  256
370
   -1
100
AcDbLine
 10
1509
 20
2291
 11
1509
 21
2360
  0
LINE
  5
227
100
AcDbEntity
  8
lines
  6
CONTINUOUS
 62
  256
370
   -1
100
AcDbLine
 10
1509
 20
2360
 11
1525
 21
2407
  0
LINE
  5
228
100
AcDbEntity
  8
lines
  6
CONTINUOUS
 62
  256
370
   -1
100
AcDbLine
 10
1525
 20
2407
 11
1528
 21
2407
  0
LINE
  5
229
100
AcDbEntity
  8
lines
  6
CONTINUOUS
 62
  256
370
   -1
100
AcDbLine
 10
1528
 20
2407
 11
1512
 21
2454
  0
LINE
  5
22A
100
AcDbEntity
  8
lines
  6
CONTINUOUS
 62
  256
370
   -1
100
AcDbLine
 10
1512
 20
2454
 11
1512
 21
2523
  0
LINE
  5
22B
100
AcDbEntity
  8
lines
  6
CONTINUOUS
 62
  256
370
   -1
100
AcDbLine
 10
1512
 20
2523
 11
1602
 21
2523
  0
LINE
  5
22C
100
AcDbEntity
  8
lines
  6
CONTINUOUS
 62
  256
370
   -1
100
AcDbLine
 10
1602
 20
2523
 11
1602
 21
2454
  0
LINE
  5
22D
100
AcDbEntity
  8
lines
  6
CONTINUOUS
 62
  256
370
   -1
100
AcDbLine
 10
1602
 20
2454
 11
1586
 21
2407
  0
LINE
  5
22E
100
AcDbEntity
  8
lines
  6
CONTINUOUS
 62
  256
370
   -1
100
AcDbLine
 10
1586
 20
2407
 11
1589
 21
2407
  0
LINE
  5
22F
100
AcDbEntity
  8
lines
  6
DOT
 62
  256
370
   -1
100
AcDbLine
 10
1528
 20
2407
 11
1586
 21
2407
  0
LINE
  5
230
100
AcDbEntity
  8
lines
  6
CONTINUOUS
 62
  256
370
   -1
100
AcDbLine
 10
1333
 20
2144
 11
1452
 21
2116
  0
LINE
  5
231
100
AcDbEntity
  8
lines
  6
CONTINUOUS
 62
  256
370
   -1
100
AcDbLine
 10
1452
 20
2116
 11
1459
 21
2116
  0
LINE
  5
232
100
AcDbEntity
  8
lines
  6
CONTINUOUS
 62
  256
370
   -1
100
AcDbLine
 10
1459
 20
2116
 11
1480
 21
2137
  0
LINE
  5
233
100
AcDbEntity
  8
lines
  6
CONTINUOUS
 62
  256
370
   -1
100
AcDbLine
 10
1480
 20
2137
 11
1480
 21
2146
  0
LINE
  5
234
100
AcDbEntity
  8
lines
  6
CONTINUOUS
 62
  256
370
   -1
100
AcDbLine
 10
1480
 20
2146
 11
1478
 21
2147
  0
ARC
  5
235
100
AcDbEntity
  8
lines
  6
CONTINUOUS
 62
  256
370
   -1
100
AcDbCircle
 10
1436.5
 20
2219.166666666667
 40
83.24828993905987
100
AcDbArc
 50
257.1601433406049
 51
299.9013878792913
  0
LINE
  5
236
100
AcDbEntity
  8
lines
  6
CONTINUOUS
 62
  256
370
   -1
100
AcDbLine
 10
1418
 20
2138
 11
1362
 21
2153
  0
LINE
  5
237
100
AcDbEntity
  8
lines
  6
CONTINUOUS
 62
  256
370
   -1
100
AcDbLine
 10
1362
 20
2153
 11
1359
 21
2180
  0
LINE
  5
238
100
AcDbEntity
  8
lines
  6
DASHED
 62
  256
370
   -1
100
AcDbLine
 10
1333
 20
2144
 11
1333
 21
2277
  0
LINE
  5
239
100
AcDbEntity
  8
lines
  6
CONTINUOUS
 62
  256
370
   -1
100
AcDbLine
 10
1447
 20
2346
 11
1469
 21
2346
  0
LINE
  5
23A
100
AcDbEntity
  8
lines
  6
CONTINUOUS
 62
  256
370
   -1
100
AcDbLine
 10
1469
 20
2346
 11
1469
 21
2432
  0
LINE
  5
23B
100
AcDbEntity
  8
lines
  6
CONTINUOUS
 62
  256
370
   -1
100
AcDbLine
 10
1469
 20
2432
 11
1461
 21
2432
  0
LINE
  5
23C
100
AcDbEntity
  8
lines
  6
CONTINUOUS
 62
  256
370
   -1
100
AcDbLine
 10
1447
 20
2606
 11
1469
 21
2606
  0
LINE
  5
23D
100
AcDbEntity
  8
lines
  6
CONTINUOUS
 62
  256
370
   -1
100
AcDbLine
 10
1469
 20
2606
 11
1469
 21
2522
  0
LINE
  5
23E
100
AcDbEntity
  8
lines
  6
CONTINUOUS
 62
  256
370
   -1
100
AcDbLine
 10
1469
 20
2522
 11
1461
 21
2522
  0
LINE
  5
23F
100
AcDbEntity
  8
lines
  6
CONTINUOUS
 62
  256
370
   -1
100
AcDbLine
 10
1461
 20
2522
 11
1461
 21
2432
  0
LINE
  5
240
100
AcDbEntity
  8
lines
  6
CONTINUOUS
 62
  256
370
   -1
100
AcDbLine
 10
1447
 20
2346
 11
1425
 21
2346
  0
LINE
  5
241
100
AcDbEntity
  8
lines
  6
CONTINUOUS
 62
  256
370
   -1
100
AcDbLine
 10
1425
 20
2346
 11
1425
 21
2432
  0
LINE
  5
242
100
AcDbEntity
  8
lines
  6
CONTINUOUS
 62
  256
370
   -1
100
AcDbLine
 10
1425
 20
2432
 11
1433
 21
2432
  0
LINE
  5
243
100
AcDbEntity
  8
lines
  6
CONTINUOUS
 62
  256
370
   -1
100
AcDbLine
 10
1447
 20
2606
 11
1425
 21
2606
  0
LINE
  5
244
100
AcDbEntity
  8
lines
  6
CONTINUOUS
 62
  256
370
   -1
100
AcDbLine
 10
1425
 20
2606
 11
1425
 21
2522
  0
LINE
  5
245
100
AcDbEntity
  8
lines
  6
CONTINUOUS
 62
  256
370
   -1
100
AcDbLine
 10
1425
 20
2522
 11
1433
 21
2522
  0
LINE
  5
246
100
AcDbEntity
  8
lines
  6
CONTINUOUS
 62
  256
370
   -1
100
AcDbLine
 10
1433
 20
2522
 11
1433
 21
2432
  0
LINE
  5
247
100
AcDbEntity
  8
lines
  6
DASHED
 62
  256
370
   -1
100
AcDbLine
 10
1447
 20
2346
 11
1447
 21
2606
  0
LINE
  5
248
100
AcDbEntity
  8
lines
  6
CONTINUOUS
 62
  256
370
   -1
100
AcDbLine
 10
1333
 20
2277
 11
1452
 21
2306
  0
LINE
  5
249
100
AcDbEntity
  8
lines
  6
CONTINUOUS
 62
  256
370
   -1
100
AcDbLine
 10
1452
 20
2306
 11
1459
 21
2306
  0
LINE
  5
24A
100
AcDbEntity
  8
lines
  6
CONTINUOUS
 62
  256
370
   -1
100
AcDbLine
 10
1459
 20
2306
 11
1480
 21
2285
  0
LINE
  5
24B
100
AcDbEntity
  8
lines
  6
CONTINUOUS
 62
  256
370
   -1
100
AcDbLine
 10
1480
 20
2285
 11
1480
 21
2276
  0
LINE
  5
24C
100
AcDbEntity
  8
lines
  6
CONTINUOUS
 62
  256
370
   -1
100
AcDbLine
 10
1480
 20
2276
 11
1478
 21
2275
  0
ARC
  5
24D
100
AcDbEntity
  8
lines
  6
CONTINUOUS
 62
  256
370
   -1
100
AcDbCircle
 10
1436.5
 20
2202.833333333333
 40
83.24828993905987
100
AcDbArc
 50
60.09861212070865
 51
102.8398566593951
  0
LINE
  5
24E
100
AcDbEntity
  8
lines
  6
CONTINUOUS
 62
  256
370
   -1
100
AcDbLine
 10
1418
 20
2284
 11
1362
 21
2269
  0
LINE
  5
24F
100
AcDbEntity
  8
lines
  6
CONTINUOUS
 62
  256
370
   -1
100
AcDbLine
 10
1362
 20
2269
 11
1359
 21
2242
  0
LINE
  5
250
100
AcDbEntity
  8
lines
  6
CONTINUOUS
 62
  256
370
   -1
100
AcDbLine
 10
1359
 20
2242
 11
1358
 21
2210
  0
LINE
  5
251
100
AcDbEntity
  8
lines
  6
CONTINUOUS
 62
  256
370
   -1
100
AcDbLine
 10
1358
 20
2210
 11
1359
 21
2180
  0
LINE
  5
252
100
AcDbEntity
  8
lines
  6
CONTINUOUS
 62
  256
370
   -1
100
AcDbLine
 10
1333
 20
2144
 11
1214
 21
2116
  0
LINE
  5
253
100
AcDbEntity
  8
lines
  6
CONTINUOUS
 62
  256
370
   -1
100
AcDbLine
 10
1214
 20
2116
 11
1207
 21
2116
  0
LINE
  5
254
100
AcDbEntity
  8
lines
  6
CONTINUOUS
 62
  256
370
   -1
100
AcDbLine
 10
1207
 20
2116
 11
1186
 21
2137
  0
LINE
  5
255
100
AcDbEntity
  8
lines
  6
CONTINUOUS
 62
  256
370
   -1
100
AcDbLine
 10
1186
 20
2137
 11
1186
 21
2146
  0
LINE
  5
256
100
AcDbEntity
  8
lines
  6
CONTINUOUS
 62
  256
370
   -1
100
AcDbLine
 10
1186
 20
2146
 11
1188
 21
2147
  0
ARC
  5
257
100
AcDbEntity
  8
lines
  6
CONTINUOUS
 62
  256
370
   -1
100
AcDbCircle
 10
1229.5
 20
2219.166666666667
 40
83.24828993905987
100
AcDbArc
 50
240.0986121207087
 51
282.8398566593951
  0
LINE
  5
258
100
AcDbEntity
  8
lines
  6
CONTINUOUS
 62
  256
370
   -1
100
AcDbLine
 10
1248
 20
2138
 11
1304
 21
2153
  0
LINE
  5
259
100
AcDbEntity
  8
lines
  6
CONTINUOUS
 62
  256
370
   -1
100
AcDbLine
 10
1304
 20
2153
 11
1307
 21
2180
  0
LINE
  5
25A
100
AcDbEntity
  8
lines
  6
CONTINUOUS
 62
  256
370
   -1
100
AcDbLine
 10
1333
 20
2277
 11
1214
 21
2306
  0
LINE
  5
25B
100
AcDbEntity
  8
lines
  6
CONTINUOUS
 62
  256
370
   -1
100
AcDbLine
 10
1214
 20
2306
 11
1207
 21
2306
  0
LINE
  5
25C
100
AcDbEntity
  8
lines
  6
CONTINUOUS
 62
  256
370
   -1
100
AcDbLine
 10
1207
 20
2306
 11
1186
 21
2285
  0
LINE
  5
25D
100
AcDbEntity
  8
lines
  6
CONTINUOUS
 62
  256
370
   -1
100
AcDbLine
 10
1186
 20
2285
 11
1186
 21
2276
  0
LINE
  5
25E
100
AcDbEntity
  8
lines
  6
CONTINUOUS
 62
  256
370
   -1
100
AcDbLine
 10
1186
 20
2276
 11
1188
 21
2275
  0
ARC
  5
25F
100
AcDbEntity
  8
lines
  6
CONTINUOUS
 62
  256
370
   -1
100
AcDbCircle
 10
1229.5
 20
2202.833333333333
 40
83.24828993905987
100
AcDbArc
 50
77.1601433406049
 51
119.9013878792913
  0
LINE
  5
260
100
AcDbEntity
  8
lines
  6
CONTINUOUS
 62
  256
370
   -1
100
AcDbLine
 10
1248
 20
2284
 11
1304
 21
2269
  0
LINE
  5
261
100
AcDbEntity
  8
lines
  6
CONTINUOUS
 62
  256
370
   -1
100
AcDbLine
 10
1304
 20
2269
 11
1307
 21
2242
  0
LINE
  5
262
100
AcDbEntity
  8
lines
  6
CONTINUOUS
 62
  256
370
   -1
100
AcDbLine
 10
1307
 20
2242
 11
1308
 21
2210
  0
LINE
  5
263
100
AcDbEntity
  8
lines
  6
CONTINUOUS
 62
  256
370
   -1
100
AcDbLine
 10
1308
 20
2210
 11
1307
 21
2180
  0
ARC
  5
264
100
AcDbEntity
  8
lines
  6
CONTINUOUS
 62
  256
370
   -1
100
AcDbCircle
 10
1306.125
 20
2354.3125
 40
7.8573711411642
100
AcDbArc
 50
121.6672164294362
 51
291.4628859247198
  0
LINE
  5
265
100
AcDbEntity
  8
lines
  6
CONTINUOUS
 62
  256
370
   -1
100
AcDbLine
 10
1309
 20
2347
 11
1324
 21
2355
  0
LINE
  5
266
100
AcDbEntity
  8
lines
  6
CONTINUOUS
 62
  256
370
   -1
100
AcDbLine
 10
1302
 20
2361
 11
1307
 21
2364
  0
LINE
  5
267
100
AcDbEntity
  8
lines
  6
CONTINUOUS
 62
  256
370
   -1
100
AcDbLine
 10
1307
 20
2364
 11
1303
 21
2378
  0
LINE
  5
268
100
AcDbEntity
  8
lines
  6
CONTINUOUS
 62
  256
370
   -1
100
AcDbLine
 10
1303
 20
2378
 11
1301
 21
2392
  0
LINE
  5
269
100
AcDbEntity
  8
lines
  6
CONTINUOUS
 62
  256
370
   -1
100
AcDbLine
 10
1301
 20
2392
 11
1293
 21
2458
  0
LINE
  5
26A
100
AcDbEntity
  8
lines
  6
CONTINUOUS
 62
  256
370
   -1
100
AcDbLine
 10
1293
 20
2458
 11
1257
 21
2458
  0
LINE
  5
26B
100
AcDbEntity
  8
lines
  6
CONTINUOUS
 62
  256
370
   -1
100
AcDbLine
 10
1257
 20
2458
 11
1255
 21
2460
  0
LINE
  5
26C
100
AcDbEntity
  8
lines
  6
CONTINUOUS
 62
  256
370
   -1
100
AcDbLine
 10
1318
 20
2369
 11
1317
 21
2370
  0
LINE
  5
26D
100
AcDbEntity
  8
lines
  6
CONTINUOUS
 62
  256
370
   -1
100
AcDbLine
 10
1317
 20
2370
 11
1316
 21
2387
  0
LINE
  5
26E
100
AcDbEntity
  8
lines
  6
CONTINUOUS
 62
  256
370
   -1
100
AcDbLine
 10
1316
 20
2387
 11
1315
 21
2467
  0
LINE
  5
26F
100
AcDbEntity
  8
lines
  6
CONTINUOUS
 62
  256
370
   -1
100
AcDbLine
 10
1328
 20
2467
 11
1315
 21
2467
  0
ARC
  5
270
100
AcDbEntity
  8
lines
  6
CONTINUOUS
 62
  256
370
   -1
100
AcDbCircle
 10
1306.125
 20
2598.6875
 40
7.8573711411642
100
AcDbArc
 50
68.53711407528021
 51
238.3327835705639
  0
LINE
  5
271
100
AcDbEntity
  8
lines
  6
CONTINUOUS
 62
  256
370
   -1
100
AcDbLine
 10
1309
 20
2606
 11
1324
 21
2598
  0
LINE
  5
272
100
AcDbEntity
  8
lines
  6
CONTINUOUS
 62
  256
370
   -1
100
AcDbLine
 10
1302
 20
2592
 11
1307
 21
2589
  0
LINE
  5
273
100
AcDbEntity
  8
lines
  6
CONTINUOUS
 62
  256
370
   -1
100
AcDbLine
 10
1307
 20
2589
 11
1303
 21
2575
  0
LINE
  5
274
100
AcDbEntity
  8
lines
  6
CONTINUOUS
 62
  256
370
   -1
100
AcDbLine
 10
1303
 20
2575
 11
1301
 21
2561
  0
LINE
  5
275
100
AcDbEntity
  8
lines
  6
CONTINUOUS
 62
  256
370
   -1
100
AcDbLine
 10
1301
 20
2561
 11
1293
 21
2495
  0
LINE
  5
276
100
AcDbEntity
  8
lines
  6
CONTINUOUS
 62
  256
370
   -1
100
AcDbLine
 10
1293
 20
2495
 11
1257
 21
2495
  0
LINE
  5
277
100
AcDbEntity
  8
lines
  6
CONTINUOUS
 62
  256
370
   -1
100
AcDbLine
 10
1257
 20
2495
 11
1255
 21
2493
  0
LINE
  5
278
100
AcDbEntity
  8
lines
  6
CONTINUOUS
 62
  256
370
   -1
100
AcDbLine
 10
1318
 20
2584
 11
1317
 21
2583
  0
LINE
  5
279
100
AcDbEntity
  8
lines
  6
CONTINUOUS
 62
  256
370
   -1
100
AcDbLine
 10
1317
 20
2583
 11
1316
 21
2566
  0
LINE
  5
27A
100
AcDbEntity
  8
lines
  6
CONTINUOUS
 62
  256
370
   -1
100
AcDbLine
 10
1316
 20
2566
 11
1315
 21
2486
  0
LINE
  5
27B
100
AcDbEntity
  8
lines
  6
CONTINUOUS
 62
  256
370
   -1
100
AcDbLine
 10
1328
 20
2486
 11
1315
 21
2486
  0
LINE
  5
27C
100
AcDbEntity
  8
lines
  6
CONTINUOUS
 62
  256
370
   -1
100
AcDbLine
 10
1255
 20
2493
 11
1255
 21
2460
  0
LINE
  5
27D
100
AcDbEntity
  8
lines
  6
DOT
 62
  256
370
   -1
100
AcDbLine
 10
1328
 20
2486
 11
1328
 21
2467
  0
ARC
  5
27E
100
AcDbEntity
  8
lines
  6
CONTINUOUS
 62
  256
370
   -1
100
AcDbCircle
 10
1349.875
 20
2354.3125
 40
7.8573711411642
100
AcDbArc
 50
248.5371140752802
 51
58.33278357056383
  0
LINE
  5
27F
100
AcDbEntity
  8
lines
  6
CONTINUOUS
 62
  256
370
   -1
100
AcDbLine
 10
1347
 20
2347
 11
1332
 21
2355
  0
LINE
  5
280
100
AcDbEntity
  8
lines
  6
CONTINUOUS
 62
  256
370
   -1
100
AcDbLine
 10
1354
 20
2361
 11
1349
 21
2364
  0
LINE
  5
281
100
AcDbEntity
  8
lines
  6
CONTINUOUS
 62
  256
370
   -1
100
AcDbLine
 10
1349
 20
2364
 11
1353
 21
2378
  0
LINE
  5
282
100
AcDbEntity
  8
lines
  6
CONTINUOUS
 62
  256
370
   -1
100
AcDbLine
 10
1353
 20
2378
 11
1355
 21
2392
  0
LINE
  5
283
100
AcDbEntity
  8
lines
  6
CONTINUOUS
 62
  256
370
   -1
100
AcDbLine
 10
1355
 20
2392
 11
1363
 21
2458
  0
LINE
  5
284
100
AcDbEntity
  8
lines
  6
CONTINUOUS
 62
  256
370
   -1
100
AcDbLine
 10
1363
 20
2458
 11
1399
 21
2458
  0
LINE
  5
285
100
AcDbEntity
  8
lines
  6
CONTINUOUS
 62
  256
370
   -1
100
AcDbLine
 10
1399
 20
2458
 11
1401
 21
2460
  0
LINE
  5
286
100
AcDbEntity
  8
lines
  6
CONTINUOUS
 62
  256
370
   -1
100
AcDbLine
 10
1338
 20
2369
 11
1339
 21
2370
  0
LINE
  5
287
100
AcDbEntity
  8
lines
  6
CONTINUOUS
 62
  256
370
   -1
100
AcDbLine
 10
1339
 20
2370
 11
1340
 21
2387
  0
LINE
  5
288
100
AcDbEntity
  8
lines
  6
CONTINUOUS
 62
  256
370
   -1
100
AcDbLine
 10
1340
 20
2387
 11
1341
 21
2467
  0
LINE
  5
289
100
AcDbEntity
  8
lines
  6
CONTINUOUS
 62
  256
370
   -1
100
AcDbLine
 10
1328
 20
2467
 11
1341
 21
2467
  0
ARC
  5
28A
100
AcDbEntity
  8
lines
  6
CONTINUOUS
 62
  256
370
   -1
100
AcDbCircle
 10
1349.875
 20
2598.6875
 40
7.8573711411642
100
AcDbArc
 50
301.6672164294362
 51
111.4628859247198
  0
LINE
  5
28B
100
AcDbEntity
  8
lines
  6
CONTINUOUS
 62
  256
370
   -1
100
AcDbLine
 10
1347
 20
2606
 11
1332
 21
2598
  0
LINE
  5
28C
100
AcDbEntity
  8
lines
  6
CONTINUOUS
 62
  256
370
   -1
100
AcDbLine
 10
1354
 20
2592
 11
1349
 21
2589
  0
LINE
  5
28D
100
AcDbEntity
  8
lines
  6
CONTINUOUS
 62
  256
370
   -1
100
AcDbLine
 10
1349
 20
2589
 11
1353
 21
2575
  0
LINE
  5
28E
100
AcDbEntity
  8
lines
  6
CONTINUOUS
 62
  256
370
   -1
100
AcDbLine
 10
1353
 20
2575
 11
1355
 21
2561
  0
LINE
  5
28F
100
AcDbEntity
  8
lines
  6
CONTINUOUS
 62
  256
370
   -1
100
AcDbLine
 10
1355
 20
2561
 11
1363
 21
2495
  0
LINE
  5
290
100
AcDbEntity
  8
lines
  6
CONTINUOUS
 62
  256
370
   -1
100
AcDbLine
 10
1363
 20
2495
 11
1399
 21
2495
  0
LINE
  5
291
100
AcDbEntity
  8
lines
  6
CONTINUOUS
 62
  256
370
   -1
100
AcDbLine
 10
1399
 20
2495
 11
1401
 21
2493
  0
LINE
  5
292
100
AcDbEntity
  8
lines
  6
CONTINUOUS
 62
  256
370
   -1
100
AcDbLine
 10
1338
 20
2584
 11
1339
 21
2583
  0
LINE
  5
293
100
AcDbEntity
  8
lines
  6
CONTINUOUS
 62
  256
370
   -1
100
AcDbLine
 10
1339
 20
2583
 11
1340
 21
2566
  0
LINE
  5
294
100
AcDbEntity
  8
lines
  6
CONTINUOUS
 62
  256
370
   -1
100
AcDbLine
 10
1340
 20
2566
 11
1341
 21
2486
  0
LINE
  5
295
100
AcDbEntity
  8
lines
  6
CONTINUOUS
 62
  256
370
   -1
100
AcDbLine
 10
1328
 20
2486
 11
1341
 21
2486
  0
LINE
  5
296
100
AcDbEntity
  8
lines
  6
CONTINUOUS
 62
  256
370
   -1
100
AcDbLine
 10
1401
 20
2493
 11
1401
 21
2460
  0
LINE
  5
297
100
AcDbEntity
  8
lines
  6
DOT
 62
  256
370
   -1
100
AcDbLine
 10
1328
 20
2486
 11
1328
 21
2467
  0
LINE
  5
298
100
AcDbEntity
  8
lines
  6
DOT
 62
  256
370
   -1
100
AcDbLine
 10
1328
 20
2359.727272727273
 11
1328
 21
2364
  0
LINE
  5
299
100
AcDbEntity
  8
lines
  6
DOT
 62
  256
370
   -1
100
AcDbLine
 10
1328
 20
2589
 11
1328
 21
2593.272727272727
  0
ARC
  5
29A
100
AcDbEntity
  8
lines
  6
CONTINUOUS
 62
  256
370
   -1
100
AcDbCircle
 10
1321
 20
2590.5
 40
7.158910531638301
100
AcDbArc
 50
245.2248594311681
 51
347.9052429229844
  0
ARC
  5
29B
100
AcDbEntity
  8
lines
  6
CONTINUOUS
 62
  256
370
   -1
100
AcDbCircle
 10
1321.5
 20
2363.5
 40
6.519202405202649
100
AcDbArc
 50
4.398705354995524
 51
122.4711922908485
  0
ARC
  5
29C
100
AcDbEntity
  8
lines
  6
CONTINUOUS
 62
  256
370
   -1
100
AcDbCircle
 10
1322.785714285714
 20
2360.071428571428
 40
5.214774928126851
100
AcDbArc
 50
283.4652080948127
 51
359.2151753970096
  0
ARC
  5
29D
100
AcDbEntity
  8
lines
  6
CONTINUOUS
 62
  256
370
   -1
100
AcDbCircle
 10
1322.7
 20
2592.8
 40
5.360037313302959
100
AcDbArc
 50
351.4163785198841
 51
75.96375653207353
  0
ARC
  5
29E
100
AcDbEntity
  8
lines
  6
CONTINUOUS
 62
  256
370
   -1
100
AcDbCircle
 10
1333.3
 20
2592.8
 40
5.36003731330296
100
AcDbArc
 50
104.0362434679265
 51
188.5836214801159
  0
ARC
  5
29F
100
AcDbEntity
  8
lines
  6
CONTINUOUS
 62
  256
370
   -1
100
AcDbCircle
 10
1334.5
 20
2589.500000000077
 40
6.519202405268062
100
AcDbArc
 50
184.3987053624672
 51
302.4711922904837
  0
ARC
  5
2A0
100
AcDbEntity
  8
lines
  6
CONTINUOUS
 62
  256
370
   -1
100
AcDbCircle
 10
1333.214285714286
 20
2360.071428571428
 40
5.214774928126851
100
AcDbArc
 50
180.7848246029904
 51
256.5347919051873
  0
ARC
  5
2A1
100
AcDbEntity
  8
lines
  6
CONTINUOUS
 62
  256
370
   -1
100
AcDbCircle
 10
1334.5
 20
2363.500000000552
 40
6.519202404737355
100
AcDbArc
 50
57.52880770654875
 51
175.601294698167
  0
LINE
  5
2A2
100
AcDbEntity
  8
lines
  6
CONTINUOUS
 62
  256
370
   -1
100
AcDbLine
 10
1220
 20
2411
 11
1234
 21
2411
  0
LINE
  5
2A3
100
AcDbEntity
  8
lines
  6
CONTINUOUS
 62
  256
370
   -1
100
AcDbLine
 10
1234
 20
2411
 11
1234
 21
2424
  0
LINE
  5
2A4
100
AcDbEntity
  8
lines
  6
CONTINUOUS
 62
  256
370
   -1
100
AcDbLine
 10
1234
 20
2424
 11
1266
 21
2424
  0
LINE
  5
2A5
100
AcDbEntity
  8
lines
  6
CONTINUOUS
 62
  256
370
   -1
100
AcDbLine
 10
1266
 20
2424
 11
1266
 21
2411
  0
LINE
  5
2A6
100
AcDbEntity
  8
lines
  6
CONTINUOUS
 62
  256
370
   -1
100
AcDbLine
 10
1266
 20
2411
 11
1279
 21
2411
  0
LINE
  5
2A7
100
AcDbEntity
  8
lines
  6
CONTINUOUS
 62
  256
370
   -1
100
AcDbLine
 10
1279
 20
2411
 11
1279
 21
2383
  0
LINE
  5
2A8
100
AcDbEntity
  8
lines
  6
CONTINUOUS
 62
  256
370
   -1
100
AcDbLine
 10
1279
 20
2383
 11
1266
 21
2383
  0
LINE
  5
2A9
100
AcDbEntity
  8
lines
  6
CONTINUOUS
 62
  256
370
   -1
100
AcDbLine
 10
1266
 20
2383
 11
1266
 21
2370
  0
LINE
  5
2AA
100
AcDbEntity
  8
lines
  6
CONTINUOUS
 62
  256
370
   -1
100
AcDbLine
 10
1266
 20
2370
 11
1234
 21
2370
  0
LINE
  5
2AB
100
AcDbEntity
  8
lines
  6
CONTINUOUS
 62
  256
370
   -1
100
AcDbLine
 10
1234
 20
2370
 11
1234
 21
2383
  0
LINE
  5
2AC
100
AcDbEntity
  8
lines
  6
CONTINUOUS
 62
  256
370
   -1
100
AcDbLine
 10
1234
 20
2383
 11
1220
 21
2383
  0
LINE
  5
2AD
100
AcDbEntity
  8
lines
  6
CONTINUOUS
 62
  256
370
   -1
100
AcDbLine
 10
1220
 20
2383
 11
1220
 21
2411
  0
LINE
  5
2AE
100
AcDbEntity
  8
lines
  6
DOT
 62
  256
370
   -1
100
AcDbLine
 10
1234
 20
2411
 11
1266
 21
2411
  0
LINE
  5
2AF
100
AcDbEntity
  8
lines
  6
DOT
 62
  256
370
   -1
100
AcDbLine
 10
1266
 20
2411
 11
1266
 21
2383
  0
LINE
  5
2B0
100
AcDbEntity
  8
lines
  6
DOT
 62
  256
370
   -1
100
AcDbLine
 10
1266
 20
2383
 11
1234
 21
2383
  0
LINE
  5
2B1
100
AcDbEntity
  8
lines
  6
DOT
 62
  256
370
   -1
100
AcDbLine
 10
1234
 20
2383
 11
1234
 21
2411
  0
LINE
  5
2B2
100
AcDbEntity
  8
lines
  6
CONTINUOUS
 62
  256
370
   -1
100
AcDbLine
 10
1206
 20
2493
 11
1170
 21
2493
  0
LINE
  5
2B3
100
AcDbEntity
  8
lines
  6
CONTINUOUS
 62
  256
370
   -1
100
AcDbLine
 10
1170
 20
2493
 11
1168
 21
2491
  0
LINE
  5
2B4
100
AcDbEntity
  8
lines
  6
CONTINUOUS
 62
  256
370
   -1
100
AcDbLine
 10
1206
 20
2460
 11
1170
 21
2460
  0
LINE
  5
2B5
100
AcDbEntity
  8
lines
  6
CONTINUOUS
 62
  256
370
   -1
100
AcDbLine
 10
1170
 20
2460
 11
1168
 21
2462
  0
LINE
  5
2B6
100
AcDbEntity
  8
lines
  6
CONTINUOUS
 62
  256
370
   -1
100
AcDbLine
 10
1168
 20
2491
 11
1168
 21
2462
  0
LINE
  5
2B7
100
AcDbEntity
  8
lines
  6
CONTINUOUS
 62
  256
370
   -1
100
AcDbLine
 10
1206
 20
2493
 11
1208
 21
2491
  0
LINE
  5
2B8
100
AcDbEntity
  8
lines
  6
CONTINUOUS
 62
  256
370
   -1
100
AcDbLine
 10
1208
 20
2491
 11
1208
 21
2483
  0
LINE
  5
2B9
100
AcDbEntity
  8
lines
  6
CONTINUOUS
 62
  256
370
   -1
100
AcDbLine
 10
1208
 20
2483
 11
1230
 21
2483
  0
LINE
  5
2BA
100
AcDbEntity
  8
lines
  6
CONTINUOUS
 62
  256
370
   -1
100
AcDbLine
 10
1230
 20
2483
 11
1231
 21
2482
  0
LINE
  5
2BB
100
AcDbEntity
  8
lines
  6
CONTINUOUS
 62
  256
370
   -1
100
AcDbLine
 10
1231
 20
2482
 11
1231
 21
2470
  0
LINE
  5
2BC
100
AcDbEntity
  8
lines
  6
CONTINUOUS
 62
  256
370
   -1
100
AcDbLine
 10
1231
 20
2470
 11
1230
 21
2469
  0
LINE
  5
2BD
100
AcDbEntity
  8
lines
  6
CONTINUOUS
 62
  256
370
   -1
100
AcDbLine
 10
1230
 20
2469
 11
1208
 21
2469
  0
LINE
  5
2BE
100
AcDbEntity
  8
lines
  6
CONTINUOUS
 62
  256
370
   -1
100
AcDbLine
 10
1208
 20
2469
 11
1208
 21
2462
  0
LINE
  5
2BF
100
AcDbEntity
  8
lines
  6
CONTINUOUS
 62
  256
370
   -1
100
AcDbLine
 10
1208
 20
2462
 11
1206
 21
2460
  0
ARC
  5
2C0
100
AcDbEntity
  8
lines
  6
CONTINUOUS
 62
  256
370
   -1
100
AcDbCircle
 10
1185.125
 20
2427.3125
 40
7.8573711411642
100
AcDbArc
 50
121.6672164294362
 51
291.4628859247198
  0
LINE
  5
2C1
100
AcDbEntity
  8
lines
  6
CONTINUOUS
 62
  256
370
   -1
100
AcDbLine
 10
1188
 20
2420
 11
1203
 21
2428
  0
LINE
  5
2C2
100
AcDbEntity
  8
lines
  6
CONTINUOUS
 62
  256
370
   -1
100
AcDbLine
 10
1181
 20
2434
 11
1197
 21
2442
  0
ARC
  5
2C3
100
AcDbEntity
  8
lines
  6
CONTINUOUS
 62
  256
370
   -1
100
AcDbCircle
 10
1199.611111111111
 20
2434.833333333333
 40
7.627516787636655
100
AcDbArc
 50
296.3784206335121
 51
110.0187603937842
  0
ARC
  5
2C4
100
AcDbEntity
  8
lines
  6
CONTINUOUS
 62
  256
370
   -1
100
AcDbCircle
 10
1183.125
 20
2527.6875
 40
7.8573711411642
100
AcDbArc
 50
68.53711407528021
 51
238.3327835705639
  0
LINE
  5
2C5
100
AcDbEntity
  8
lines
  6
CONTINUOUS
 62
  256
370
   -1
100
AcDbLine
 10
1186
 20
2535
 11
1201
 21
2527
  0
LINE
  5
2C6
100
AcDbEntity
  8
lines
  6
CONTINUOUS
 62
  256
370
   -1
100
AcDbLine
 10
1179
 20
2521
 11
1195
 21
2513
  0
ARC
  5
2C7
100
AcDbEntity
  8
lines
  6
CONTINUOUS
 62
  256
370
   -1
100
AcDbCircle
 10
1197.611111111111
 20
2520.166666666667
 40
7.627516787636655
100
AcDbArc
 50
249.9812396062158
 51
63.62157936648791
  0
ARC
  5
2C8
100
AcDbEntity
  8
lines
  6
CONTINUOUS
 62
  256
370
   -1
100
AcDbCircle
 10
1183.125
 20
2502.3125
 40
7.8573711411642
100
AcDbArc
 50
121.6672164294362
 51
291.4628859247198
  0
LINE
  5
2C9
100
AcDbEntity
  8
lines
  6
CONTINUOUS
 62
  256
370
   -1
100
AcDbLine
 10
1186
 20
2495
 11
1201
 21
2503
  0
LINE
  5
2CA
100
AcDbEntity
  8
lines
  6
CONTINUOUS
 62
  256
370
   -1
100
AcDbLine
 10
1179
 20
2509
 11
1195
 21
2517
  0
ARC
  5
2CB
100
AcDbEntity
  8
lines
  6
CONTINUOUS
 62
  256
370
   -1
100
AcDbCircle
 10
1197.611111111111
 20
2509.833333333333
 40
7.627516787636655
100
AcDbArc
 50
296.3784206335121
 51
110.0187603937842
  0
LWPOLYLINE
  5
2CC
100
AcDbEntity
  8
lines
  6
ByLayer
 62
  256
370
   -1
100
AcDbPolyline
 90
    8
 70
    1
 43
0
 10
1750
 20
2606
 10
1780
 20
2606
 42
0.414213562373095
 10
1785
 20
2611
 10
1785
 20
2666
 42
0.414213562373095
 10
1780
 20
2671
 10
1750
 20
2671
 42
0.414213562373095
 10
1745
 20
2666
 10
1745
 20
2611
 42
0.414213562373095
  0
ARC
  5
2CD
100
AcDbEntity
  8
lines
  6
CONTINUOUS
 62
  256
370
   -1
100
AcDbCircle
 10
1536.5
 20
2584
 40
10.30776406404415
100
AcDbArc
 50
104.0362434679265
 51
157.1663458220825
  0
ARC
  5
2CE
100
AcDbEntity
  8
lines
  6
CONTINUOUS
 62
  256
370
   -1
100
AcDbCircle
 10
1558.25
 20
2568.25
 40
37.29108472544075
100
AcDbArc
 50
156.7005367393175
 51
177.3102296768496
  0
LINE
  5
2CF
100
AcDbEntity
  8
lines
  6
CONTINUOUS
 62
  256
370
   -1
100
AcDbLine
 10
1524
 20
2583
 11
1527
 21
2588
  0
LINE
  5
2D0
100
AcDbEntity
  8
lines
  6
CONTINUOUS
 62
  256
370
   -1
100
AcDbLine
 10
1521
 20
2570
 11
1521
 21
2541
  0
LINE
  5
2D1
100
AcDbEntity
  8
lines
  6
CONTINUOUS
 62
  256
370
   -1
100
AcDbLine
 10
1521
 20
2541
 11
1523
 21
2539
  0
LINE
  5
2D2
100
AcDbEntity
  8
lines
  6
CONTINUOUS
 62
  256
370
   -1
100
AcDbLine
 10
1523
 20
2539
 11
1532
 21
2539
  0
LINE
  5
2D3
100
AcDbEntity
  8
lines
  6
CONTINUOUS
 62
  256
370
   -1
100
AcDbLine
 10
1532
 20
2539
 11
1534
 21
2541
  0
LINE
  5
2D4
100
AcDbEntity
  8
lines
  6
CONTINUOUS
 62
  256
370
   -1
100
AcDbLine
 10
1534
 20
2541
 11
1534
 21
2575
  0
ARC
  5
2D5
100
AcDbEntity
  8
lines
  6
CONTINUOUS
 62
  256
370
   -1
100
AcDbCircle
 10
1542.5
 20
2575.5
 40
8.514693182963201
100
AcDbArc
 50
86.63353933657021
 51
183.3664606634298
  0
ARC
  5
2D6
100
AcDbEntity
  8
lines
  6
CONTINUOUS
 62
  256
370
   -1
100
AcDbCircle
 10
1573.5
 20
2584
 40
10.30776406404415
100
AcDbArc
 50
22.83365417791753
 51
75.96375653207352
  0
ARC
  5
2D7
100
AcDbEntity
  8
lines
  6
CONTINUOUS
 62
  256
370
   -1
100
AcDbCircle
 10
1551.75
 20
2568.25
 40
37.29108472544075
100
AcDbArc
 50
2.689770323150454
 51
23.29946326068253
  0
LINE
  5
2D8
100
AcDbEntity
  8
lines
  6
CONTINUOUS
 62
  256
370
   -1
100
AcDbLine
 10
1586
 20
2583
 11
1583
 21
2588
  0
LINE
  5
2D9
100
AcDbEntity
  8
lines
  6
CONTINUOUS
 62
  256
370
   -1
100
AcDbLine
 10
1589
 20
2570
 11
1589
 21
2541
  0
LINE
  5
2DA
100
AcDbEntity
  8
lines
  6
CONTINUOUS
 62
  256
370
   -1
100
AcDbLine
 10
1589
 20
2541
 11
1587
 21
2539
  0
LINE
  5
2DB
100
AcDbEntity
  8
lines
  6
CONTINUOUS
 62
  256
370
   -1
100
AcDbLine
 10
1587
 20
2539
 11
1578
 21
2539
  0
LINE
  5
2DC
100
AcDbEntity
  8
lines
  6
CONTINUOUS
 62
  256
370
   -1
100
AcDbLine
 10
1578
 20
2539
 11
1576
 21
2541
  0
LINE
  5
2DD
100
AcDbEntity
  8
lines
  6
CONTINUOUS
 62
  256
370
   -1
100
AcDbLine
 10
1576
 20
2541
 11
1576
 21
2575
  0
ARC
  5
2DE
100
AcDbEntity
  8
lines
  6
CONTINUOUS
 62
  256
370
   -1
100
AcDbCircle
 10
1567.5
 20
2575.5
 40
8.514693182963201
100
AcDbArc
 50
356.6335393365702
 51
93.36646066342981
  0
LINE
  5
2DF
100
AcDbEntity
  8
lines
  6
CONTINUOUS
 62
  256
370
   -1
100
AcDbLine
 10
1543
 20
2584
 11
1567
 21
2584
  0
LINE
  5
2E0
100
AcDbEntity
  8
lines
  6
DOT
 62
  256
370
   -1
100
AcDbLine
 10
1534
 20
2594
 11
1576
 21
2594
  0
ARC
  5
2E1
100
AcDbEntity
  8
lines
  6
CONTINUOUS
 62
  256
370
   -1
100
AcDbCircle
 10
1536.5
 20
2604
 40
10.30776406404415
100
AcDbArc
 50
202.8336541779175
 51
255.9637565320735
  0
ARC
  5
2E2
100
AcDbEntity
  8
lines
  6
CONTINUOUS
 62
  256
370
   -1
100
AcDbCircle
 10
1558.25
 20
2619.75
 40
37.29108472544075
100
AcDbArc
 50
182.6897703231504
 51
203.2994632606826
  0
LINE
  5
2E3
100
AcDbEntity
  8
lines
  6
CONTINUOUS
 62
  256
370
   -1
100
AcDbLine
 10
1524
 20
2605
 11
1527
 21
2600
  0
LINE
  5
2E4
100
AcDbEntity
  8
lines
  6
CONTINUOUS
 62
  256
370
   -1
100
AcDbLine
 10
1521
 20
2618
 11
1521
 21
2647
  0
LINE
  5
2E5
100
AcDbEntity
  8
lines
  6
CONTINUOUS
 62
  256
370
   -1
100
AcDbLine
 10
1521
 20
2647
 11
1523
 21
2649
  0
LINE
  5
2E6
100
AcDbEntity
  8
lines
  6
CONTINUOUS
 62
  256
370
   -1
100
AcDbLine
 10
1523
 20
2649
 11
1532
 21
2649
  0
LINE
  5
2E7
100
AcDbEntity
  8
lines
  6
CONTINUOUS
 62
  256
370
   -1
100
AcDbLine
 10
1532
 20
2649
 11
1534
 21
2647
  0
LINE
  5
2E8
100
AcDbEntity
  8
lines
  6
CONTINUOUS
 62
  256
370
   -1
100
AcDbLine
 10
1534
 20
2647
 11
1534
 21
2613
  0
ARC
  5
2E9
100
AcDbEntity
  8
lines
  6
CONTINUOUS
 62
  256
370
   -1
100
AcDbCircle
 10
1542.5
 20
2612.5
 40
8.514693182963201
100
AcDbArc
 50
176.6335393365702
 51
273.3664606634298
  0
ARC
  5
2EA
100
AcDbEntity
  8
lines
  6
CONTINUOUS
 62
  256
370
   -1
100
AcDbCircle
 10
1573.5
 20
2604
 40
10.30776406404415
100
AcDbArc
 50
284.0362434679265
 51
337.1663458220825
  0
ARC
  5
2EB
100
AcDbEntity
  8
lines
  6
CONTINUOUS
 62
  256
370
   -1
100
AcDbCircle
 10
1551.75
 20
2619.75
 40
37.29108472544075
100
AcDbArc
 50
336.7005367393174
 51
357.3102296768495
  0
LINE
  5
2EC
100
AcDbEntity
  8
lines
  6
CONTINUOUS
 62
  256
370
   -1
100
AcDbLine
 10
1586
 20
2605
 11
1583
 21
2600
  0
LINE
  5
2ED
100
AcDbEntity
  8
lines
  6
CONTINUOUS
 62
  256
370
   -1
100
AcDbLine
 10
1589
 20
2618
 11
1589
 21
2647
  0
LINE
  5
2EE
100
AcDbEntity
  8
lines
  6
CONTINUOUS
 62
  256
370
   -1
100
AcDbLine
 10
1589
 20
2647
 11
1587
 21
2649
  0
LINE
  5
2EF
100
AcDbEntity
  8
lines
  6
CONTINUOUS
 62
  256
370
   -1
100
AcDbLine
 10
1587
 20
2649
 11
1578
 21
2649
  0
LINE
  5
2F0
100
AcDbEntity
  8
lines
  6
CONTINUOUS
 62
  256
370
   -1
100
AcDbLine
 10
1578
 20
2649
 11
1576
 21
2647
  0
LINE
  5
2F1
100
AcDbEntity
  8
lines
  6
CONTINUOUS
 62
  256
370
   -1
100
AcDbLine
 10
1576
 20
2647
 11
1576
 21
2613
  0
ARC
  5
2F2
100
AcDbEntity
  8
lines
  6
CONTINUOUS
 62
  256
370
   -1
100
AcDbCircle
 10
1567.5
 20
2612.5
 40
8.514693182963201
100
AcDbArc
 50
266.6335393365702
 51
3.366460663429806
  0
LINE
  5
2F3
100
AcDbEntity
  8
lines
  6
CONTINUOUS
 62
  256
370
   -1
100
AcDbLine
 10
1543
 20
2604
 11
1567
 21
2604
  0
CIRCLE
  5
2F4
100
AcDbEntity
  8
lines
  6
CONTINUOUS
 62
  256
370
   -1
100
AcDbCircle
 10
1012
 20
2632
 40
10
  0
CIRCLE
  5
2F5
100
AcDbEntity
  8
lines
  6
CONTINUOUS
 62
  256
370
   -1
100
AcDbCircle
 10
1015
 20
2305
 40
10
  0
CIRCLE
  5
2F6
100
AcDbEntity
  8
lines
  6
CONTINUOUS
 62
  256
370
   -1
100
AcDbCircle
 10
1012
 20
2475
 40
78
  0
CIRCLE
  5
2F7
100
AcDbEntity
  8
lines
  6
CONTINUOUS
 62
  256
370
   -1
100
AcDbCircle
 10
1012
 20
2632
 40
79
  0
CIRCLE
  5
2F8
100
AcDbEntity
  8
lines
  6
CONTINUOUS
 62
  256
370
   -1
100
AcDbCircle
 10
1012
 20
2475
 40
70.02856560004639
  0
CIRCLE
  5
2F9
100
AcDbEntity
  8
lines
  6
CONTINUOUS
 62
  256
370
   -1
100
AcDbCircle
 10
1015
 20
2305
 40
69
  0
LINE
  5
2FA
100
AcDbEntity
  8
lines
  6
CONTINUOUS
 62
  256
370
   -1
100
AcDbLine
 10
1157
 20
3281
 11
1166
 21
3295
  0
LINE
  5
2FB
100
AcDbEntity
  8
lines
  6
CONTINUOUS
 62
  256
370
   -1
100
AcDbLine
 10
1166
 20
3295
 11
1409
 21
3295
  0
LINE
  5
2FC
100
AcDbEntity
  8
lines
  6
CONTINUOUS
 62
  256
370
   -1
100
AcDbLine
 10
1409
 20
3295
 11
1416
 21
3281
  0
LINE
  5
2FD
100
AcDbEntity
  8
lines
  6
CONTINUOUS
 62
  256
370
   -1
100
AcDbLine
 10
1416
 20
3281
 11
1416
 21
3199
  0
LINE
  5
2FE
100
AcDbEntity
  8
lines
  6
CONTINUOUS
 62
  256
370
   -1
100
AcDbLine
 10
1416
 20
3199
 11
1157
 21
3199
  0
LINE
  5
2FF
100
AcDbEntity
  8
lines
  6
CONTINUOUS
 62
  256
370
   -1
100
AcDbLine
 10
1157
 20
3199
 11
1157
 21
3281
  0
LINE
  5
300
100
AcDbEntity
  8
lines
  6
CONTINUOUS
 62
  256
370
   -1
100
AcDbLine
 10
898
 20
2288
 11
906
 21
2230
  0
LINE
  5
301
100
AcDbEntity
  8
lines
  6
CONTINUOUS
 62
  256
370
   -1
100
AcDbLine
 10
906
 20
2230
 11
914
 21
2288
  0
LINE
  5
302
100
AcDbEntity
  8
lines
  6
CONTINUOUS
 62
  256
370
   -1
100
AcDbLine
 10
914
 20
2288
 11
914
 21
2715
  0
LINE
  5
303
100
AcDbEntity
  8
lines
  6
CONTINUOUS
 62
  256
370
   -1
100
AcDbLine
 10
914
 20
2715
 11
898
 21
2715
  0
LINE
  5
304
100
AcDbEntity
  8
lines
  6
CONTINUOUS
 62
  256
370
   -1
100
AcDbLine
 10
898
 20
2715
 11
898
 21
2288
  0
ENDSEC
  0
SECTION
  2
OBJECTS
  0
DICTIONARY
  5
C
330
0
100
AcDbDictionary
281
    1
  3
ACAD_GROUP
350
D
  3
ACAD_IMAGE_DICT
350
305
  0
DICTIONARY
  5
D
330
C
100
AcDbDictionary
281
    1
  0
IMAGEDEF_REACTOR
  5
51
330
52
100
AcDbRasterImageDefReactor
 90
    2
330
52
  0
DICTIONARY
  5
305
330
C
100
AcDbDictionary
281
    1
  3
-000_levelsAt75
350
50
  0
IMAGEDEF
  5
50
102
{ACAD_REACTORS
330
51
102
}
100
AcDbRasterImageDef
 90
    0
  1
/home/az/projects/11_papercraft/papercraft/tests/H0_cargo_L/-000_levelsAt75.jpg
 10
2400
 20
3381
 11
1
 21
1
280
    1
281
    0
  0
ENDSEC
  0
EOF
