999
dxfrw 0.6.3
  0
SECTION
  2
HEADER
  9
$ACADVER
  1
AC1021
  9
$DWGCODEPAGE
  3
ANSI_1252
  9
$INSBASE
 10
0
 20
0
 30
0
  9
$EXTMIN
 10
0
 20
0
 30
0
  9
$EXTMAX
 10
2400
 20
3381
 30
0
  9
$LIMMIN
 10
0
 20
0
  9
$LIMMAX
 10
420
 20
297
  9
$ORTHOMODE
 70
    0
  9
$REGENMODE
 70
    1
  9
$FILLMODE
 70
    1
  9
$QTEXTMODE
 70
    0
  9
$MIRRTEXT
 70
    0
  9
$LTSCALE
 40
1
  9
$ATTMODE
 70
    0
  9
$TEXTSIZE
 40
2.5
  9
$TRACEWID
 40
15.68
  9
$TEXTSTYLE
  7
STANDARD
  9
$CLAYER
  8
lines
  9
$CELTYPE
  6
BYLAYER
  9
$CECOLOR
 62
  256
  9
$CELTSCALE
 40
1
  9
$DISPSILH
 70
    0
  9
$DIMSCALE
 40
2.5
  9
$DIMASZ
 40
2.5
  9
$DIMEXO
 40
0.625
  9
$DIMDLI
 40
3.75
  9
$DIMRND
 40
0
  9
$DIMDLE
 40
0
  9
$DIMEXE
 40
1.25
  9
$DIMTP
 40
0
  9
$DIMTM
 40
0
  9
$DIMTXT
 40
2.5
  9
$DIMCEN
 40
2.5
  9
$DIMTSZ
 40
0
  9
$DIMTOL
 70
    0
  9
$DIMLIM
 70
    0
  9
$DIMTIH
 70
    0
  9
$DIMTOH
 70
    0
  9
$DIMSE1
 70
    0
  9
$DIMSE2
 70
    0
  9
$DIMTAD
 70
    1
  9
$DIMZIN
 70
    8
  9
$DIMBLK
  1

  9
$DIMASO
 70
    1
  9
$DIMSHO
 70
    1
  9
$DIMPOST
  1

  9
$DIMAPOST
  1

  9
$DIMALT
 70
    0
  9
$DIMALTD
 70
    3
  9
$DIMALTF
 40
0.03937
  9
$DIMLFAC
 40
1
  9
$DIMTOFL
 70
    1
  9
$DIMTVP
 40
0
  9
$DIMTIX
 70
    0
  9
$DIMSOXD
 70
    0
  9
$DIMSAH
 70
    0
  9
$DIMBLK1
  1

  9
$DIMBLK2
  1

  9
$DIMSTYLE
  2
STANDARD
  9
$DIMCLRD
 70
    0
  9
$DIMCLRE
 70
    0
  9
$DIMCLRT
 70
    0
  9
$DIMTFAC
 40
1
  9
$DIMGAP
 40
0.625
  9
$DIMJUST
 70
    0
  9
$DIMSD1
 70
    0
  9
$DIMSD2
 70
    0
  9
$DIMTOLJ
 70
    0
  9
$DIMTZIN
 70
    8
  9
$DIMALTZ
 70
    0
  9
$DIMALTTZ
 70
    0
  9
$DIMUPT
 70
    0
  9
$DIMDEC
 70
    2
  9
$DIMTDEC
 70
    2
  9
$DIMALTU
 70
    2
  9
$DIMALTTD
 70
    3
  9
$DIMTXSTY
  7
STANDARD
  9
$DIMAUNIT
 70
    0
  9
$DIMADEC
 70
    0
  9
$DIMALTRND
 40
0
  9
$DIMAZIN
 70
    0
  9
$DIMDSEP
 70
   44
  9
$DIMATFIT
 70
    3
  9
$DIMFRAC
 70
    0
  9
$DIMLDRBLK
  1
STANDARD
  9
$DIMLUNIT
 70
    2
  9
$DIMLWD
 70
   -2
  9
$DIMLWE
 70
   -2
  9
$DIMTMOVE
 70
    0
  9
$DIMFXL
 40
1
  9
$DIMFXLON
 70
    0
  9
$DIMJOGANG
 40
0.7854
  9
$DIMTFILL
 70
    0
  9
$DIMTFILLCLR
 70
    0
  9
$DIMARCSYM
 70
    0
  9
$DIMLTYPE
  6

  9
$DIMLTEX1
  6

  9
$DIMLTEX2
  6

  9
$LUNITS
 70
    2
  9
$LUPREC
 70
    4
  9
$SKETCHINC
 40
1
  9
$FILLETRAD
 40
0
  9
$AUNITS
 70
    0
  9
$AUPREC
 70
    2
  9
$MENU
  1
.
  9
$ELEVATION
 40
0
  9
$PELEVATION
 40
0
  9
$THICKNESS
 40
0
  9
$LIMCHECK
 70
    0
  9
$CHAMFERA
 40
0
  9
$CHAMFERB
 40
0
  9
$CHAMFERC
 40
0
  9
$CHAMFERD
 40
0
  9
$SKPOLY
 70
    0
  9
$USRTIMER
 70
    1
  9
$ANGBASE
 50
0
  9
$ANGDIR
 70
    0
  9
$PDMODE
 70
   34
  9
$PDSIZE
 40
0
  9
$PLINEWID
 40
0
  9
$SPLFRAME
 70
    0
  9
$SPLINETYPE
 70
    2
  9
$SPLINESEGS
 70
    8
  9
$HANDSEED
  5
20000
  9
$SURFTAB1
 70
    6
  9
$SURFTAB2
 70
    6
  9
$SURFTYPE
 70
    6
  9
$SURFU
 70
    6
  9
$SURFV
 70
    6
  9
$UCSBASE
  2

  9
$UCSNAME
  2

  9
$UCSORG
 10
0
 20
0
 30
0
  9
$UCSXDIR
 10
1
 20
0
 30
0
  9
$UCSYDIR
 10
0
 20
1
 30
0
  9
$UCSORTHOREF
  2

  9
$UCSORTHOVIEW
 70
    0
  9
$UCSORGTOP
 10
0
 20
0
 30
0
  9
$UCSORGBOTTOM
 10
0
 20
0
 30
0
  9
$UCSORGLEFT
 10
0
 20
0
 30
0
  9
$UCSORGRIGHT
 10
0
 20
0
 30
0
  9
$UCSORGFRONT
 10
0
 20
0
 30
0
  9
$UCSORGBACK
 10
0
 20
0
 30
0
  9
$PUCSBASE
  2

  9
$PUCSNAME
  2

  9
$PUCSORG
 10
0
 20
0
 30
0
  9
$PUCSXDIR
 10
1
 20
0
 30
0
  9
$PUCSYDIR
 10
0
 20
1
 30
0
  9
$PUCSORTHOREF
  2

  9
$PUCSORTHOVIEW
 70
    0
  9
$PUCSORGTOP
 10
0
 20
0
 30
0
  9
$PUCSORGBOTTOM
 10
0
 20
0
 30
0
  9
$PUCSORGLEFT
 10
0
 20
0
 30
0
  9
$PUCSORGRIGHT
 10
0
 20
0
 30
0
  9
$PUCSORGFRONT
 10
0
 20
0
 30
0
  9
$PUCSORGBACK
 10
0
 20
0
 30
0
  9
$USERI1
 70
    0
  9
$USERI2
 70
    0
  9
$USERI3
 70
    0
  9
$USERI4
 70
    0
  9
$USERI5
 70
    0
  9
$USERR1
 40
0
  9
$USERR2
 40
0
  9
$USERR3
 40
0
  9
$USERR4
 40
0
  9
$USERR5
 40
0
  9
$WORLDVIEW
 70
    1
  9
$SHADEDGE
 70
    3
  9
$SHADEDIF
 70
   70
  9
$TILEMODE
 70
    1
  9
$MAXACTVP
 70
   64
  9
$PINSBASE
 10
0
 20
0
 30
0
  9
$PLIMCHECK
 70
    0
  9
$PEXTMIN
 10
0
 20
0
 30
0
  9
$PEXTMAX
 10
0
 20
0
 30
0
  9
$GRIDMODE
 70
    1
  9
$SNAPSTYLE
 70
    0
  9
$PLIMMIN
 10
0
 20
0
  9
$PLIMMAX
 10
210
 20
297
  9
$UNITMODE
 70
    0
  9
$VISRETAIN
 70
    1
  9
$PLINEGEN
 70
    0
  9
$PSLTSCALE
 70
    1
  9
$TREEDEPTH
 70
 3020
  9
$CMLSTYLE
  2
Standard
  9
$CMLJUST
 70
    0
  9
$CMLSCALE
 40
20
  9
$PROXYGRAPHICS
 70
    1
  9
$MEASUREMENT
 70
    1
  9
$CELWEIGHT
370
   -1
  9
$ENDCAPS
280
    0
  9
$JOINSTYLE
280
    0
  9
$LWDISPLAY
290
    0
  9
$INSUNITS
 70
    4
  9
$HYPERLINKBASE
  1

  9
$STYLESHEET
  1

  9
$XEDIT
290
    1
  9
$CEPSNTYPE
380
    0
  9
$PSTYLEMODE
290
    1
  9
$EXTNAMES
290
    1
  9
$PSVPSCALE
 40
1
  9
$OLESTARTUP
290
    0
  9
$SORTENTS
280
  127
  9
$INDEXCTL
280
    0
  9
$HIDETEXT
280
    1
  9
$XCLIPFRAME
290
    0
  9
$HALOGAP
280
    0
  9
$OBSCOLOR
 70
  257
  9
$OBSLTYPE
280
    0
  9
$INTERSECTIONDISPLAY
280
    0
  9
$INTERSECTIONCOLOR
 70
  257
  9
$DIMASSOC
280
    1
  9
$PROJECTNAME
  1

  9
$CAMERADISPLAY
290
    0
  9
$LENSLENGTH
 40
50
  9
$CAMERAHEIGHT
 40
0
  9
$STEPSPERSEC
 40
2
  9
$STEPSIZE
 40
50
  9
$3DDWFPREC
 40
2
  9
$PSOLWIDTH
 40
5
  9
$PSOLHEIGHT
 40
80
  9
$LOFTANG1
 40
1.570796326794897
  9
$LOFTANG2
 40
1.570796326794897
  9
$LOFTMAG1
 40
0
  9
$LOFTMAG2
 40
0
  9
$LOFTPARAM
 70
    7
  9
$LOFTNORMALS
280
    1
  9
$LATITUDE
 40
1
  9
$LONGITUDE
 40
1
  9
$NORTHDIRECTION
 40
0
  9
$TIMEZONE
 70
-8000
  9
$LIGHTGLYPHDISPLAY
280
    1
  9
$TILEMODELIGHTSYNCH
280
    1
  9
$SOLIDHIST
280
    1
  9
$SHOWHIST
280
    1
  9
$DWFFRAME
280
    2
  9
$DGNFRAME
280
    0
  9
$REALWORLDSCALE
290
    1
  9
$INTERFERECOLOR
 62
    1
  9
$CSHADOW
280
    0
  9
$SHADOWPLANELOCATION
 40
0
  0
ENDSEC
  0
SECTION
  2
CLASSES
  0
ENDSEC
  0
SECTION
  2
TABLES
  0
TABLE
  2
VPORT
  5
8
330
0
100
AcDbSymbolTable
 70
    1
  0
VPORT
  5
31
330
2
100
AcDbSymbolTableRecord
100
AcDbViewportTableRecord
  2
*ACTIVE
 70
    0
 10
0
 20
0
 11
1
 21
1
 12
1858.251144399582
 22
1322.406237681184
 13
0
 23
0
 14
10
 24
10
 15
10
 25
10
 16
0
 26
0
 36
1
 17
0
 27
0
 37
0
 40
2680.863203031495
 41
1.73960880195599
 42
50
 43
0
 44
0
 50
0
 51
0
 71
    0
 72
  100
 73
    1
 74
    3
 75
    0
 76
    1
 77
    0
 78
    0
281
    0
 65
    1
110
0
120
0
130
0
111
1
121
0
131
0
112
0
122
1
132
0
 79
    0
146
0
348
10020
 60
    7
 61
    5
292
1
282
    1
141
0
142
0
 63
  250
421
3358443
  0
ENDTAB
  0
TABLE
  2
LTYPE
  5
5
330
0
100
AcDbSymbolTable
 70
    4
  0
LTYPE
  5
14
330
5
100
AcDbSymbolTableRecord
100
AcDbLinetypeTableRecord
  2
ByBlock
 70
    0
  3

 72
   65
 73
    0
 40
0
  0
LTYPE
  5
15
330
5
100
AcDbSymbolTableRecord
100
AcDbLinetypeTableRecord
  2
ByLayer
 70
    0
  3

 72
   65
 73
    0
 40
0
  0
LTYPE
  5
16
330
5
100
AcDbSymbolTableRecord
100
AcDbLinetypeTableRecord
  2
Continuous
 70
    0
  3
Solid line
 72
   65
 73
    0
 40
0
  0
LTYPE
  5
32
330
5
100
AcDbSymbolTableRecord
100
AcDbLinetypeTableRecord
  2
DOT
 70
    0
  3
Dot . . . . . . . . . . . . . . . . . . . . . .
 72
   65
 73
    2
 40
6.35
 49
0
 74
    0
 49
-6.35
 74
    0
  0
LTYPE
  5
33
330
5
100
AcDbSymbolTableRecord
100
AcDbLinetypeTableRecord
  2
DOTTINY
 70
    0
  3
Dot (.15x) .....................................
 72
   65
 73
    2
 40
0.9525
 49
0
 74
    0
 49
-0.9525
 74
    0
  0
LTYPE
  5
34
330
5
100
AcDbSymbolTableRecord
100
AcDbLinetypeTableRecord
  2
DOT2
 70
    0
  3
Dot (.5x) .....................................
 72
   65
 73
    2
 40
3.175
 49
0
 74
    0
 49
-3.175
 74
    0
  0
LTYPE
  5
35
330
5
100
AcDbSymbolTableRecord
100
AcDbLinetypeTableRecord
  2
DOTX2
 70
    0
  3
Dot (2x) .  .  .  .  .  .  .  .  .  .  .  .  .
 72
   65
 73
    2
 40
12.7
 49
0
 74
    0
 49
-12.7
 74
    0
  0
LTYPE
  5
36
330
5
100
AcDbSymbolTableRecord
100
AcDbLinetypeTableRecord
  2
DASHED
 70
    0
  3
Dashed _ _ _ _ _ _ _ _ _ _ _ _ _ _ _ _ _
 72
   65
 73
    2
 40
19.05
 49
12.7
 74
    0
 49
-6.35
 74
    0
  0
LTYPE
  5
37
330
5
100
AcDbSymbolTableRecord
100
AcDbLinetypeTableRecord
  2
DASHEDTINY
 70
    0
  3
Dashed (.15x) _ _ _ _ _ _ _ _ _ _ _ _ _ _ _ _ _
 72
   65
 73
    2
 40
2.8575
 49
1.905
 74
    0
 49
-0.9525
 74
    0
  0
LTYPE
  5
38
330
5
100
AcDbSymbolTableRecord
100
AcDbLinetypeTableRecord
  2
DASHED2
 70
    0
  3
Dashed (.5x) _ _ _ _ _ _ _ _ _ _ _ _ _ _ _ _ _
 72
   65
 73
    2
 40
9.524999999999999
 49
6.35
 74
    0
 49
-3.175
 74
    0
  0
LTYPE
  5
39
330
5
100
AcDbSymbolTableRecord
100
AcDbLinetypeTableRecord
  2
DASHEDX2
 70
    0
  3
Dashed (2x) ____  ____  ____  ____  ____  ___
 72
   65
 73
    2
 40
38.09999999999999
 49
25.4
 74
    0
 49
-12.7
 74
    0
  0
LTYPE
  5
3A
330
5
100
AcDbSymbolTableRecord
100
AcDbLinetypeTableRecord
  2
DASHDOT
 70
    0
  3
Dash dot __ . __ . __ . __ . __ . __ . __ . __
 72
   65
 73
    4
 40
25.4
 49
12.7
 74
    0
 49
-6.35
 74
    0
 49
0
 74
    0
 49
-6.35
 74
    0
  0
LTYPE
  5
3B
330
5
100
AcDbSymbolTableRecord
100
AcDbLinetypeTableRecord
  2
DASHDOTTINY
 70
    0
  3
Dash dot (.15x) _._._._._._._._._._._._._._._.
 72
   65
 73
    4
 40
3.81
 49
1.905
 74
    0
 49
-0.9525
 74
    0
 49
0
 74
    0
 49
-0.9525
 74
    0
  0
LTYPE
  5
3C
330
5
100
AcDbSymbolTableRecord
100
AcDbLinetypeTableRecord
  2
DASHDOT2
 70
    0
  3
Dash dot (.5x) _._._._._._._._._._._._._._._.
 72
   65
 73
    4
 40
12.7
 49
6.35
 74
    0
 49
-3.175
 74
    0
 49
0
 74
    0
 49
-3.175
 74
    0
  0
LTYPE
  5
3D
330
5
100
AcDbSymbolTableRecord
100
AcDbLinetypeTableRecord
  2
DASHDOTX2
 70
    0
  3
Dash dot (2x) ____  .  ____  .  ____  .  ___
 72
   65
 73
    4
 40
50.8
 49
25.4
 74
    0
 49
-12.7
 74
    0
 49
0
 74
    0
 49
-12.7
 74
    0
  0
LTYPE
  5
3E
330
5
100
AcDbSymbolTableRecord
100
AcDbLinetypeTableRecord
  2
DIVIDE
 70
    0
  3
Divide ____ . . ____ . . ____ . . ____ . . ____
 72
   65
 73
    6
 40
31.75
 49
12.7
 74
    0
 49
-6.35
 74
    0
 49
0
 74
    0
 49
-6.35
 74
    0
 49
0
 74
    0
 49
-6.35
 74
    0
  0
LTYPE
  5
3F
330
5
100
AcDbSymbolTableRecord
100
AcDbLinetypeTableRecord
  2
DIVIDETINY
 70
    0
  3
Divide (.15x) __..__..__..__..__..__..__..__.._
 72
   65
 73
    6
 40
4.7625
 49
1.905
 74
    0
 49
-0.9525
 74
    0
 49
0
 74
    0
 49
-0.9525
 74
    0
 49
0
 74
    0
 49
-0.9525
 74
    0
  0
LTYPE
  5
40
330
5
100
AcDbSymbolTableRecord
100
AcDbLinetypeTableRecord
  2
DIVIDE2
 70
    0
  3
Divide (.5x) __..__..__..__..__..__..__..__.._
 72
   65
 73
    6
 40
15.875
 49
6.35
 74
    0
 49
-3.175
 74
    0
 49
0
 74
    0
 49
-3.175
 74
    0
 49
0
 74
    0
 49
-3.175
 74
    0
  0
LTYPE
  5
41
330
5
100
AcDbSymbolTableRecord
100
AcDbLinetypeTableRecord
  2
DIVIDEX2
 70
    0
  3
Divide (2x) ________  .  .  ________  .  .  _
 72
   65
 73
    6
 40
63.5
 49
25.4
 74
    0
 49
-12.7
 74
    0
 49
0
 74
    0
 49
-12.7
 74
    0
 49
0
 74
    0
 49
-12.7
 74
    0
  0
LTYPE
  5
42
330
5
100
AcDbSymbolTableRecord
100
AcDbLinetypeTableRecord
  2
BORDER
 70
    0
  3
Border __ __ . __ __ . __ __ . __ __ . __ __ .
 72
   65
 73
    6
 40
44.45
 49
12.7
 74
    0
 49
-6.35
 74
    0
 49
12.7
 74
    0
 49
-6.35
 74
    0
 49
0
 74
    0
 49
-6.35
 74
    0
  0
LTYPE
  5
43
330
5
100
AcDbSymbolTableRecord
100
AcDbLinetypeTableRecord
  2
BORDERTINY
 70
    0
  3
Border (.15x) __.__.__.__.__.__.__.__.__.__.__.
 72
   65
 73
    6
 40
6.6675
 49
1.905
 74
    0
 49
-0.9525
 74
    0
 49
1.905
 74
    0
 49
-0.9525
 74
    0
 49
0
 74
    0
 49
-0.9525
 74
    0
  0
LTYPE
  5
44
330
5
100
AcDbSymbolTableRecord
100
AcDbLinetypeTableRecord
  2
BORDER2
 70
    0
  3
Border (.5x) __.__.__.__.__.__.__.__.__.__.__.
 72
   65
 73
    6
 40
22.225
 49
6.35
 74
    0
 49
-3.175
 74
    0
 49
6.35
 74
    0
 49
-3.175
 74
    0
 49
0
 74
    0
 49
-3.175
 74
    0
  0
LTYPE
  5
45
330
5
100
AcDbSymbolTableRecord
100
AcDbLinetypeTableRecord
  2
BORDERX2
 70
    0
  3
Border (2x) ____  ____  .  ____  ____  .  ___
 72
   65
 73
    6
 40
88.89999999999999
 49
25.4
 74
    0
 49
-12.7
 74
    0
 49
25.4
 74
    0
 49
-12.7
 74
    0
 49
0
 74
    0
 49
-12.7
 74
    0
  0
LTYPE
  5
46
330
5
100
AcDbSymbolTableRecord
100
AcDbLinetypeTableRecord
  2
CENTER
 70
    0
  3
Center ____ _ ____ _ ____ _ ____ _ ____ _ ____
 72
   65
 73
    4
 40
50.8
 49
31.75
 74
    0
 49
-6.35
 74
    0
 49
6.35
 74
    0
 49
-6.35
 74
    0
  0
LTYPE
  5
47
330
5
100
AcDbSymbolTableRecord
100
AcDbLinetypeTableRecord
  2
CENTERTINY
 70
    0
  3
Center (.15x) ___ _ ___ _ ___ _ ___ _ ___ _ ___
 72
   65
 73
    4
 40
7.619999999999999
 49
4.7625
 74
    0
 49
-0.9525
 74
    0
 49
0.9525
 74
    0
 49
-0.9525
 74
    0
  0
LTYPE
  5
48
330
5
100
AcDbSymbolTableRecord
100
AcDbLinetypeTableRecord
  2
CENTER2
 70
    0
  3
Center (.5x) ___ _ ___ _ ___ _ ___ _ ___ _ ___
 72
   65
 73
    4
 40
28.575
 49
19.05
 74
    0
 49
-3.175
 74
    0
 49
3.175
 74
    0
 49
-3.175
 74
    0
  0
LTYPE
  5
49
330
5
100
AcDbSymbolTableRecord
100
AcDbLinetypeTableRecord
  2
CENTERX2
 70
    0
  3
Center (2x) ________  __  ________  __  _____
 72
   65
 73
    4
 40
101.6
 49
63.5
 74
    0
 49
-12.7
 74
    0
 49
12.7
 74
    0
 49
-12.7
 74
    0
  0
ENDTAB
  0
TABLE
  2
LAYER
  5
2
330
0
100
AcDbSymbolTable
 70
    1
  0
LAYER
  5
10
330
2
100
AcDbSymbolTableRecord
100
AcDbLayerTableRecord
  2
0
 70
    1
 62
    7
  6
CONTINUOUS
370
    0
390
F
  0
LAYER
  5
4A
330
2
100
AcDbSymbolTableRecord
100
AcDbLayerTableRecord
  2
construction
 70
    0
 62
    7
  6
CONTINUOUS
370
    0
390
F
1001
LibreCad
1070
    1
  0
LAYER
  5
4B
330
2
100
AcDbSymbolTableRecord
100
AcDbLayerTableRecord
  2
image
 70
    4
 62
    7
  6
CONTINUOUS
370
    0
390
F
  0
LAYER
  5
4C
330
2
100
AcDbSymbolTableRecord
100
AcDbLayerTableRecord
  2
lines
 70
    0
 62
    7
  6
CONTINUOUS
370
    0
390
F
  0
ENDTAB
  0
TABLE
  2
STYLE
  5
3
330
0
100
AcDbSymbolTable
 70
    3
  0
STYLE
  5
4D
330
2
100
AcDbSymbolTableRecord
100
AcDbTextStyleTableRecord
  2
Standard
 70
    0
 40
0
 41
1
 50
0
 71
    0
 42
1
  3
txt
  4

  0
ENDTAB
  0
TABLE
  2
VIEW
  5
6
330
0
100
AcDbSymbolTable
 70
    0
  0
ENDTAB
  0
TABLE
  2
UCS
  5
7
330
0
100
AcDbSymbolTable
 70
    0
  0
ENDTAB
  0
TABLE
  2
APPID
  5
9
330
0
100
AcDbSymbolTable
 70
    1
  0
APPID
  5
12
330
9
100
AcDbSymbolTableRecord
100
AcDbRegAppTableRecord
  2
ACAD
 70
    0
  0
APPID
  5
4E
330
9
100
AcDbSymbolTableRecord
100
AcDbRegAppTableRecord
  2
LibreCad
 70
    0
  0
ENDTAB
  0
TABLE
  2
DIMSTYLE
  5
A
330
0
100
AcDbSymbolTable
 70
    1
100
AcDbDimStyleTable
 71
    1
  0
DIMSTYLE
105
4F
330
A
100
AcDbSymbolTableRecord
100
AcDbDimStyleTableRecord
  2
Standard
 70
    0
 40
2.5
 41
2.5
 42
0.625
 43
0.38
 44
1.25
 45
0
 46
0
 47
0
 48
0
 49
1
140
2.5
141
0.09
142
0
143
25.4
144
1
145
0
146
1
147
0.625
148
0
 71
    0
 72
    0
 73
    0
 74
    1
 75
    0
 76
    0
 77
    0
 78
    8
 79
    0
170
    0
171
    2
172
    0
173
    0
174
    0
175
    0
176
    0
177
    0
178
    0
179
    0
271
    2
272
    4
273
    2
274
    2
275
    0
276
    0
277
    2
278
   44
279
    0
280
    0
281
    0
282
    0
283
    1
284
    0
285
    0
286
    0
288
    0
289
    3
340
STANDARD
341

371
   -2
372
   -2
  0
ENDTAB
  0
TABLE
  2
BLOCK_RECORD
  5
1
330
0
100
AcDbSymbolTable
 70
    2
  0
BLOCK_RECORD
  5
1F
330
1
100
AcDbSymbolTableRecord
100
AcDbBlockTableRecord
  2
*Model_Space
 70
    0
280
    1
281
    0
  0
BLOCK_RECORD
  5
1E
330
1
100
AcDbSymbolTableRecord
100
AcDbBlockTableRecord
  2
*Paper_Space
 70
    0
280
    1
281
    0
  0
ENDTAB
  0
ENDSEC
  0
SECTION
  2
BLOCKS
  0
BLOCK
  5
20
330
1F
100
AcDbEntity
  8
0
100
AcDbBlockBegin
  2
*Model_Space
 70
    0
 10
0
 20
0
 30
0
  3
*Model_Space
  1

  0
ENDBLK
  5
21
330
1F
100
AcDbEntity
  8
0
100
AcDbBlockEnd
  0
BLOCK
  5
1C
330
1B
100
AcDbEntity
  8
0
100
AcDbBlockBegin
  2
*Paper_Space
 70
    0
 10
0
 20
0
 30
0
  3
*Paper_Space
  1

  0
ENDBLK
  5
1D
330
1F
100
AcDbEntity
  8
0
100
AcDbBlockEnd
  0
ENDSEC
  0
SECTION
  2
ENTITIES
  0
IMAGE
  5
52
100
AcDbEntity
  8
image
  6
ByLayer
 62
  256
370
   -1
100
AcDbRasterImage
 10
0
 20
0
 30
0
 11
1
 21
0
 31
0
 12
6.123233995736766e-17
 22
1
 32
0
 13
2400
 23
3381
340
50
 70
    1
280
    0
281
   50
282
   50
283
    0
360
51
  0
LINE
  5
53
100
AcDbEntity
  8
lines
  6
ByLayer
 62
  256
370
   -1
100
AcDbLine
 10
210
 20
123
 11
428
 21
123
  0
LINE
  5
54
100
AcDbEntity
  8
lines
  6
ByLayer
 62
  256
370
   -1
100
AcDbLine
 10
428
 20
123
 11
428
 21
102
  0
LINE
  5
55
100
AcDbEntity
  8
lines
  6
ByLayer
 62
  256
370
   -1
100
AcDbLine
 10
428
 20
102
 11
210
 21
102
  0
LINE
  5
56
100
AcDbEntity
  8
lines
  6
ByLayer
 62
  256
370
   -1
100
AcDbLine
 10
210
 20
102
 11
210
 21
123
  0
LINE
  5
57
100
AcDbEntity
  8
lines
  6
ByLayer
 62
  256
370
   -1
100
AcDbLine
 10
206
 20
195
 11
422
 21
195
  0
LINE
  5
58
100
AcDbEntity
  8
lines
  6
ByLayer
 62
  256
370
   -1
100
AcDbLine
 10
422
 20
195
 11
422
 21
178
  0
LINE
  5
59
100
AcDbEntity
  8
lines
  6
ByLayer
 62
  256
370
   -1
100
AcDbLine
 10
422
 20
178
 11
206
 21
178
  0
LINE
  5
5A
100
AcDbEntity
  8
lines
  6
ByLayer
 62
  256
370
   -1
100
AcDbLine
 10
206
 20
178
 11
206
 21
195
  0
LINE
  5
5B
100
AcDbEntity
  8
lines
  6
ByLayer
 62
  256
370
   -1
100
AcDbLine
 10
209
 20
269
 11
266
 21
269
  0
LINE
  5
5C
100
AcDbEntity
  8
lines
  6
ByLayer
 62
  256
370
   -1
100
AcDbLine
 10
266
 20
269
 11
266
 21
276
  0
LINE
  5
5D
100
AcDbEntity
  8
lines
  6
ByLayer
 62
  256
370
   -1
100
AcDbLine
 10
266
 20
276
 11
427
 21
276
  0
LINE
  5
5E
100
AcDbEntity
  8
lines
  6
ByLayer
 62
  256
370
   -1
100
AcDbLine
 10
427
 20
276
 11
427
 21
251
  0
LINE
  5
5F
100
AcDbEntity
  8
lines
  6
ByLayer
 62
  256
370
   -1
100
AcDbLine
 10
427
 20
251
 11
209
 21
251
  0
LINE
  5
60
100
AcDbEntity
  8
lines
  6
ByLayer
 62
  256
370
   -1
100
AcDbLine
 10
209
 20
251
 11
209
 21
269
  0
LINE
  5
61
100
AcDbEntity
  8
lines
  6
ByLayer
 62
  256
370
   -1
100
AcDbLine
 10
208
 20
336
 11
265
 21
336
  0
LINE
  5
62
100
AcDbEntity
  8
lines
  6
ByLayer
 62
  256
370
   -1
100
AcDbLine
 10
265
 20
336
 11
265
 21
329
  0
LINE
  5
63
100
AcDbEntity
  8
lines
  6
ByLayer
 62
  256
370
   -1
100
AcDbLine
 10
265
 20
329
 11
426
 21
329
  0
LINE
  5
64
100
AcDbEntity
  8
lines
  6
ByLayer
 62
  256
370
   -1
100
AcDbLine
 10
426
 20
329
 11
426
 21
354
  0
LINE
  5
65
100
AcDbEntity
  8
lines
  6
ByLayer
 62
  256
370
   -1
100
AcDbLine
 10
426
 20
354
 11
208
 21
354
  0
LINE
  5
66
100
AcDbEntity
  8
lines
  6
ByLayer
 62
  256
370
   -1
100
AcDbLine
 10
208
 20
354
 11
208
 21
336
  0
LINE
  5
67
100
AcDbEntity
  8
lines
  6
ByLayer
 62
  256
370
   -1
100
AcDbLine
 10
208
 20
409
 11
424
 21
409
  0
LINE
  5
68
100
AcDbEntity
  8
lines
  6
ByLayer
 62
  256
370
   -1
100
AcDbLine
 10
424
 20
409
 11
424
 21
426
  0
LINE
  5
69
100
AcDbEntity
  8
lines
  6
ByLayer
 62
  256
370
   -1
100
AcDbLine
 10
424
 20
426
 11
208
 21
426
  0
LINE
  5
6A
100
AcDbEntity
  8
lines
  6
ByLayer
 62
  256
370
   -1
100
AcDbLine
 10
208
 20
426
 11
208
 21
409
  0
LINE
  5
6B
100
AcDbEntity
  8
lines
  6
ByLayer
 62
  256
370
   -1
100
AcDbLine
 10
207
 20
490
 11
425
 21
490
  0
LINE
  5
6C
100
AcDbEntity
  8
lines
  6
ByLayer
 62
  256
370
   -1
100
AcDbLine
 10
425
 20
490
 11
425
 21
511
  0
LINE
  5
6D
100
AcDbEntity
  8
lines
  6
ByLayer
 62
  256
370
   -1
100
AcDbLine
 10
425
 20
511
 11
207
 21
511
  0
LINE
  5
6E
100
AcDbEntity
  8
lines
  6
ByLayer
 62
  256
370
   -1
100
AcDbLine
 10
207
 20
511
 11
207
 21
490
  0
LINE
  5
6F
100
AcDbEntity
  8
lines
  6
ByLayer
 62
  256
370
   -1
100
AcDbLine
 10
1073
 20
121
 11
855
 21
121
  0
LINE
  5
70
100
AcDbEntity
  8
lines
  6
ByLayer
 62
  256
370
   -1
100
AcDbLine
 10
855
 20
121
 11
855
 21
100
  0
LINE
  5
71
100
AcDbEntity
  8
lines
  6
ByLayer
 62
  256
370
   -1
100
AcDbLine
 10
855
 20
100
 11
1073
 21
100
  0
LINE
  5
72
100
AcDbEntity
  8
lines
  6
ByLayer
 62
  256
370
   -1
100
AcDbLine
 10
1073
 20
100
 11
1073
 21
121
  0
LINE
  5
73
100
AcDbEntity
  8
lines
  6
ByLayer
 62
  256
370
   -1
100
AcDbLine
 10
1075
 20
193
 11
859
 21
193
  0
LINE
  5
74
100
AcDbEntity
  8
lines
  6
ByLayer
 62
  256
370
   -1
100
AcDbLine
 10
859
 20
193
 11
859
 21
176
  0
LINE
  5
75
100
AcDbEntity
  8
lines
  6
ByLayer
 62
  256
370
   -1
100
AcDbLine
 10
859
 20
176
 11
1075
 21
176
  0
LINE
  5
76
100
AcDbEntity
  8
lines
  6
ByLayer
 62
  256
370
   -1
100
AcDbLine
 10
1075
 20
176
 11
1075
 21
193
  0
LINE
  5
77
100
AcDbEntity
  8
lines
  6
ByLayer
 62
  256
370
   -1
100
AcDbLine
 10
1073
 20
267
 11
1016
 21
267
  0
LINE
  5
78
100
AcDbEntity
  8
lines
  6
ByLayer
 62
  256
370
   -1
100
AcDbLine
 10
1016
 20
267
 11
1016
 21
274
  0
LINE
  5
79
100
AcDbEntity
  8
lines
  6
ByLayer
 62
  256
370
   -1
100
AcDbLine
 10
1016
 20
274
 11
855
 21
274
  0
LINE
  5
7A
100
AcDbEntity
  8
lines
  6
ByLayer
 62
  256
370
   -1
100
AcDbLine
 10
855
 20
274
 11
855
 21
249
  0
LINE
  5
7B
100
AcDbEntity
  8
lines
  6
ByLayer
 62
  256
370
   -1
100
AcDbLine
 10
855
 20
249
 11
1073
 21
249
  0
LINE
  5
7C
100
AcDbEntity
  8
lines
  6
ByLayer
 62
  256
370
   -1
100
AcDbLine
 10
1073
 20
249
 11
1073
 21
267
  0
LINE
  5
7D
100
AcDbEntity
  8
lines
  6
ByLayer
 62
  256
370
   -1
100
AcDbLine
 10
1073
 20
334
 11
1016
 21
334
  0
LINE
  5
7E
100
AcDbEntity
  8
lines
  6
ByLayer
 62
  256
370
   -1
100
AcDbLine
 10
1016
 20
334
 11
1016
 21
327
  0
LINE
  5
7F
100
AcDbEntity
  8
lines
  6
ByLayer
 62
  256
370
   -1
100
AcDbLine
 10
1016
 20
327
 11
855
 21
327
  0
LINE
  5
80
100
AcDbEntity
  8
lines
  6
ByLayer
 62
  256
370
   -1
100
AcDbLine
 10
855
 20
327
 11
855
 21
352
  0
LINE
  5
81
100
AcDbEntity
  8
lines
  6
ByLayer
 62
  256
370
   -1
100
AcDbLine
 10
855
 20
352
 11
1073
 21
352
  0
LINE
  5
82
100
AcDbEntity
  8
lines
  6
ByLayer
 62
  256
370
   -1
100
AcDbLine
 10
1073
 20
352
 11
1073
 21
334
  0
LINE
  5
83
100
AcDbEntity
  8
lines
  6
ByLayer
 62
  256
370
   -1
100
AcDbLine
 10
1073
 20
407
 11
857
 21
407
  0
LINE
  5
84
100
AcDbEntity
  8
lines
  6
ByLayer
 62
  256
370
   -1
100
AcDbLine
 10
857
 20
407
 11
857
 21
424
  0
LINE
  5
85
100
AcDbEntity
  8
lines
  6
ByLayer
 62
  256
370
   -1
100
AcDbLine
 10
857
 20
424
 11
1073
 21
424
  0
LINE
  5
86
100
AcDbEntity
  8
lines
  6
ByLayer
 62
  256
370
   -1
100
AcDbLine
 10
1073
 20
424
 11
1073
 21
407
  0
LINE
  5
87
100
AcDbEntity
  8
lines
  6
ByLayer
 62
  256
370
   -1
100
AcDbLine
 10
1074
 20
487
 11
856
 21
487
  0
LINE
  5
88
100
AcDbEntity
  8
lines
  6
ByLayer
 62
  256
370
   -1
100
AcDbLine
 10
856
 20
487
 11
856
 21
508
  0
LINE
  5
89
100
AcDbEntity
  8
lines
  6
ByLayer
 62
  256
370
   -1
100
AcDbLine
 10
856
 20
508
 11
1074
 21
508
  0
LINE
  5
8A
100
AcDbEntity
  8
lines
  6
ByLayer
 62
  256
370
   -1
100
AcDbLine
 10
1074
 20
508
 11
1074
 21
487
  0
LINE
  5
8B
100
AcDbEntity
  8
lines
  6
ByLayer
 62
  256
370
   -1
100
AcDbLine
 10
1158
 20
262
 11
1213
 21
262
  0
LINE
  5
8C
100
AcDbEntity
  8
lines
  6
ByLayer
 62
  256
370
   -1
100
AcDbLine
 10
1213
 20
262
 11
1213
 21
376
  0
LINE
  5
8D
100
AcDbEntity
  8
lines
  6
ByLayer
 62
  256
370
   -1
100
AcDbLine
 10
1213
 20
376
 11
1158
 21
376
  0
LINE
  5
8E
100
AcDbEntity
  8
lines
  6
ByLayer
 62
  256
370
   -1
100
AcDbLine
 10
1158
 20
376
 11
1158
 21
262
  0
LINE
  5
8F
100
AcDbEntity
  8
lines
  6
ByLayer
 62
  256
370
   -1
100
AcDbLine
 10
1244
 20
265
 11
1299
 21
265
  0
LINE
  5
90
100
AcDbEntity
  8
lines
  6
ByLayer
 62
  256
370
   -1
100
AcDbLine
 10
1299
 20
265
 11
1299
 21
379
  0
LINE
  5
91
100
AcDbEntity
  8
lines
  6
ByLayer
 62
  256
370
   -1
100
AcDbLine
 10
1299
 20
379
 11
1244
 21
379
  0
LINE
  5
92
100
AcDbEntity
  8
lines
  6
ByLayer
 62
  256
370
   -1
100
AcDbLine
 10
1244
 20
379
 11
1244
 21
265
  0
LINE
  5
93
100
AcDbEntity
  8
lines
  6
ByLayer
 62
  256
370
   -1
100
AcDbLine
 10
1164
 20
408
 11
1219
 21
408
  0
LINE
  5
94
100
AcDbEntity
  8
lines
  6
ByLayer
 62
  256
370
   -1
100
AcDbLine
 10
1219
 20
408
 11
1219
 21
522
  0
LINE
  5
95
100
AcDbEntity
  8
lines
  6
ByLayer
 62
  256
370
   -1
100
AcDbLine
 10
1219
 20
522
 11
1164
 21
522
  0
LINE
  5
96
100
AcDbEntity
  8
lines
  6
ByLayer
 62
  256
370
   -1
100
AcDbLine
 10
1164
 20
522
 11
1164
 21
408
  0
LINE
  5
97
100
AcDbEntity
  8
lines
  6
ByLayer
 62
  256
370
   -1
100
AcDbLine
 10
1243
 20
406
 11
1298
 21
406
  0
LINE
  5
98
100
AcDbEntity
  8
lines
  6
ByLayer
 62
  256
370
   -1
100
AcDbLine
 10
1298
 20
406
 11
1298
 21
520
  0
LINE
  5
99
100
AcDbEntity
  8
lines
  6
ByLayer
 62
  256
370
   -1
100
AcDbLine
 10
1298
 20
520
 11
1243
 21
520
  0
LINE
  5
9A
100
AcDbEntity
  8
lines
  6
ByLayer
 62
  256
370
   -1
100
AcDbLine
 10
1243
 20
520
 11
1243
 21
406
  0
LINE
  5
9B
100
AcDbEntity
  8
lines
  6
ByLayer
 62
  256
370
   -1
100
AcDbLine
 10
496
 20
401
 11
497
 21
403
  0
LINE
  5
9C
100
AcDbEntity
  8
lines
  6
ByLayer
 62
  256
370
   -1
100
AcDbLine
 10
497
 20
403
 11
510
 21
403
  0
LINE
  5
9D
100
AcDbEntity
  8
lines
  6
ByLayer
 62
  256
370
   -1
100
AcDbLine
 10
510
 20
403
 11
519
 21
401
  0
LINE
  5
9E
100
AcDbEntity
  8
lines
  6
ByLayer
 62
  256
370
   -1
100
AcDbLine
 10
519
 20
401
 11
521
 21
399
  0
LINE
  5
9F
100
AcDbEntity
  8
lines
  6
ByLayer
 62
  256
370
   -1
100
AcDbLine
 10
521
 20
399
 11
519
 21
397
  0
LINE
  5
A0
100
AcDbEntity
  8
lines
  6
ByLayer
 62
  256
370
   -1
100
AcDbLine
 10
519
 20
397
 11
510
 21
395
  0
LINE
  5
A1
100
AcDbEntity
  8
lines
  6
ByLayer
 62
  256
370
   -1
100
AcDbLine
 10
510
 20
395
 11
497
 21
395
  0
LINE
  5
A2
100
AcDbEntity
  8
lines
  6
ByLayer
 62
  256
370
   -1
100
AcDbLine
 10
497
 20
395
 11
496
 21
397
  0
LINE
  5
A3
100
AcDbEntity
  8
lines
  6
ByLayer
 62
  256
370
   -1
100
AcDbLine
 10
496
 20
397
 11
496
 21
401
  0
LINE
  5
A4
100
AcDbEntity
  8
lines
  6
ByLayer
 62
  256
370
   -1
100
AcDbLine
 10
756
 20
332
 11
755
 21
334
  0
LINE
  5
A5
100
AcDbEntity
  8
lines
  6
ByLayer
 62
  256
370
   -1
100
AcDbLine
 10
755
 20
334
 11
742
 21
334
  0
LINE
  5
A6
100
AcDbEntity
  8
lines
  6
ByLayer
 62
  256
370
   -1
100
AcDbLine
 10
742
 20
334
 11
733
 21
332
  0
LINE
  5
A7
100
AcDbEntity
  8
lines
  6
ByLayer
 62
  256
370
   -1
100
AcDbLine
 10
733
 20
332
 11
731
 21
330
  0
LINE
  5
A8
100
AcDbEntity
  8
lines
  6
ByLayer
 62
  256
370
   -1
100
AcDbLine
 10
731
 20
330
 11
733
 21
328
  0
LINE
  5
A9
100
AcDbEntity
  8
lines
  6
ByLayer
 62
  256
370
   -1
100
AcDbLine
 10
733
 20
328
 11
742
 21
326
  0
LINE
  5
AA
100
AcDbEntity
  8
lines
  6
ByLayer
 62
  256
370
   -1
100
AcDbLine
 10
742
 20
326
 11
755
 21
326
  0
LINE
  5
AB
100
AcDbEntity
  8
lines
  6
ByLayer
 62
  256
370
   -1
100
AcDbLine
 10
755
 20
326
 11
756
 21
328
  0
LINE
  5
AC
100
AcDbEntity
  8
lines
  6
ByLayer
 62
  256
370
   -1
100
AcDbLine
 10
756
 20
328
 11
756
 21
332
  0
LINE
  5
AD
100
AcDbEntity
  8
lines
  6
ByLayer
 62
  256
370
   -1
100
AcDbLine
 10
756
 20
405
 11
755
 21
407
  0
LINE
  5
AE
100
AcDbEntity
  8
lines
  6
ByLayer
 62
  256
370
   -1
100
AcDbLine
 10
755
 20
407
 11
742
 21
407
  0
LINE
  5
AF
100
AcDbEntity
  8
lines
  6
ByLayer
 62
  256
370
   -1
100
AcDbLine
 10
742
 20
407
 11
733
 21
405
  0
LINE
  5
B0
100
AcDbEntity
  8
lines
  6
ByLayer
 62
  256
370
   -1
100
AcDbLine
 10
733
 20
405
 11
731
 21
403
  0
LINE
  5
B1
100
AcDbEntity
  8
lines
  6
ByLayer
 62
  256
370
   -1
100
AcDbLine
 10
731
 20
403
 11
733
 21
401
  0
LINE
  5
B2
100
AcDbEntity
  8
lines
  6
ByLayer
 62
  256
370
   -1
100
AcDbLine
 10
733
 20
401
 11
742
 21
399
  0
LINE
  5
B3
100
AcDbEntity
  8
lines
  6
ByLayer
 62
  256
370
   -1
100
AcDbLine
 10
742
 20
399
 11
755
 21
399
  0
LINE
  5
B4
100
AcDbEntity
  8
lines
  6
ByLayer
 62
  256
370
   -1
100
AcDbLine
 10
755
 20
399
 11
756
 21
401
  0
LINE
  5
B5
100
AcDbEntity
  8
lines
  6
ByLayer
 62
  256
370
   -1
100
AcDbLine
 10
756
 20
401
 11
756
 21
405
  0
LINE
  5
B6
100
AcDbEntity
  8
lines
  6
ByLayer
 62
  256
370
   -1
100
AcDbLine
 10
501
 20
475
 11
501
 21
483
  0
LINE
  5
B7
100
AcDbEntity
  8
lines
  6
ByLayer
 62
  256
370
   -1
100
AcDbLine
 10
501
 20
483
 11
509
 21
483
  0
LINE
  5
B8
100
AcDbEntity
  8
lines
  6
ByLayer
 62
  256
370
   -1
100
AcDbLine
 10
509
 20
483
 11
509
 21
459
  0
LINE
  5
B9
100
AcDbEntity
  8
lines
  6
ByLayer
 62
  256
370
   -1
100
AcDbLine
 10
509
 20
459
 11
501
 21
459
  0
LINE
  5
BA
100
AcDbEntity
  8
lines
  6
ByLayer
 62
  256
370
   -1
100
AcDbLine
 10
501
 20
459
 11
501
 21
468
  0
LINE
  5
BB
100
AcDbEntity
  8
lines
  6
ByLayer
 62
  256
370
   -1
100
AcDbLine
 10
501
 20
468
 11
503
 21
468
  0
LINE
  5
BC
100
AcDbEntity
  8
lines
  6
ByLayer
 62
  256
370
   -1
100
AcDbLine
 10
503
 20
468
 11
503
 21
474
  0
LINE
  5
BD
100
AcDbEntity
  8
lines
  6
ByLayer
 62
  256
370
   -1
100
AcDbLine
 10
503
 20
474
 11
501
 21
474
  0
LINE
  5
BE
100
AcDbEntity
  8
lines
  6
ByLayer
 62
  256
370
   -1
100
AcDbLine
 10
501
 20
474
 11
501
 21
475
  0
LWPOLYLINE
  5
BF
100
AcDbEntity
  8
lines
  6
ByLayer
 62
  256
370
   -1
100
AcDbPolyline
 90
   41
 70
    1
 43
0
 10
558
 20
439
 10
566
 20
439
 10
566
 20
431
 10
570
 20
431
 10
573
 20
427
 10
573
 20
404
 10
576
 20
403
 10
578
 20
401
 10
576
 20
399
 10
573
 20
398
 10
573
 20
331
 10
576
 20
330
 10
578
 20
328
 10
576
 20
326
 10
573
 20
325
 10
573
 20
304
 42
-0.7312178527831996
 10
573
 20
293
 10
573
 20
287
 10
567
 20
287
 10
567
 20
293
 42
-0.526030489934225
 10
565
 20
304
 10
565
 20
324
 10
554
 20
324
 10
553
 20
326
 10
553
 20
330
 10
554
 20
332
 10
565
 20
332
 10
565
 20
397
 10
554
 20
397
 10
553
 20
399
 10
553
 20
403
 10
554
 20
405
 10
565
 20
405
 10
565
 20
415
 10
559
 20
415
 10
558
 20
419
 10
558
 20
423
 10
543
 20
423
 10
543
 20
427
 10
558
 20
430
 10
558
 20
431
  0
LWPOLYLINE
  5
C0
100
AcDbEntity
  8
lines
  6
ByLayer
 62
  256
370
   -1
100
AcDbPolyline
 90
    9
 70
    1
 43
0
 10
496
 20
330
 10
509
 20
330
 10
518
 20
328
 10
520
 20
326
 10
518
 20
324
 10
509
 20
322
 10
496
 20
322
 10
495
 20
324
 10
495
 20
328
  0
LWPOLYLINE
  5
C1
100
AcDbEntity
  8
lines
  6
ByLayer
 62
  256
370
   -1
100
AcDbPolyline
 90
   41
 70
    1
 43
0
 10
693
 20
290
 10
685
 20
290
 10
685
 20
298
 10
681
 20
298
 10
678
 20
302
 10
678
 20
325
 10
675
 20
326
 10
673
 20
328
 10
675
 20
330
 10
678
 20
331
 10
678
 20
398
 10
675
 20
399
 10
673
 20
401
 10
675
 20
403
 10
678
 20
404
 10
678
 20
425
 42
-0.7312178527831993
 10
678
 20
436
 10
678
 20
442
 10
684
 20
442
 10
684
 20
436
 42
-0.5260304899342251
 10
686
 20
425
 10
686
 20
405
 10
697
 20
405
 10
698
 20
403
 10
698
 20
399
 10
697
 20
397
 10
686
 20
397
 10
686
 20
332
 10
697
 20
332
 10
698
 20
330
 10
698
 20
326
 10
697
 20
324
 10
686
 20
324
 10
686
 20
314
 10
692
 20
314
 10
693
 20
310
 10
693
 20
306
 10
708
 20
306
 10
708
 20
302
 10
693
 20
299
 10
693
 20
298
  0
LINE
  5
C2
100
AcDbEntity
  8
lines
  6
ByLayer
 62
  256
370
   -1
100
AcDbLine
 10
95
 20
1554
 11
481
 21
1554
  0
LINE
  5
C3
100
AcDbEntity
  8
lines
  6
ByLayer
 62
  256
370
   -1
100
AcDbLine
 10
481
 20
1554
 11
480
 21
592
  0
LINE
  5
C4
100
AcDbEntity
  8
lines
  6
ByLayer
 62
  256
370
   -1
100
AcDbLine
 10
480
 20
592
 11
95
 21
592
  0
LINE
  5
C5
100
AcDbEntity
  8
lines
  6
ByLayer
 62
  256
370
   -1
100
AcDbLine
 10
95
 20
592
 11
95
 21
1554
  0
LINE
  5
C6
100
AcDbEntity
  8
lines
  6
ByLayer
 62
  256
370
   -1
100
AcDbLine
 10
1422
 20
150
 11
1422
 21
206
  0
LINE
  5
C7
100
AcDbEntity
  8
lines
  6
ByLayer
 62
  256
370
   -1
100
AcDbLine
 10
1422
 20
206
 11
1519
 21
206
  0
LINE
  5
C8
100
AcDbEntity
  8
lines
  6
ByLayer
 62
  256
370
   -1
100
AcDbLine
 10
1519
 20
206
 11
1519
 21
150
  0
LINE
  5
C9
100
AcDbEntity
  8
lines
  6
ByLayer
 62
  256
370
   -1
100
AcDbLine
 10
1536
 20
150
 11
1536
 21
206
  0
LINE
  5
CA
100
AcDbEntity
  8
lines
  6
ByLayer
 62
  256
370
   -1
100
AcDbLine
 10
1536
 20
206
 11
1671
 21
206
  0
LINE
  5
CB
100
AcDbEntity
  8
lines
  6
ByLayer
 62
  256
370
   -1
100
AcDbLine
 10
1671
 20
206
 11
1671
 21
150
  0
LINE
  5
CC
100
AcDbEntity
  8
lines
  6
ByLayer
 62
  256
370
   -1
100
AcDbLine
 10
1688
 20
150
 11
1688
 21
206
  0
LINE
  5
CD
100
AcDbEntity
  8
lines
  6
ByLayer
 62
  256
370
   -1
100
AcDbLine
 10
1688
 20
206
 11
1784
 21
206
  0
LINE
  5
CE
100
AcDbEntity
  8
lines
  6
ByLayer
 62
  256
370
   -1
100
AcDbLine
 10
1784
 20
206
 11
1785
 21
206
  0
LINE
  5
CF
100
AcDbEntity
  8
lines
  6
ByLayer
 62
  256
370
   -1
100
AcDbLine
 10
1785
 20
206
 11
1785
 21
150
  0
LINE
  5
D0
100
AcDbEntity
  8
lines
  6
ByLayer
 62
  256
370
   -1
100
AcDbLine
 10
1404
 20
363
 11
1522
 21
417
  0
LINE
  5
D1
100
AcDbEntity
  8
lines
  6
ByLayer
 62
  256
370
   -1
100
AcDbLine
 10
1522
 20
417
 11
1404
 21
471
  0
LINE
  5
D2
100
AcDbEntity
  8
lines
  6
ByLayer
 62
  256
370
   -1
100
AcDbLine
 10
1404
 20
471
 11
1383
 21
492
  0
LINE
  5
D3
100
AcDbEntity
  8
lines
  6
ByLayer
 62
  256
370
   -1
100
AcDbLine
 10
1383
 20
492
 11
1383
 21
603
  0
LINE
  5
D4
100
AcDbEntity
  8
lines
  6
ByLayer
 62
  256
370
   -1
100
AcDbLine
 10
1383
 20
603
 11
1404
 21
628
  0
LINE
  5
D5
100
AcDbEntity
  8
lines
  6
ByLayer
 62
  256
370
   -1
100
AcDbLine
 10
1803
 20
363
 11
1684
 21
417
  0
LINE
  5
D6
100
AcDbEntity
  8
lines
  6
ByLayer
 62
  256
370
   -1
100
AcDbLine
 10
1684
 20
417
 11
1803
 21
471
  0
LINE
  5
D7
100
AcDbEntity
  8
lines
  6
ByLayer
 62
  256
370
   -1
100
AcDbLine
 10
1803
 20
471
 11
1824
 21
491
  0
LINE
  5
D8
100
AcDbEntity
  8
lines
  6
ByLayer
 62
  256
370
   -1
100
AcDbLine
 10
1824
 20
491
 11
1824
 21
605
  0
LINE
  5
D9
100
AcDbEntity
  8
lines
  6
ByLayer
 62
  256
370
   -1
100
AcDbLine
 10
1824
 20
605
 11
1803
 21
628
  0
LINE
  5
DA
100
AcDbEntity
  8
lines
  6
ByLayer
 62
  256
370
   -1
100
AcDbLine
 10
1026
 20
628
 11
1026
 21
647
  0
LINE
  5
DB
100
AcDbEntity
  8
lines
  6
ByLayer
 62
  256
370
   -1
100
AcDbLine
 10
1026
 20
647
 11
1083
 21
647
  0
LINE
  5
DC
100
AcDbEntity
  8
lines
  6
ByLayer
 62
  256
370
   -1
100
AcDbLine
 10
1083
 20
647
 11
1083
 21
788
  0
LINE
  5
DD
100
AcDbEntity
  8
lines
  6
ByLayer
 62
  256
370
   -1
100
AcDbLine
 10
1083
 20
788
 11
1026
 21
788
  0
LINE
  5
DE
100
AcDbEntity
  8
lines
  6
ByLayer
 62
  256
370
   -1
100
AcDbLine
 10
1026
 20
788
 11
1026
 21
806
  0
LINE
  5
DF
100
AcDbEntity
  8
lines
  6
ByLayer
 62
  256
370
   -1
100
AcDbLine
 10
1026
 20
806
 11
1083
 21
806
  0
LINE
  5
E0
100
AcDbEntity
  8
lines
  6
ByLayer
 62
  256
370
   -1
100
AcDbLine
 10
1083
 20
806
 11
1083
 21
949
  0
LINE
  5
E1
100
AcDbEntity
  8
lines
  6
ByLayer
 62
  256
370
   -1
100
AcDbLine
 10
1083
 20
949
 11
1026
 21
949
  0
LINE
  5
E2
100
AcDbEntity
  8
lines
  6
ByLayer
 62
  256
370
   -1
100
AcDbLine
 10
1026
 20
949
 11
1026
 21
967
  0
LINE
  5
E3
100
AcDbEntity
  8
lines
  6
ByLayer
 62
  256
370
   -1
100
AcDbLine
 10
1026
 20
967
 11
1083
 21
967
  0
LINE
  5
E4
100
AcDbEntity
  8
lines
  6
ByLayer
 62
  256
370
   -1
100
AcDbLine
 10
1083
 20
967
 11
1083
 21
1270
  0
LINE
  5
E5
100
AcDbEntity
  8
lines
  6
ByLayer
 62
  256
370
   -1
100
AcDbLine
 10
1083
 20
1270
 11
1026
 21
1270
  0
LINE
  5
E6
100
AcDbEntity
  8
lines
  6
ByLayer
 62
  256
370
   -1
100
AcDbLine
 10
1026
 20
1270
 11
1026
 21
1288
  0
LINE
  5
E7
100
AcDbEntity
  8
lines
  6
ByLayer
 62
  256
370
   -1
100
AcDbLine
 10
1026
 20
1288
 11
1083
 21
1288
  0
LINE
  5
E8
100
AcDbEntity
  8
lines
  6
ByLayer
 62
  256
370
   -1
100
AcDbLine
 10
1083
 20
1288
 11
1083
 21
1432
  0
LINE
  5
E9
100
AcDbEntity
  8
lines
  6
ByLayer
 62
  256
370
   -1
100
AcDbLine
 10
1083
 20
1432
 11
1083
 21
1433
  0
LINE
  5
EA
100
AcDbEntity
  8
lines
  6
ByLayer
 62
  256
370
   -1
100
AcDbLine
 10
1083
 20
1433
 11
1026
 21
1433
  0
LINE
  5
EB
100
AcDbEntity
  8
lines
  6
ByLayer
 62
  256
370
   -1
100
AcDbLine
 10
1026
 20
1433
 11
1026
 21
1450
  0
LINE
  5
EC
100
AcDbEntity
  8
lines
  6
ByLayer
 62
  256
370
   -1
100
AcDbLine
 10
1026
 20
1450
 11
1083
 21
1450
  0
LINE
  5
ED
100
AcDbEntity
  8
lines
  6
ByLayer
 62
  256
370
   -1
100
AcDbLine
 10
1083
 20
1450
 11
1083
 21
1577
  0
LINE
  5
EE
100
AcDbEntity
  8
lines
  6
ByLayer
 62
  256
370
   -1
100
AcDbLine
 10
1083
 20
1577
 11
1026
 21
1577
  0
LINE
  5
EF
100
AcDbEntity
  8
lines
  6
ByLayer
 62
  256
370
   -1
100
AcDbLine
 10
1026
 20
1577
 11
1026
 21
1597
  0
LINE
  5
F0
100
AcDbEntity
  8
lines
  6
ByLayer
 62
  256
370
   -1
100
AcDbLine
 10
1422
 20
150
 11
1404
 21
150
  0
LINE
  5
F1
100
AcDbEntity
  8
lines
  6
ByLayer
 62
  256
370
   -1
100
AcDbLine
 10
1519
 20
150
 11
1536
 21
150
  0
LINE
  5
F2
100
AcDbEntity
  8
lines
  6
ByLayer
 62
  256
370
   -1
100
AcDbLine
 10
1671
 20
150
 11
1688
 21
150
  0
LINE
  5
F3
100
AcDbEntity
  8
lines
  6
ByLayer
 62
  256
370
   -1
100
AcDbLine
 10
1785
 20
150
 11
1803
 21
150
  0
LINE
  5
F4
100
AcDbEntity
  8
lines
  6
ByLayer
 62
  256
370
   -1
100
AcDbLine
 10
2179
 20
628
 11
2179
 21
648
  0
LINE
  5
F5
100
AcDbEntity
  8
lines
  6
ByLayer
 62
  256
370
   -1
100
AcDbLine
 10
2179
 20
648
 11
2122
 21
648
  0
LINE
  5
F6
100
AcDbEntity
  8
lines
  6
ByLayer
 62
  256
370
   -1
100
AcDbLine
 10
2122
 20
648
 11
2122
 21
786
  0
LINE
  5
F7
100
AcDbEntity
  8
lines
  6
ByLayer
 62
  256
370
   -1
100
AcDbLine
 10
2122
 20
786
 11
2179
 21
786
  0
LINE
  5
F8
100
AcDbEntity
  8
lines
  6
ByLayer
 62
  256
370
   -1
100
AcDbLine
 10
2179
 20
786
 11
2179
 21
803
  0
LINE
  5
F9
100
AcDbEntity
  8
lines
  6
ByLayer
 62
  256
370
   -1
100
AcDbLine
 10
2179
 20
803
 11
2122
 21
803
  0
LINE
  5
FA
100
AcDbEntity
  8
lines
  6
ByLayer
 62
  256
370
   -1
100
AcDbLine
 10
2122
 20
803
 11
2122
 21
948
  0
LINE
  5
FB
100
AcDbEntity
  8
lines
  6
ByLayer
 62
  256
370
   -1
100
AcDbLine
 10
2122
 20
948
 11
2179
 21
948
  0
LINE
  5
FC
100
AcDbEntity
  8
lines
  6
ByLayer
 62
  256
370
   -1
100
AcDbLine
 10
2179
 20
948
 11
2179
 21
966
  0
LINE
  5
FD
100
AcDbEntity
  8
lines
  6
ByLayer
 62
  256
370
   -1
100
AcDbLine
 10
2179
 20
966
 11
2122
 21
966
  0
LINE
  5
FE
100
AcDbEntity
  8
lines
  6
ByLayer
 62
  256
370
   -1
100
AcDbLine
 10
2122
 20
966
 11
2122
 21
1269
  0
LINE
  5
FF
100
AcDbEntity
  8
lines
  6
ByLayer
 62
  256
370
   -1
100
AcDbLine
 10
2122
 20
1269
 11
2178
 21
1269
  0
LINE
  5
100
100
AcDbEntity
  8
lines
  6
ByLayer
 62
  256
370
   -1
100
AcDbLine
 10
2178
 20
1269
 11
2179
 21
1269
  0
LINE
  5
101
100
AcDbEntity
  8
lines
  6
ByLayer
 62
  256
370
   -1
100
AcDbLine
 10
2179
 20
1269
 11
2179
 21
1287
  0
LINE
  5
102
100
AcDbEntity
  8
lines
  6
ByLayer
 62
  256
370
   -1
100
AcDbLine
 10
2179
 20
1287
 11
2122
 21
1287
  0
LINE
  5
103
100
AcDbEntity
  8
lines
  6
ByLayer
 62
  256
370
   -1
100
AcDbLine
 10
2122
 20
1287
 11
2122
 21
1430
  0
LINE
  5
104
100
AcDbEntity
  8
lines
  6
ByLayer
 62
  256
370
   -1
100
AcDbLine
 10
2122
 20
1430
 11
2179
 21
1430
  0
LINE
  5
105
100
AcDbEntity
  8
lines
  6
ByLayer
 62
  256
370
   -1
100
AcDbLine
 10
2179
 20
1430
 11
2179
 21
1448
  0
LINE
  5
106
100
AcDbEntity
  8
lines
  6
ByLayer
 62
  256
370
   -1
100
AcDbLine
 10
2179
 20
1448
 11
2122
 21
1448
  0
LINE
  5
107
100
AcDbEntity
  8
lines
  6
ByLayer
 62
  256
370
   -1
100
AcDbLine
 10
2122
 20
1448
 11
2122
 21
1578
  0
LINE
  5
108
100
AcDbEntity
  8
lines
  6
ByLayer
 62
  256
370
   -1
100
AcDbLine
 10
2122
 20
1578
 11
2179
 21
1578
  0
LINE
  5
109
100
AcDbEntity
  8
lines
  6
ByLayer
 62
  256
370
   -1
100
AcDbLine
 10
2179
 20
1578
 11
2179
 21
1597
  0
LINE
  5
10A
100
AcDbEntity
  8
lines
  6
ByLayer
 62
  256
370
   -1
100
AcDbLine
 10
1404
 20
1861
 11
1523
 21
1808
  0
LINE
  5
10B
100
AcDbEntity
  8
lines
  6
ByLayer
 62
  256
370
   -1
100
AcDbLine
 10
1523
 20
1808
 11
1404
 21
1755
  0
LINE
  5
10C
100
AcDbEntity
  8
lines
  6
ByLayer
 62
  256
370
   -1
100
AcDbLine
 10
1404
 20
1755
 11
1385
 21
1736
  0
LINE
  5
10D
100
AcDbEntity
  8
lines
  6
ByLayer
 62
  256
370
   -1
100
AcDbLine
 10
1385
 20
1736
 11
1385
 21
1620
  0
LINE
  5
10E
100
AcDbEntity
  8
lines
  6
ByLayer
 62
  256
370
   -1
100
AcDbLine
 10
1385
 20
1620
 11
1404
 21
1597
  0
LINE
  5
10F
100
AcDbEntity
  8
lines
  6
ByLayer
 62
  256
370
   -1
100
AcDbLine
 10
1803
 20
1597
 11
1824
 21
1621
  0
LINE
  5
110
100
AcDbEntity
  8
lines
  6
ByLayer
 62
  256
370
   -1
100
AcDbLine
 10
1824
 20
1621
 11
1824
 21
1730
  0
LINE
  5
111
100
AcDbEntity
  8
lines
  6
ByLayer
 62
  256
370
   -1
100
AcDbLine
 10
1824
 20
1730
 11
1803
 21
1755
  0
LINE
  5
112
100
AcDbEntity
  8
lines
  6
ByLayer
 62
  256
370
   -1
100
AcDbLine
 10
1803
 20
1755
 11
1685
 21
1808
  0
LINE
  5
113
100
AcDbEntity
  8
lines
  6
ByLayer
 62
  256
370
   -1
100
AcDbLine
 10
1685
 20
1808
 11
1803
 21
1861
  0
LINE
  5
114
100
AcDbEntity
  8
lines
  6
ByLayer
 62
  256
370
   -1
100
AcDbLine
 10
1803
 20
2075
 11
1784
 21
2075
  0
LINE
  5
115
100
AcDbEntity
  8
lines
  6
ByLayer
 62
  256
370
   -1
100
AcDbLine
 10
1784
 20
2075
 11
1784
 21
2019
  0
LINE
  5
116
100
AcDbEntity
  8
lines
  6
ByLayer
 62
  256
370
   -1
100
AcDbLine
 10
1784
 20
2019
 11
1687
 21
2019
  0
LINE
  5
117
100
AcDbEntity
  8
lines
  6
ByLayer
 62
  256
370
   -1
100
AcDbLine
 10
1687
 20
2019
 11
1687
 21
2075
  0
LINE
  5
118
100
AcDbEntity
  8
lines
  6
ByLayer
 62
  256
370
   -1
100
AcDbLine
 10
1687
 20
2075
 11
1670
 21
2075
  0
LINE
  5
119
100
AcDbEntity
  8
lines
  6
ByLayer
 62
  256
370
   -1
100
AcDbLine
 10
1670
 20
2075
 11
1670
 21
2020
  0
LINE
  5
11A
100
AcDbEntity
  8
lines
  6
ByLayer
 62
  256
370
   -1
100
AcDbLine
 10
1670
 20
2020
 11
1670
 21
2019
  0
LINE
  5
11B
100
AcDbEntity
  8
lines
  6
ByLayer
 62
  256
370
   -1
100
AcDbLine
 10
1670
 20
2019
 11
1535
 21
2019
  0
LINE
  5
11C
100
AcDbEntity
  8
lines
  6
ByLayer
 62
  256
370
   -1
100
AcDbLine
 10
1535
 20
2019
 11
1535
 21
2075
  0
LINE
  5
11D
100
AcDbEntity
  8
lines
  6
ByLayer
 62
  256
370
   -1
100
AcDbLine
 10
1535
 20
2075
 11
1518
 21
2075
  0
LINE
  5
11E
100
AcDbEntity
  8
lines
  6
ByLayer
 62
  256
370
   -1
100
AcDbLine
 10
1518
 20
2075
 11
1518
 21
2019
  0
LINE
  5
11F
100
AcDbEntity
  8
lines
  6
ByLayer
 62
  256
370
   -1
100
AcDbLine
 10
1518
 20
2019
 11
1421
 21
2019
  0
LINE
  5
120
100
AcDbEntity
  8
lines
  6
ByLayer
 62
  256
370
   -1
100
AcDbLine
 10
1421
 20
2019
 11
1421
 21
2075
  0
LINE
  5
121
100
AcDbEntity
  8
lines
  6
ByLayer
 62
  256
370
   -1
100
AcDbLine
 10
1421
 20
2075
 11
1404
 21
2075
  0
LINE
  5
122
100
AcDbEntity
  8
lines
  6
ByLayer
 62
  256
370
   -1
100
AcDbLine
 10
1803
 20
1861
 11
1803
 21
2075
  0
LINE
  5
123
100
AcDbEntity
  8
lines
  6
ByLayer
 62
  256
370
   -1
100
AcDbLine
 10
1404
 20
2075
 11
1404
 21
1861
  0
LINE
  5
124
100
AcDbEntity
  8
lines
  6
DASHED
 62
  256
370
   -1
100
AcDbLine
 10
1404
 20
1755
 11
1404
 21
1597
  0
LINE
  5
125
100
AcDbEntity
  8
lines
  6
DASHED
 62
  256
370
   -1
100
AcDbLine
 10
1404
 20
1597
 11
1404
 21
628
  0
LINE
  5
126
100
AcDbEntity
  8
lines
  6
DASHED
 62
  256
370
   -1
100
AcDbLine
 10
1404
 20
628
 11
1404
 21
471
  0
LINE
  5
127
100
AcDbEntity
  8
lines
  6
ByLayer
 62
  256
370
   -1
100
AcDbLine
 10
1404
 20
363
 11
1404
 21
150
  0
LINE
  5
128
100
AcDbEntity
  8
lines
  6
ByLayer
 62
  256
370
   -1
100
AcDbLine
 10
1803
 20
363
 11
1803
 21
150
  0
LINE
  5
129
100
AcDbEntity
  8
lines
  6
DASHED
 62
  256
370
   -1
100
AcDbLine
 10
1803
 20
628
 11
1803
 21
471
  0
LINE
  5
12A
100
AcDbEntity
  8
lines
  6
DASHED
 62
  256
370
   -1
100
AcDbLine
 10
1803
 20
628
 11
1803
 21
1597
  0
LINE
  5
12B
100
AcDbEntity
  8
lines
  6
DASHED
 62
  256
370
   -1
100
AcDbLine
 10
1803
 20
1597
 11
1803
 21
1755
  0
LINE
  5
12C
100
AcDbEntity
  8
lines
  6
ByLayer
 62
  256
370
   -1
100
AcDbLine
 10
1803
 20
2075
 11
1803
 21
1861
  0
LINE
  5
12D
100
AcDbEntity
  8
lines
  6
ByLayer
 62
  256
370
   -1
100
AcDbLine
 10
943
 20
1563
 11
980
 21
1563
  0
LINE
  5
12E
100
AcDbEntity
  8
lines
  6
ByLayer
 62
  256
370
   -1
100
AcDbLine
 10
980
 20
1563
 11
980
 21
1554
  0
LINE
  5
12F
100
AcDbEntity
  8
lines
  6
ByLayer
 62
  256
370
   -1
100
AcDbLine
 10
980
 20
1554
 11
989
 21
1554
  0
LINE
  5
130
100
AcDbEntity
  8
lines
  6
ByLayer
 62
  256
370
   -1
100
AcDbLine
 10
981
 20
1383
 11
981
 21
1298
  0
LINE
  5
131
100
AcDbEntity
  8
lines
  6
ByLayer
 62
  256
370
   -1
100
AcDbLine
 10
981
 20
1298
 11
989
 21
1297
  0
LINE
  5
132
100
AcDbEntity
  8
lines
  6
ByLayer
 62
  256
370
   -1
100
AcDbLine
 10
989
 20
1297
 11
989
 21
843
  0
LINE
  5
133
100
AcDbEntity
  8
lines
  6
ByLayer
 62
  256
370
   -1
100
AcDbLine
 10
989
 20
843
 11
981
 21
841
  0
LINE
  5
134
100
AcDbEntity
  8
lines
  6
ByLayer
 62
  256
370
   -1
100
AcDbLine
 10
981
 20
841
 11
981
 21
757
  0
LINE
  5
135
100
AcDbEntity
  8
lines
  6
ByLayer
 62
  256
370
   -1
100
AcDbLine
 10
981
 20
757
 11
989
 21
755
  0
LINE
  5
136
100
AcDbEntity
  8
lines
  6
ByLayer
 62
  256
370
   -1
100
AcDbLine
 10
989
 20
755
 11
989
 21
594
  0
LINE
  5
137
100
AcDbEntity
  8
lines
  6
ByLayer
 62
  256
370
   -1
100
AcDbLine
 10
989
 20
594
 11
980
 21
594
  0
LINE
  5
138
100
AcDbEntity
  8
lines
  6
ByLayer
 62
  256
370
   -1
100
AcDbLine
 10
980
 20
594
 11
980
 21
585
  0
LINE
  5
139
100
AcDbEntity
  8
lines
  6
ByLayer
 62
  256
370
   -1
100
AcDbLine
 10
980
 20
585
 11
943
 21
585
  0
LINE
  5
13A
100
AcDbEntity
  8
lines
  6
ByLayer
 62
  256
370
   -1
100
AcDbLine
 10
943
 20
585
 11
943
 21
594
  0
LINE
  5
13B
100
AcDbEntity
  8
lines
  6
ByLayer
 62
  256
370
   -1
100
AcDbLine
 10
943
 20
594
 11
935
 21
594
  0
LINE
  5
13C
100
AcDbEntity
  8
lines
  6
ByLayer
 62
  256
370
   -1
100
AcDbLine
 10
935
 20
594
 11
935
 21
1554
  0
LINE
  5
13D
100
AcDbEntity
  8
lines
  6
ByLayer
 62
  256
370
   -1
100
AcDbLine
 10
935
 20
1554
 11
943
 21
1554
  0
LINE
  5
13E
100
AcDbEntity
  8
lines
  6
ByLayer
 62
  256
370
   -1
100
AcDbLine
 10
943
 20
1554
 11
943
 21
1563
  0
LINE
  5
13F
100
AcDbEntity
  8
lines
  6
ByLayer
 62
  256
370
   -1
100
AcDbLine
 10
981
 20
1383
 11
989
 21
1385
  0
LINE
  5
140
100
AcDbEntity
  8
lines
  6
ByLayer
 62
  256
370
   -1
100
AcDbLine
 10
989
 20
1385
 11
989
 21
1554
  0
LINE
  5
141
100
AcDbEntity
  8
lines
  6
ByLayer
 62
  256
370
   -1
100
AcDbLine
 10
844
 20
1563
 11
881
 21
1563
  0
LINE
  5
142
100
AcDbEntity
  8
lines
  6
ByLayer
 62
  256
370
   -1
100
AcDbLine
 10
881
 20
1563
 11
881
 21
1554
  0
LINE
  5
143
100
AcDbEntity
  8
lines
  6
ByLayer
 62
  256
370
   -1
100
AcDbLine
 10
881
 20
1554
 11
889
 21
1554
  0
LINE
  5
144
100
AcDbEntity
  8
lines
  6
ByLayer
 62
  256
370
   -1
100
AcDbLine
 10
889
 20
1554
 11
889
 21
594
  0
LINE
  5
145
100
AcDbEntity
  8
lines
  6
ByLayer
 62
  256
370
   -1
100
AcDbLine
 10
889
 20
594
 11
881
 21
594
  0
LINE
  5
146
100
AcDbEntity
  8
lines
  6
ByLayer
 62
  256
370
   -1
100
AcDbLine
 10
881
 20
594
 11
881
 21
585
  0
LINE
  5
147
100
AcDbEntity
  8
lines
  6
ByLayer
 62
  256
370
   -1
100
AcDbLine
 10
881
 20
585
 11
844
 21
585
  0
LINE
  5
148
100
AcDbEntity
  8
lines
  6
ByLayer
 62
  256
370
   -1
100
AcDbLine
 10
844
 20
585
 11
844
 21
594
  0
LINE
  5
149
100
AcDbEntity
  8
lines
  6
ByLayer
 62
  256
370
   -1
100
AcDbLine
 10
844
 20
594
 11
835
 21
594
  0
LINE
  5
14A
100
AcDbEntity
  8
lines
  6
ByLayer
 62
  256
370
   -1
100
AcDbLine
 10
835
 20
594
 11
835
 21
1554
  0
LINE
  5
14B
100
AcDbEntity
  8
lines
  6
ByLayer
 62
  256
370
   -1
100
AcDbLine
 10
835
 20
1554
 11
844
 21
1554
  0
LINE
  5
14C
100
AcDbEntity
  8
lines
  6
ByLayer
 62
  256
370
   -1
100
AcDbLine
 10
844
 20
1554
 11
844
 21
1563
  0
LINE
  5
14D
100
AcDbEntity
  8
lines
  6
ByLayer
 62
  256
370
   -1
100
AcDbLine
 10
1026
 20
1597
 11
1404
 21
1597
  0
LINE
  5
14E
100
AcDbEntity
  8
lines
  6
DASHED
 62
  256
370
   -1
100
AcDbLine
 10
1404
 20
1597
 11
1803
 21
1597
  0
LINE
  5
14F
100
AcDbEntity
  8
lines
  6
ByLayer
 62
  256
370
   -1
100
AcDbLine
 10
1803
 20
1597
 11
2179
 21
1597
  0
LINE
  5
150
100
AcDbEntity
  8
lines
  6
ByLayer
 62
  256
370
   -1
100
AcDbLine
 10
1026
 20
628
 11
1404
 21
628
  0
LINE
  5
151
100
AcDbEntity
  8
lines
  6
DASHED
 62
  256
370
   -1
100
AcDbLine
 10
1404
 20
628
 11
1803
 21
628
  0
LINE
  5
152
100
AcDbEntity
  8
lines
  6
ByLayer
 62
  256
370
   -1
100
AcDbLine
 10
1803
 20
628
 11
2179
 21
628
  0
LINE
  5
153
100
AcDbEntity
  8
lines
  6
DASHED
 62
  256
370
   -1
100
AcDbLine
 10
1522
 20
417
 11
1684
 21
417
  0
LINE
  5
154
100
AcDbEntity
  8
lines
  6
DASHED
 62
  256
370
   -1
100
AcDbLine
 10
1523
 20
1808
 11
1685
 21
1808
  0
LINE
  5
155
100
AcDbEntity
  8
lines
  6
DASHED
 62
  256
370
   -1
100
AcDbLine
 10
1962
 20
1597
 11
1962
 21
628
  0
LINE
  5
156
100
AcDbEntity
  8
lines
  6
DASHED
 62
  256
370
   -1
100
AcDbLine
 10
1244
 20
628
 11
1244
 21
1597
  0
LINE
  5
157
100
AcDbEntity
  8
lines
  6
ByLayer
 62
  256
370
   -1
100
AcDbLine
 10
745
 20
1563
 11
782
 21
1563
  0
LINE
  5
158
100
AcDbEntity
  8
lines
  6
ByLayer
 62
  256
370
   -1
100
AcDbLine
 10
782
 20
1563
 11
782
 21
1554
  0
LINE
  5
159
100
AcDbEntity
  8
lines
  6
ByLayer
 62
  256
370
   -1
100
AcDbLine
 10
782
 20
1554
 11
790
 21
1554
  0
LINE
  5
15A
100
AcDbEntity
  8
lines
  6
ByLayer
 62
  256
370
   -1
100
AcDbLine
 10
790
 20
1554
 11
790
 21
594
  0
LINE
  5
15B
100
AcDbEntity
  8
lines
  6
ByLayer
 62
  256
370
   -1
100
AcDbLine
 10
790
 20
594
 11
782
 21
594
  0
LINE
  5
15C
100
AcDbEntity
  8
lines
  6
ByLayer
 62
  256
370
   -1
100
AcDbLine
 10
782
 20
594
 11
782
 21
585
  0
LINE
  5
15D
100
AcDbEntity
  8
lines
  6
ByLayer
 62
  256
370
   -1
100
AcDbLine
 10
782
 20
585
 11
745
 21
585
  0
LINE
  5
15E
100
AcDbEntity
  8
lines
  6
ByLayer
 62
  256
370
   -1
100
AcDbLine
 10
745
 20
585
 11
745
 21
594
  0
LINE
  5
15F
100
AcDbEntity
  8
lines
  6
ByLayer
 62
  256
370
   -1
100
AcDbLine
 10
745
 20
594
 11
736
 21
594
  0
LINE
  5
160
100
AcDbEntity
  8
lines
  6
ByLayer
 62
  256
370
   -1
100
AcDbLine
 10
736
 20
594
 11
736
 21
1554
  0
LINE
  5
161
100
AcDbEntity
  8
lines
  6
ByLayer
 62
  256
370
   -1
100
AcDbLine
 10
736
 20
1554
 11
745
 21
1554
  0
LINE
  5
162
100
AcDbEntity
  8
lines
  6
ByLayer
 62
  256
370
   -1
100
AcDbLine
 10
745
 20
1554
 11
745
 21
1563
  0
LINE
  5
163
100
AcDbEntity
  8
lines
  6
ByLayer
 62
  256
370
   -1
100
AcDbLine
 10
657
 20
1563
 11
694
 21
1563
  0
LINE
  5
164
100
AcDbEntity
  8
lines
  6
ByLayer
 62
  256
370
   -1
100
AcDbLine
 10
694
 20
1563
 11
694
 21
1554
  0
LINE
  5
165
100
AcDbEntity
  8
lines
  6
ByLayer
 62
  256
370
   -1
100
AcDbLine
 10
694
 20
1554
 11
702
 21
1554
  0
LINE
  5
166
100
AcDbEntity
  8
lines
  6
ByLayer
 62
  256
370
   -1
100
AcDbLine
 10
702
 20
1554
 11
702
 21
594
  0
LINE
  5
167
100
AcDbEntity
  8
lines
  6
ByLayer
 62
  256
370
   -1
100
AcDbLine
 10
702
 20
594
 11
694
 21
594
  0
LINE
  5
168
100
AcDbEntity
  8
lines
  6
ByLayer
 62
  256
370
   -1
100
AcDbLine
 10
694
 20
594
 11
694
 21
585
  0
LINE
  5
169
100
AcDbEntity
  8
lines
  6
ByLayer
 62
  256
370
   -1
100
AcDbLine
 10
694
 20
585
 11
657
 21
585
  0
LINE
  5
16A
100
AcDbEntity
  8
lines
  6
ByLayer
 62
  256
370
   -1
100
AcDbLine
 10
657
 20
585
 11
657
 21
594
  0
LINE
  5
16B
100
AcDbEntity
  8
lines
  6
ByLayer
 62
  256
370
   -1
100
AcDbLine
 10
657
 20
594
 11
648
 21
594
  0
LINE
  5
16C
100
AcDbEntity
  8
lines
  6
ByLayer
 62
  256
370
   -1
100
AcDbLine
 10
648
 20
594
 11
648
 21
753
  0
LINE
  5
16D
100
AcDbEntity
  8
lines
  6
ByLayer
 62
  256
370
   -1
100
AcDbLine
 10
648
 20
753
 11
656
 21
755
  0
LINE
  5
16E
100
AcDbEntity
  8
lines
  6
ByLayer
 62
  256
370
   -1
100
AcDbLine
 10
656
 20
755
 11
656
 21
838
  0
LINE
  5
16F
100
AcDbEntity
  8
lines
  6
ByLayer
 62
  256
370
   -1
100
AcDbLine
 10
656
 20
838
 11
648
 21
840
  0
LINE
  5
170
100
AcDbEntity
  8
lines
  6
ByLayer
 62
  256
370
   -1
100
AcDbLine
 10
648
 20
840
 11
648
 21
1296
  0
LINE
  5
171
100
AcDbEntity
  8
lines
  6
ByLayer
 62
  256
370
   -1
100
AcDbLine
 10
648
 20
1296
 11
656
 21
1298
  0
LINE
  5
172
100
AcDbEntity
  8
lines
  6
ByLayer
 62
  256
370
   -1
100
AcDbLine
 10
656
 20
1298
 11
656
 21
1381
  0
LINE
  5
173
100
AcDbEntity
  8
lines
  6
ByLayer
 62
  256
370
   -1
100
AcDbLine
 10
656
 20
1381
 11
648
 21
1383
  0
LINE
  5
174
100
AcDbEntity
  8
lines
  6
ByLayer
 62
  256
370
   -1
100
AcDbLine
 10
648
 20
1383
 11
648
 21
1554
  0
LINE
  5
175
100
AcDbEntity
  8
lines
  6
ByLayer
 62
  256
370
   -1
100
AcDbLine
 10
648
 20
1554
 11
657
 21
1554
  0
LINE
  5
176
100
AcDbEntity
  8
lines
  6
ByLayer
 62
  256
370
   -1
100
AcDbLine
 10
657
 20
1554
 11
657
 21
1563
  0
LINE
  5
177
100
AcDbEntity
  8
lines
  6
ByLayer
 62
  256
370
   -1
100
AcDbLine
 10
589
 20
1554
 11
611
 21
1554
  0
LINE
  5
178
100
AcDbEntity
  8
lines
  6
ByLayer
 62
  256
370
   -1
100
AcDbLine
 10
611
 20
1554
 11
611
 21
594
  0
LINE
  5
179
100
AcDbEntity
  8
lines
  6
ByLayer
 62
  256
370
   -1
100
AcDbLine
 10
611
 20
594
 11
589
 21
594
  0
LINE
  5
17A
100
AcDbEntity
  8
lines
  6
ByLayer
 62
  256
370
   -1
100
AcDbLine
 10
589
 20
594
 11
589
 21
750
  0
LINE
  5
17B
100
AcDbEntity
  8
lines
  6
ByLayer
 62
  256
370
   -1
100
AcDbLine
 10
589
 20
750
 11
600
 21
753
  0
LINE
  5
17C
100
AcDbEntity
  8
lines
  6
ByLayer
 62
  256
370
   -1
100
AcDbLine
 10
600
 20
753
 11
600
 21
836
  0
LINE
  5
17D
100
AcDbEntity
  8
lines
  6
ByLayer
 62
  256
370
   -1
100
AcDbLine
 10
600
 20
836
 11
589
 21
839
  0
LINE
  5
17E
100
AcDbEntity
  8
lines
  6
ByLayer
 62
  256
370
   -1
100
AcDbLine
 10
589
 20
839
 11
589
 21
1295
  0
LINE
  5
17F
100
AcDbEntity
  8
lines
  6
ByLayer
 62
  256
370
   -1
100
AcDbLine
 10
589
 20
1295
 11
600
 21
1298
  0
LINE
  5
180
100
AcDbEntity
  8
lines
  6
ByLayer
 62
  256
370
   -1
100
AcDbLine
 10
600
 20
1298
 11
600
 21
1381
  0
LINE
  5
181
100
AcDbEntity
  8
lines
  6
ByLayer
 62
  256
370
   -1
100
AcDbLine
 10
600
 20
1381
 11
589
 21
1384
  0
LINE
  5
182
100
AcDbEntity
  8
lines
  6
ByLayer
 62
  256
370
   -1
100
AcDbLine
 10
589
 20
1384
 11
589
 21
1554
  0
LINE
  5
183
100
AcDbEntity
  8
lines
  6
ByLayer
 62
  256
370
   -1
100
AcDbLine
 10
535
 20
1554
 11
557
 21
1554
  0
LINE
  5
184
100
AcDbEntity
  8
lines
  6
ByLayer
 62
  256
370
   -1
100
AcDbLine
 10
557
 20
1554
 11
557
 21
1384
  0
LINE
  5
185
100
AcDbEntity
  8
lines
  6
ByLayer
 62
  256
370
   -1
100
AcDbLine
 10
557
 20
1384
 11
546
 21
1381
  0
LINE
  5
186
100
AcDbEntity
  8
lines
  6
ByLayer
 62
  256
370
   -1
100
AcDbLine
 10
546
 20
1381
 11
546
 21
1298
  0
LINE
  5
187
100
AcDbEntity
  8
lines
  6
ByLayer
 62
  256
370
   -1
100
AcDbLine
 10
546
 20
1298
 11
557
 21
1295
  0
LINE
  5
188
100
AcDbEntity
  8
lines
  6
ByLayer
 62
  256
370
   -1
100
AcDbLine
 10
557
 20
1295
 11
557
 21
839
  0
LINE
  5
189
100
AcDbEntity
  8
lines
  6
ByLayer
 62
  256
370
   -1
100
AcDbLine
 10
557
 20
839
 11
546
 21
836
  0
LINE
  5
18A
100
AcDbEntity
  8
lines
  6
ByLayer
 62
  256
370
   -1
100
AcDbLine
 10
546
 20
836
 11
546
 21
753
  0
LINE
  5
18B
100
AcDbEntity
  8
lines
  6
ByLayer
 62
  256
370
   -1
100
AcDbLine
 10
546
 20
753
 11
557
 21
750
  0
LINE
  5
18C
100
AcDbEntity
  8
lines
  6
ByLayer
 62
  256
370
   -1
100
AcDbLine
 10
557
 20
750
 11
557
 21
594
  0
LINE
  5
18D
100
AcDbEntity
  8
lines
  6
ByLayer
 62
  256
370
   -1
100
AcDbLine
 10
557
 20
594
 11
535
 21
594
  0
LINE
  5
18E
100
AcDbEntity
  8
lines
  6
ByLayer
 62
  256
370
   -1
100
AcDbLine
 10
535
 20
594
 11
535
 21
1554
  0
LINE
  5
18F
100
AcDbEntity
  8
lines
  6
DASHED
 62
  256
370
   -1
100
AcDbLine
 10
657
 20
1554
 11
694
 21
1554
  0
LINE
  5
190
100
AcDbEntity
  8
lines
  6
DASHED
 62
  256
370
   -1
100
AcDbLine
 10
694
 20
1554
 11
694
 21
594
  0
LINE
  5
191
100
AcDbEntity
  8
lines
  6
DASHED
 62
  256
370
   -1
100
AcDbLine
 10
694
 20
594
 11
657
 21
594
  0
LINE
  5
192
100
AcDbEntity
  8
lines
  6
DASHED
 62
  256
370
   -1
100
AcDbLine
 10
657
 20
594
 11
657
 21
1554
  0
LINE
  5
193
100
AcDbEntity
  8
lines
  6
DASHED
 62
  256
370
   -1
100
AcDbLine
 10
745
 20
1554
 11
782
 21
1554
  0
LINE
  5
194
100
AcDbEntity
  8
lines
  6
DASHED
 62
  256
370
   -1
100
AcDbLine
 10
782
 20
1554
 11
782
 21
594
  0
LINE
  5
195
100
AcDbEntity
  8
lines
  6
DASHED
 62
  256
370
   -1
100
AcDbLine
 10
782
 20
594
 11
745
 21
594
  0
LINE
  5
196
100
AcDbEntity
  8
lines
  6
DASHED
 62
  256
370
   -1
100
AcDbLine
 10
745
 20
594
 11
745
 21
1554
  0
LINE
  5
197
100
AcDbEntity
  8
lines
  6
DASHED
 62
  256
370
   -1
100
AcDbLine
 10
844
 20
1554
 11
881
 21
1554
  0
LINE
  5
198
100
AcDbEntity
  8
lines
  6
DASHED
 62
  256
370
   -1
100
AcDbLine
 10
881
 20
1554
 11
881
 21
594
  0
LINE
  5
199
100
AcDbEntity
  8
lines
  6
DASHED
 62
  256
370
   -1
100
AcDbLine
 10
881
 20
594
 11
844
 21
594
  0
LINE
  5
19A
100
AcDbEntity
  8
lines
  6
DASHED
 62
  256
370
   -1
100
AcDbLine
 10
844
 20
594
 11
844
 21
1554
  0
LINE
  5
19B
100
AcDbEntity
  8
lines
  6
DASHED
 62
  256
370
   -1
100
AcDbLine
 10
943
 20
1554
 11
980
 21
1554
  0
LINE
  5
19C
100
AcDbEntity
  8
lines
  6
DASHED
 62
  256
370
   -1
100
AcDbLine
 10
980
 20
1554
 11
980
 21
594
  0
LINE
  5
19D
100
AcDbEntity
  8
lines
  6
DASHED
 62
  256
370
   -1
100
AcDbLine
 10
980
 20
594
 11
943
 21
594
  0
LINE
  5
19E
100
AcDbEntity
  8
lines
  6
DASHED
 62
  256
370
   -1
100
AcDbLine
 10
943
 20
594
 11
943
 21
1554
  0
ENDSEC
  0
SECTION
  2
OBJECTS
  0
DICTIONARY
  5
C
330
0
100
AcDbDictionary
281
    1
  3
ACAD_GROUP
350
D
  3
ACAD_IMAGE_DICT
350
19F
  0
DICTIONARY
  5
D
330
C
100
AcDbDictionary
281
    1
  0
IMAGEDEF_REACTOR
  5
51
330
52
100
AcDbRasterImageDefReactor
 90
    2
330
52
  0
DICTIONARY
  5
19F
330
C
100
AcDbDictionary
281
    1
  3
-000_levelsAt75
350
50
  0
IMAGEDEF
  5
50
102
{ACAD_REACTORS
330
51
102
}
100
AcDbRasterImageDef
 90
    0
  1
/home/az/projects/11_papercraft/papercraft/tests/H0_cargo_L/-000_levelsAt75.jpg
 10
2400
 20
3381
 11
1
 21
1
280
    1
281
    0
  0
ENDSEC
  0
EOF
